<svg width="59" height="53" viewBox="0 0 59 53" fill="none" xmlns="http://www.w3.org/2000/svg">
<g clip-path="url(#clip0_1025_1645)">
<path d="M34.5634 29.7397C34.1869 29.5849 33.8056 29.452 33.4458 29.2589C33.0792 29.0624 32.7306 28.8328 32.4053 28.5735C31.778 28.0733 31.2397 27.4447 30.8411 26.7484C30.5167 26.182 30.2981 25.5644 29.9669 25.0002C29.6546 24.4682 29.2892 23.9655 28.862 23.5201C27.8469 22.4616 26.5329 21.7782 25.1003 21.4864C23.4145 21.1432 21.5664 21.2719 19.9743 21.9381C18.7328 22.458 17.6815 23.3531 16.9161 24.4547C16.5817 24.9358 16.3035 25.4538 16.068 25.99C15.7456 26.7243 15.3285 27.4077 14.7715 27.9893C14.2073 28.5782 13.5422 29.0584 12.8047 29.4065C12.4314 29.5827 12.038 29.7091 11.6622 29.8799C11.3053 30.0419 10.9598 30.2298 10.6311 30.4432C9.3441 31.2784 8.33468 32.4622 7.74142 33.8797C7.1405 35.315 7.0195 36.917 7.24211 38.4478C7.45414 39.9074 7.98881 41.324 8.8822 42.5044C9.73502 43.631 10.9276 44.4964 12.2849 44.9038C13.8 45.3585 15.4725 45.2902 16.9594 44.7596C18.2653 44.2936 19.4065 43.4857 20.6922 42.9764C21.4981 42.6572 22.3769 42.49 23.257 42.4882C23.2649 42.4882 23.2727 42.4884 23.2806 42.4886C23.2876 42.4886 23.2946 42.4882 23.3016 42.4882C23.9277 42.4909 24.5541 42.5774 25.155 42.7534C26.4817 43.1418 27.6166 43.9316 28.8714 44.4912C30.3267 45.1404 31.9396 45.365 33.5116 45.0755C34.9171 44.8168 36.2161 44.0863 37.182 43.0355C38.1711 41.9594 38.8257 40.6117 39.1443 39.1895C39.3081 38.4575 39.3863 37.7058 39.3879 36.956C39.3838 35.4092 38.962 33.8849 38.1063 32.5916C37.2514 31.2998 35.9901 30.3267 34.5634 29.7397ZM20.6877 40.6388C20.6784 40.6309 20.6692 40.623 20.66 40.6149C20.6257 40.5854 20.5917 40.5559 20.5577 40.5259C20.436 40.4186 20.3166 40.3089 20.1994 40.1967C19.9495 39.9574 19.7098 39.7073 19.4802 39.4484C18.9946 38.9009 18.5438 38.3018 18.1635 37.6939C17.7459 37.0265 17.3866 36.3219 17.0995 35.5885C16.9549 35.2192 16.8291 34.8423 16.7241 34.4597C16.6245 34.0967 16.5349 33.7258 16.5189 33.3484C16.4896 32.6542 16.6876 31.9427 17.07 31.3672C17.2644 31.0745 17.4629 30.8591 17.757 30.6462C17.8099 30.6079 17.8494 30.582 17.9411 30.5302C18.019 30.486 18.0992 30.4461 18.1813 30.4103C18.1945 30.4047 18.2078 30.399 18.2211 30.3936C18.2283 30.3907 18.2383 30.3871 18.2421 30.3857C18.2914 30.3686 18.3408 30.3515 18.3908 30.3368C18.4424 30.3215 18.4947 30.3078 18.5472 30.2958C18.5704 30.2904 18.5938 30.2859 18.6172 30.281C18.6299 30.2782 18.6364 30.2769 18.64 30.276C18.64 30.276 18.6413 30.276 18.6515 30.2746C18.7515 30.2598 18.8522 30.2503 18.9534 30.2465C19.007 30.2445 19.0607 30.2438 19.1143 30.2449H19.1174C19.1206 30.2451 19.1249 30.2454 19.1312 30.2458C19.167 30.2481 19.2028 30.2503 19.2384 30.2535C19.3401 30.2625 19.4412 30.2767 19.5415 30.2951C19.6591 30.317 19.6967 30.3262 19.8114 30.3603C20.2244 30.4828 20.5809 30.6638 20.9297 30.9166C21.636 31.4285 22.1676 32.1578 22.6114 32.8991C22.7254 33.0895 22.8349 33.2829 22.942 33.4771C23.0519 33.6767 23.4429 33.7119 23.5625 33.4949C23.9881 32.7232 24.4545 31.9494 25.091 31.3314C25.4103 31.0213 25.7388 30.7735 26.1327 30.5779C26.3332 30.4783 26.4813 30.42 26.7 30.3576C26.9231 30.2938 27.0457 30.2704 27.2674 30.2532C27.4909 30.2359 27.6083 30.2386 27.8365 30.2744C28.0224 30.3035 28.1819 30.3501 28.3748 30.4339C28.3823 30.4371 28.4535 30.4709 28.4512 30.4689C28.4868 30.4871 28.5222 30.5063 28.5569 30.5261C28.6384 30.5727 28.7175 30.6239 28.7937 30.6791C28.8257 30.7023 28.8572 30.7262 28.8883 30.7507C28.9009 30.7607 28.9133 30.7708 28.9257 30.7812C28.9314 30.7859 28.9458 30.7985 28.9458 30.7985C29.0163 30.8611 29.0841 30.9267 29.1486 30.9957C29.6249 31.5044 29.9151 32.1838 29.9899 32.8773C30.0712 33.6328 29.8561 34.3684 29.6138 35.0919C29.364 35.8388 29.042 36.5452 28.6522 37.2263C28.2761 37.8836 27.8442 38.5091 27.364 39.0947C26.9404 39.6113 26.4833 40.0901 25.959 40.5475C25.7244 40.7521 25.4811 40.947 25.2283 41.1286C25.1755 41.1665 25.1221 41.2036 25.0687 41.2406L25.0651 41.2431C25.0521 41.2519 25.0385 41.2606 25.0255 41.2694C24.9928 41.2911 24.9601 41.3122 24.9272 41.3332C24.8164 41.4039 24.7037 41.4718 24.589 41.536C24.4789 41.5977 24.3669 41.6561 24.2529 41.7099C24.2019 41.734 24.1506 41.7572 24.099 41.7796C24.0724 41.791 24.0454 41.8016 24.0188 41.8131L24.0127 41.8161C24.0059 41.8185 23.9989 41.8208 23.9924 41.8233C23.8926 41.8604 23.7914 41.8938 23.6884 41.9211C23.6459 41.9325 23.6028 41.9429 23.5596 41.9521C23.5424 41.9557 23.5253 41.9589 23.5082 41.9623C23.5008 41.9634 23.4933 41.9648 23.4859 41.9657C23.4178 41.9751 23.3496 41.9808 23.2808 41.9823C23.2655 41.9823 23.2502 41.9823 23.2349 41.9823C23.2207 41.9814 23.2065 41.9805 23.1923 41.9794C23.147 41.9756 23.1019 41.9699 23.0571 41.9627C23.0125 41.9557 22.9686 41.947 22.9244 41.9377C22.9199 41.9368 22.9165 41.9361 22.9129 41.9355C22.8874 41.9285 22.8618 41.922 22.8363 41.9147C22.6247 41.8544 22.4242 41.7685 22.2241 41.6775L22.2214 41.6764C22.2122 41.6716 22.2027 41.6671 22.1935 41.6624C22.1653 41.6482 22.1374 41.6338 22.1094 41.6189C22.0522 41.5887 21.9954 41.5576 21.9391 41.5254C21.824 41.4598 21.7111 41.3909 21.5998 41.319C21.3539 41.1599 21.1171 40.9869 20.8884 40.8039C20.8301 40.7573 20.7726 40.71 20.7152 40.6624C20.7098 40.6579 20.694 40.6442 20.6877 40.6388ZM38.7133 37.001C38.7101 38.4397 38.4068 39.9018 37.7363 41.1818C37.1137 42.3703 36.1848 43.3991 34.9899 44.0237C33.7128 44.6913 32.2235 44.843 30.7988 44.5631C29.4638 44.3008 28.33 43.5807 27.1326 42.9787C26.5069 42.6641 25.8641 42.3872 25.1828 42.2171C25.0095 42.1739 24.8349 42.1369 24.6596 42.1056C25.18 41.8546 25.6636 41.5218 26.114 41.162C27.2732 40.2355 28.2586 39.0699 29.0348 37.8081C29.4746 37.0934 29.85 36.3357 30.1433 35.5493C30.2902 35.1557 30.4157 34.7539 30.5171 34.3461C30.616 33.9482 30.6924 33.5474 30.6839 33.1355C30.6512 31.533 29.5357 29.9527 27.8762 29.76C26.9055 29.6474 25.9342 29.9793 25.1485 30.538C24.3732 31.0894 23.7885 31.8782 23.3034 32.6858C23.2914 32.7056 23.2799 32.7254 23.2682 32.7452C22.8902 32.1076 22.4643 31.4936 21.9269 30.9826C21.2379 30.3271 20.3605 29.8461 19.4022 29.7553C18.5174 29.6715 17.6337 29.9364 16.981 30.5486C16.4159 31.0786 16.0387 31.8057 15.9037 32.5668C15.8359 32.9489 15.8195 33.3428 15.8754 33.7276C15.9371 34.1519 16.057 34.5746 16.1836 34.9835C16.4305 35.7812 16.7669 36.5504 17.1723 37.28C17.9106 38.6093 18.8682 39.8364 20.0133 40.8398C20.4849 41.253 20.9864 41.6374 21.5351 41.9434C21.6392 42.0015 21.7455 42.0576 21.8537 42.1103C21.39 42.1964 20.9349 42.3257 20.4941 42.4954C19.8576 42.7403 19.2551 43.0542 18.6551 43.3766C18.079 43.686 17.4783 44.0104 16.88 44.2355C16.1854 44.4969 15.4655 44.6523 14.7244 44.6875C13.3297 44.7535 11.9548 44.3887 10.812 43.5623C9.70776 42.7637 8.91014 41.604 8.42165 40.3423C7.89486 38.9818 7.68757 37.4411 7.86827 35.9909C8.04875 34.5417 8.63029 33.1625 9.60006 32.0643C10.0753 31.5261 10.644 31.0619 11.2609 30.6958C11.5885 30.5015 11.9301 30.3314 12.2818 30.1856C12.6601 30.0288 13.0431 29.8945 13.4077 29.7053C14.8801 28.9412 16.0349 27.688 16.6903 26.1669C17.1389 25.1257 17.7989 24.1303 18.6729 23.3797C19.7569 22.4487 21.125 21.9562 22.5477 21.8473C24.0857 21.7297 25.6861 21.9771 27.0182 22.7876C28.0569 23.4196 28.8773 24.3504 29.4557 25.4083C29.7758 25.9941 29.9991 26.6241 30.3583 27.1896C30.8017 27.8879 31.3553 28.4978 32.0074 29.0068C32.6662 29.5212 33.396 29.8578 34.167 30.1651C34.868 30.4445 35.5255 30.8269 36.1126 31.3012C37.2313 32.2052 38.0283 33.4602 38.4235 34.8384C38.6247 35.5399 38.7115 36.2724 38.7133 37.001Z" fill="#00405B"/>
<path d="M20.6877 40.6388L20.66 40.6149C20.6257 40.5854 20.5917 40.5559 20.5577 40.5259C20.436 40.4186 20.3166 40.3089 20.1994 40.1967C19.9495 39.9574 19.7098 39.7073 19.4802 39.4484C18.9946 38.9009 18.5438 38.3018 18.1635 37.6939C17.7459 37.0265 17.3866 36.3219 17.0995 35.5885C16.9549 35.2192 16.8291 34.8423 16.7241 34.4597C16.6245 34.0967 16.5349 33.7258 16.5189 33.3484C16.4896 32.6542 16.6876 31.9427 17.07 31.3672C17.2644 31.0745 17.4629 30.8591 17.757 30.6462C17.8099 30.6079 17.8494 30.582 17.9411 30.5302C18.019 30.486 18.0992 30.4461 18.1813 30.4103L18.2211 30.3936C18.2283 30.3907 18.2383 30.3871 18.2421 30.3857C18.2914 30.3686 18.3408 30.3515 18.3908 30.3368C18.4424 30.3215 18.4947 30.3078 18.5472 30.2958C18.5704 30.2904 18.5938 30.2859 18.6172 30.281L18.64 30.276C18.64 30.276 18.6413 30.276 18.6515 30.2746C18.7515 30.2598 18.8522 30.2503 18.9534 30.2465C19.007 30.2445 19.0607 30.2438 19.1143 30.2449H19.1174L19.1312 30.2458C19.167 30.2481 19.2028 30.2503 19.2384 30.2535C19.3401 30.2625 19.4412 30.2767 19.5415 30.2951C19.6591 30.317 19.6967 30.3262 19.8114 30.3603C20.2244 30.4828 20.5809 30.6638 20.9297 30.9166C21.636 31.4285 22.1676 32.1578 22.6114 32.8991C22.7254 33.0895 22.8349 33.2829 22.942 33.4771C23.0519 33.6767 23.4429 33.7119 23.5625 33.4949C23.9881 32.7232 24.4545 31.9494 25.091 31.3314C25.4103 31.0213 25.7388 30.7735 26.1327 30.5779C26.3332 30.4783 26.4813 30.42 26.7 30.3576C26.9231 30.2938 27.0457 30.2704 27.2674 30.2532C27.4909 30.2359 27.6083 30.2386 27.8365 30.2744C28.0224 30.3035 28.1819 30.3501 28.3748 30.4339C28.3823 30.4371 28.4535 30.4709 28.4512 30.4689C28.4868 30.4871 28.5222 30.5063 28.5569 30.5261C28.6384 30.5727 28.7175 30.6239 28.7937 30.6791C28.8257 30.7023 28.8572 30.7262 28.8883 30.7507C28.9009 30.7607 28.9133 30.7708 28.9257 30.7812C28.9314 30.7859 28.9458 30.7985 28.9458 30.7985C29.0163 30.8611 29.0841 30.9267 29.1486 30.9957C29.6249 31.5044 29.9151 32.1838 29.9899 32.8773C30.0712 33.6328 29.8561 34.3684 29.6138 35.0919C29.364 35.8388 29.042 36.5452 28.6522 37.2263C28.2761 37.8836 27.8442 38.5091 27.364 39.0947C26.9404 39.6113 26.4833 40.0901 25.959 40.5475C25.7244 40.7521 25.4811 40.947 25.2283 41.1286C25.1755 41.1665 25.1221 41.2036 25.0687 41.2406L25.0651 41.2431L25.0255 41.2694C24.9928 41.2911 24.9601 41.3122 24.9272 41.3332C24.8164 41.4039 24.7037 41.4718 24.589 41.536C24.4789 41.5977 24.3669 41.6561 24.2529 41.7099C24.2019 41.734 24.1506 41.7572 24.099 41.7796C24.0724 41.791 24.0454 41.8016 24.0188 41.8131L24.0127 41.8161L23.9924 41.8233C23.8926 41.8604 23.7914 41.8938 23.6884 41.9211C23.6459 41.9325 23.6028 41.9429 23.5596 41.9521C23.5424 41.9557 23.5253 41.9589 23.5082 41.9623C23.5008 41.9634 23.4933 41.9648 23.4859 41.9657C23.4178 41.9751 23.3496 41.9808 23.2808 41.9823H23.2349C23.2207 41.9814 23.2065 41.9805 23.1923 41.9794C23.147 41.9756 23.1019 41.9699 23.0571 41.9627C23.0125 41.9557 22.9686 41.947 22.9244 41.9377L22.9129 41.9355C22.8874 41.9285 22.8618 41.922 22.8363 41.9147C22.6247 41.8544 22.4242 41.7685 22.2241 41.6775L22.2214 41.6764L22.1935 41.6624C22.1653 41.6482 22.1374 41.6338 22.1094 41.6189C22.0522 41.5887 21.9954 41.5576 21.9391 41.5254C21.824 41.4598 21.7111 41.3909 21.5998 41.319C21.3539 41.1599 21.1171 40.9869 20.8884 40.8039C20.8301 40.7573 20.7726 40.71 20.7152 40.6624L20.6877 40.6388Z" fill="#00405B"/>
<path d="M20.6877 40.6388C20.6784 40.6309 20.6692 40.623 20.66 40.6149M20.6877 40.6388C20.694 40.6442 20.7098 40.6579 20.7152 40.6624M20.6877 40.6388L20.66 40.6149M20.6877 40.6388L20.7152 40.6624M20.66 40.6149C20.6257 40.5854 20.5917 40.5559 20.5577 40.5259C20.436 40.4186 20.3166 40.3089 20.1994 40.1967C19.9495 39.9574 19.7098 39.7073 19.4802 39.4484C18.9946 38.9009 18.5438 38.3018 18.1635 37.6939C17.7459 37.0265 17.3866 36.3219 17.0995 35.5885C16.9549 35.2192 16.8291 34.8423 16.7241 34.4597C16.6245 34.0967 16.5349 33.7258 16.5189 33.3484C16.4896 32.6542 16.6876 31.9427 17.07 31.3672C17.2644 31.0745 17.4629 30.8591 17.757 30.6462C17.8099 30.6079 17.8494 30.582 17.9411 30.5302C18.019 30.486 18.0992 30.4461 18.1813 30.4103M18.1813 30.4103C18.1945 30.4047 18.2078 30.399 18.2211 30.3936M18.1813 30.4103L18.2211 30.3936M18.2211 30.3936C18.2283 30.3907 18.2383 30.3871 18.2421 30.3857C18.2914 30.3686 18.3408 30.3515 18.3908 30.3368C18.4424 30.3215 18.4947 30.3078 18.5472 30.2958C18.5704 30.2904 18.5938 30.2859 18.6172 30.281M18.6172 30.281C18.6299 30.2783 18.6364 30.2769 18.64 30.276M18.6172 30.281L18.64 30.276M18.64 30.276C18.64 30.276 18.6413 30.276 18.6515 30.2746C18.7515 30.2598 18.8522 30.2503 18.9534 30.2465C19.007 30.2445 19.0607 30.2438 19.1143 30.2449H19.1174M19.1174 30.2449C19.1206 30.2451 19.1249 30.2454 19.1312 30.2458M19.1174 30.2449L19.1312 30.2458M19.1312 30.2458C19.167 30.2481 19.2028 30.2503 19.2384 30.2535C19.3401 30.2625 19.4412 30.2767 19.5415 30.2951C19.6591 30.317 19.6967 30.3262 19.8114 30.3603C20.2244 30.4828 20.5809 30.6638 20.9297 30.9166C21.636 31.4285 22.1676 32.1578 22.6114 32.8991C22.7254 33.0895 22.8349 33.2829 22.942 33.4771C23.0519 33.6767 23.4429 33.7119 23.5625 33.4949C23.9881 32.7232 24.4545 31.9494 25.091 31.3314C25.4103 31.0213 25.7388 30.7735 26.1327 30.5779C26.3332 30.4783 26.4813 30.42 26.7 30.3576C26.9231 30.2938 27.0457 30.2704 27.2674 30.2532C27.4909 30.2359 27.6083 30.2386 27.8365 30.2744C28.0224 30.3035 28.1819 30.3501 28.3748 30.4339C28.3823 30.4371 28.4535 30.4709 28.4512 30.4689C28.4868 30.4871 28.5222 30.5063 28.5569 30.5261C28.6384 30.5727 28.7175 30.6239 28.7937 30.6791C28.8257 30.7023 28.8572 30.7262 28.8883 30.7507C28.9009 30.7607 28.9133 30.7708 28.9257 30.7812C28.9314 30.7859 28.9458 30.7985 28.9458 30.7985C29.0163 30.8611 29.0841 30.9267 29.1486 30.9957C29.6249 31.5044 29.9151 32.1838 29.9899 32.8773C30.0712 33.6328 29.8561 34.3684 29.6138 35.0919C29.364 35.8388 29.042 36.5452 28.6522 37.2263C28.2761 37.8836 27.8442 38.5091 27.364 39.0947C26.9404 39.6113 26.4833 40.0901 25.959 40.5475C25.7244 40.7521 25.4811 40.947 25.2283 41.1286C25.1755 41.1665 25.1221 41.2036 25.0687 41.2406L25.0651 41.2431M25.0651 41.2431C25.0521 41.2519 25.0385 41.2606 25.0255 41.2694M25.0651 41.2431L25.0255 41.2694M25.0255 41.2694C24.9928 41.2911 24.9601 41.3122 24.9272 41.3332C24.8164 41.404 24.7037 41.4718 24.589 41.536C24.4789 41.5977 24.3669 41.6561 24.2529 41.7099C24.2019 41.734 24.1506 41.7572 24.099 41.7796C24.0724 41.791 24.0454 41.8016 24.0188 41.8131L24.0127 41.8161M24.0127 41.8161C24.0059 41.8185 23.9989 41.8208 23.9924 41.8233M24.0127 41.8161L23.9924 41.8233M23.9924 41.8233C23.8926 41.8604 23.7914 41.8938 23.6884 41.9211C23.6459 41.9325 23.6028 41.9429 23.5596 41.9521C23.5424 41.9557 23.5253 41.9589 23.5082 41.9623C23.5008 41.9634 23.4933 41.9648 23.4859 41.9657C23.4178 41.9751 23.3496 41.9808 23.2809 41.9823M23.2809 41.9823C23.2655 41.9823 23.2502 41.9823 23.2349 41.9823M23.2809 41.9823H23.2349M23.2349 41.9823C23.2207 41.9814 23.2065 41.9805 23.1923 41.9794C23.147 41.9756 23.1019 41.9699 23.0571 41.9627C23.0125 41.9558 22.9686 41.947 22.9244 41.9377M22.9244 41.9377C22.9199 41.9368 22.9165 41.9361 22.9129 41.9355M22.9244 41.9377L22.9129 41.9355M22.9129 41.9355C22.8874 41.9285 22.8618 41.922 22.8363 41.9147C22.6247 41.8544 22.4242 41.7685 22.2241 41.6775L22.2214 41.6764M22.2214 41.6764C22.2122 41.6716 22.2027 41.6671 22.1935 41.6624M22.2214 41.6764L22.1935 41.6624M22.1935 41.6624C22.1653 41.6482 22.1374 41.6338 22.1094 41.6189C22.0522 41.5887 21.9954 41.5576 21.9391 41.5254C21.824 41.4598 21.7111 41.3909 21.5998 41.319C21.3539 41.1599 21.1171 40.9869 20.8884 40.8039C20.8301 40.7573 20.7726 40.71 20.7152 40.6624M34.5634 29.7397C34.1869 29.5849 33.8056 29.452 33.4458 29.2589C33.0792 29.0624 32.7306 28.8328 32.4053 28.5735C31.778 28.0733 31.2397 27.4447 30.8411 26.7484C30.5167 26.182 30.2981 25.5644 29.9669 25.0002C29.6546 24.4682 29.2892 23.9655 28.862 23.5201C27.8469 22.4616 26.5329 21.7782 25.1003 21.4864C23.4145 21.1432 21.5664 21.2719 19.9743 21.9381C18.7328 22.458 17.6815 23.3531 16.9161 24.4547C16.5817 24.9358 16.3035 25.4538 16.068 25.99C15.7456 26.7243 15.3285 27.4077 14.7715 27.9893C14.2073 28.5782 13.5422 29.0584 12.8047 29.4065C12.4314 29.5827 12.038 29.7091 11.6622 29.8799C11.3053 30.0419 10.9598 30.2298 10.6311 30.4432C9.3441 31.2784 8.33468 32.4622 7.74142 33.8797C7.1405 35.315 7.0195 36.917 7.24211 38.4478C7.45414 39.9074 7.98881 41.324 8.8822 42.5044C9.73502 43.631 10.9276 44.4964 12.2849 44.9038C13.8 45.3585 15.4725 45.2902 16.9594 44.7596C18.2653 44.2936 19.4065 43.4857 20.6922 42.9764C21.4981 42.6572 22.3769 42.49 23.257 42.4882C23.2649 42.4882 23.2727 42.4884 23.2806 42.4886C23.2876 42.4886 23.2946 42.4882 23.3016 42.4882C23.9277 42.4909 24.5541 42.5774 25.155 42.7534C26.4817 43.1418 27.6166 43.9316 28.8714 44.4912C30.3267 45.1404 31.9396 45.365 33.5116 45.0755C34.9171 44.8168 36.2161 44.0863 37.182 43.0355C38.1711 41.9594 38.8257 40.6117 39.1443 39.1895C39.3081 38.4575 39.3863 37.7058 39.3879 36.956C39.3838 35.4092 38.962 33.8849 38.1063 32.5916C37.2514 31.2998 35.9901 30.3267 34.5634 29.7397ZM38.7133 37.001C38.7101 38.4397 38.4068 39.9018 37.7363 41.1818C37.1137 42.3703 36.1848 43.3991 34.9899 44.0237C33.7128 44.6913 32.2235 44.843 30.7988 44.5631C29.4638 44.3008 28.33 43.5807 27.1326 42.9787C26.5069 42.6641 25.8641 42.3872 25.1828 42.2171C25.0095 42.1739 24.8349 42.1369 24.6596 42.1056C25.18 41.8546 25.6636 41.5218 26.114 41.162C27.2732 40.2355 28.2586 39.0699 29.0348 37.8081C29.4746 37.0934 29.85 36.3357 30.1433 35.5493C30.2902 35.1557 30.4157 34.7539 30.5171 34.3461C30.616 33.9482 30.6924 33.5474 30.6839 33.1355C30.6512 31.533 29.5357 29.9527 27.8762 29.76C26.9055 29.6474 25.9342 29.9793 25.1485 30.538C24.3732 31.0894 23.7885 31.8782 23.3034 32.6858C23.2914 32.7056 23.2799 32.7254 23.2682 32.7452C22.8902 32.1076 22.4643 31.4936 21.9269 30.9826C21.2379 30.3271 20.3605 29.8461 19.4022 29.7553C18.5174 29.6715 17.6337 29.9364 16.981 30.5486C16.4159 31.0786 16.0387 31.8057 15.9037 32.5668C15.8359 32.9489 15.8195 33.3428 15.8754 33.7276C15.9371 34.1519 16.057 34.5746 16.1836 34.9835C16.4305 35.7812 16.7669 36.5504 17.1723 37.28C17.9106 38.6093 18.8682 39.8364 20.0133 40.8398C20.4849 41.253 20.9864 41.6374 21.5351 41.9434C21.6392 42.0015 21.7455 42.0576 21.8537 42.1103C21.39 42.1964 20.9349 42.3257 20.4941 42.4954C19.8576 42.7403 19.2551 43.0542 18.6551 43.3766C18.079 43.686 17.4783 44.0104 16.88 44.2355C16.1854 44.4969 15.4655 44.6523 14.7244 44.6875C13.3297 44.7535 11.9548 44.3887 10.812 43.5623C9.70776 42.7637 8.91014 41.604 8.42165 40.3423C7.89486 38.9818 7.68757 37.4411 7.86827 35.9909C8.04875 34.5417 8.63029 33.1625 9.60006 32.0643C10.0753 31.5261 10.644 31.0619 11.2609 30.6958C11.5885 30.5015 11.9301 30.3314 12.2818 30.1856C12.6601 30.0288 13.0431 29.8945 13.4077 29.7053C14.8801 28.9412 16.0349 27.688 16.6903 26.1669C17.1389 25.1257 17.7989 24.1303 18.6729 23.3797C19.7569 22.4487 21.125 21.9562 22.5477 21.8473C24.0857 21.7297 25.6861 21.9771 27.0182 22.7876C28.0569 23.4196 28.8773 24.3504 29.4557 25.4083C29.7758 25.9941 29.9991 26.6241 30.3583 27.1896C30.8017 27.8879 31.3553 28.4978 32.0074 29.0068C32.6662 29.5212 33.396 29.8578 34.167 30.1651C34.868 30.4445 35.5255 30.8269 36.1126 31.3012C37.2313 32.2052 38.0283 33.4602 38.4235 34.8384C38.6247 35.5399 38.7115 36.2724 38.7133 37.001Z" stroke="#00405B" stroke-width="2.08205"/>
<path d="M20.6878 40.6386L20.6601 40.6147C20.6258 40.5852 20.5918 40.5557 20.5578 40.5257C20.4361 40.4185 20.3167 40.3087 20.1995 40.1965C19.9496 39.9572 19.7099 39.7071 19.4803 39.4482C18.9947 38.9007 18.5439 38.3016 18.1635 37.6937C17.746 37.0263 17.3867 36.3217 17.0996 35.5883C16.9549 35.219 16.8292 34.8421 16.7242 34.4595C16.6246 34.0965 16.535 33.7256 16.519 33.3482C16.4897 32.654 16.6877 31.9425 17.0701 31.367C17.2645 31.0743 17.463 30.8589 17.7571 30.646C17.81 30.6077 17.8495 30.5818 17.9412 30.53C18.0191 30.4858 18.0993 30.4459 18.1813 30.4101L18.2212 30.3934C18.2284 30.3905 18.2383 30.3869 18.2422 30.3855C18.2915 30.3684 18.3409 30.3513 18.3909 30.3366C18.4425 30.3213 18.4948 30.3076 18.5473 30.2956C18.5705 30.2902 18.5939 30.2857 18.6173 30.2808L18.6401 30.2758C18.6401 30.2758 18.6414 30.2758 18.6516 30.2745C18.7516 30.2596 18.8523 30.2501 18.9535 30.2463C19.0071 30.2443 19.0608 30.2436 19.1144 30.2447H19.1175L19.1313 30.2456C19.1671 30.2479 19.2029 30.2501 19.2385 30.2533C19.3401 30.2623 19.4413 30.2765 19.5416 30.295C19.6592 30.3168 19.6968 30.3261 19.8115 30.3601C20.2245 30.4826 20.581 30.6636 20.9298 30.9164C21.6361 31.4283 22.1677 32.1577 22.6115 32.8989C22.7255 33.0893 22.835 33.2827 22.9421 33.4769C23.052 33.6765 23.4429 33.7117 23.5626 33.4947C23.9882 32.723 24.4546 31.9492 25.0911 31.3312C25.4104 31.0212 25.7389 30.7733 26.1328 30.5777C26.3333 30.4781 26.4813 30.4198 26.7001 30.3574C26.9232 30.2936 27.0458 30.2702 27.2675 30.2531C27.491 30.2357 27.6084 30.2384 27.8366 30.2742C28.0225 30.3033 28.182 30.3499 28.3749 30.4338C28.3823 30.4369 28.4535 30.4707 28.4513 30.4687C28.4869 30.4869 28.5223 30.5061 28.557 30.5259C28.6385 30.5726 28.7176 30.6237 28.7938 30.6789C28.8258 30.7021 28.8573 30.726 28.8884 30.7506C28.901 30.7605 28.9134 30.7706 28.9258 30.781C28.9314 30.7857 28.9459 30.7983 28.9459 30.7983C29.0164 30.861 29.0842 30.9265 29.1486 30.9955C29.625 31.5042 29.9152 32.1836 29.99 32.8771C30.0713 33.6326 29.8561 34.3682 29.6139 35.0917C29.3641 35.8387 29.0421 36.545 28.6523 37.2262C28.2762 37.8834 27.8443 38.5089 27.3641 39.0945C26.9405 39.6111 26.4834 40.0899 25.9591 40.5473C25.7245 40.7519 25.4812 40.9468 25.2284 41.1284C25.1756 41.1663 25.1222 41.2035 25.0688 41.2404L25.0652 41.2429L25.0256 41.2692C24.9929 41.2909 24.9602 41.3121 24.9273 41.333C24.8165 41.4038 24.7038 41.4716 24.5891 41.5358C24.479 41.5975 24.367 41.6559 24.253 41.7097C24.202 41.7338 24.1507 41.7571 24.0991 41.7794C24.0725 41.7909 24.0454 41.8014 24.0189 41.8129L24.0128 41.8159L23.9925 41.8231C23.8927 41.8603 23.7915 41.8936 23.6885 41.9209C23.646 41.9324 23.6029 41.9427 23.5597 41.952C23.5425 41.9556 23.5254 41.9587 23.5083 41.9621C23.5009 41.9632 23.4934 41.9646 23.486 41.9655C23.4179 41.9749 23.3497 41.9806 23.2809 41.9822H23.235C23.2208 41.9812 23.2066 41.9803 23.1924 41.9792C23.1471 41.9754 23.102 41.9698 23.0572 41.9625C23.0126 41.9556 22.9687 41.9468 22.9245 41.9375L22.913 41.9353C22.8875 41.9283 22.8619 41.9218 22.8364 41.9146C22.6248 41.8542 22.4243 41.7683 22.2242 41.6773L22.2215 41.6762L22.1936 41.6622C22.1654 41.648 22.1375 41.6336 22.1095 41.6187C22.0523 41.5885 21.9955 41.5574 21.9392 41.5252C21.824 41.4596 21.7112 41.3907 21.5999 41.3188C21.354 41.1597 21.1172 40.9867 20.8885 40.8037C20.8302 40.7571 20.7727 40.7098 20.7153 40.6622L20.6878 40.6386Z" fill="#74D1FF" stroke="#00405B" stroke-width="2.08205"/>
<path d="M25.2832 14.3718C25.3197 14.7284 25.3548 15.0871 25.4346 15.4373C25.5571 15.9749 25.7644 16.4888 26.0567 16.9566C26.5517 17.7488 27.3207 18.3822 28.2089 18.6809C29.0649 18.9689 30.004 18.9748 30.8483 18.6393C31.8068 18.2583 32.5445 17.5156 33.0127 16.6042C33.1837 16.2712 33.3256 15.921 33.4694 15.5756C33.6289 15.1924 33.7796 14.8053 33.9182 14.4137C34.1969 13.6253 34.431 12.8196 34.5793 11.9958C34.6532 11.5853 34.7041 11.1711 34.7361 10.7552C34.8425 9.28861 34.6327 7.74812 33.9775 6.42032C33.658 5.77254 33.2346 5.16779 32.6898 4.68921C32.183 4.24399 31.5857 3.9157 30.9393 3.72486C30.321 3.54212 29.6476 3.50878 29.0187 3.65974C28.3786 3.81341 27.8119 4.15634 27.3408 4.61103C26.3793 5.53911 25.8809 6.87794 25.5889 8.15414C25.4148 8.91503 25.3163 9.69193 25.2494 10.469C25.1748 11.3372 25.1556 12.2101 25.191 13.0807C25.2084 13.5119 25.2392 13.9425 25.2832 14.3718ZM25.8949 9.43349C25.9889 8.79314 26.124 8.15707 26.3203 7.53992C26.4893 7.00863 26.7689 6.36377 27.0819 5.89286C27.4117 5.39626 27.8056 4.97784 28.3067 4.67322C28.8026 4.37197 29.3956 4.21785 29.9675 4.23317C30.5851 4.24985 31.1615 4.41906 31.6997 4.71287C32.2394 5.00736 32.6992 5.42442 33.0589 5.91314C33.2632 6.19073 33.4108 6.43902 33.5516 6.72833C33.6269 6.88335 33.6958 7.0413 33.7585 7.20195C33.7889 7.27991 33.8179 7.35854 33.8457 7.43763C33.8594 7.47729 33.8729 7.51717 33.8862 7.55705C33.8862 7.5566 33.8912 7.57237 33.8946 7.58273C33.8991 7.59738 33.9135 7.64425 33.9133 7.64334C34.1169 8.31907 34.2163 8.97632 34.2409 9.64821C34.2535 9.99227 34.2458 10.3366 34.221 10.6799C34.1021 12.2337 33.6176 13.7465 33.0208 15.1815C32.8806 15.5186 32.7418 15.8595 32.5767 16.1853C32.4489 16.4377 32.3642 16.5765 32.2015 16.7941C32.0602 16.9832 31.903 17.1605 31.7306 17.3218C31.7101 17.341 31.6894 17.3597 31.6686 17.3786C31.6675 17.3797 31.6666 17.3804 31.6657 17.3813C31.6572 17.3885 31.6488 17.396 31.6403 17.4032C31.5952 17.4413 31.5495 17.4782 31.5026 17.5143C31.4138 17.5825 31.3219 17.6467 31.2273 17.7065C31.1376 17.763 31.0454 17.8157 30.9512 17.8642C30.9046 17.8881 30.8575 17.911 30.81 17.9329C30.7863 17.9437 30.7624 17.9543 30.7385 17.9647C30.7284 17.9692 30.718 17.9732 30.7079 17.9777C30.705 17.9791 30.7027 17.98 30.7005 17.9811C30.7 17.9811 30.6998 17.9813 30.6993 17.9816C30.5051 18.0582 30.3044 18.1183 30.0995 18.16C29.9966 18.181 29.8925 18.1974 29.7879 18.2091C29.7413 18.2143 29.6944 18.2188 29.6476 18.2222C29.6223 18.224 29.5971 18.2256 29.5718 18.2269C29.5574 18.2276 29.543 18.2283 29.5286 18.229C29.3238 18.2321 29.1196 18.2204 28.9169 18.1907C28.8132 18.1753 28.71 18.1557 28.6079 18.1316C28.5586 18.1199 28.5095 18.1073 28.4606 18.0938C28.436 18.087 28.4119 18.0796 28.3874 18.0726C28.3867 18.0726 28.3856 18.0721 28.384 18.0717C28.3734 18.0683 28.3536 18.062 28.3497 18.0606C28.1519 17.9937 27.9597 17.9124 27.7754 17.8146C27.6805 17.7644 27.5879 17.7101 27.4978 17.6519C27.4863 17.6445 27.4748 17.6368 27.4633 17.6292C27.4577 17.6251 27.4282 17.6048 27.4201 17.5992C27.3741 17.5668 27.329 17.5332 27.2847 17.4987C27.113 17.3655 26.9555 17.2171 26.807 17.0587C26.8011 17.0519 26.795 17.0451 26.7892 17.0384C26.7714 17.0179 26.7536 16.9969 26.7362 16.976C26.6986 16.9307 26.6619 16.8847 26.6263 16.8379C26.5587 16.7491 26.4949 16.6574 26.435 16.5632C26.4046 16.5154 26.3755 16.4665 26.3467 16.4179C26.3444 16.4143 26.3428 16.4116 26.3415 16.4093C26.3397 16.4057 26.3372 16.4012 26.334 16.3953C26.3185 16.3663 26.3027 16.3372 26.2876 16.3079C26.232 16.1998 26.1808 16.0891 26.1344 15.9765C26.1114 15.9208 26.0898 15.8649 26.0693 15.8084C26.0603 15.7838 26.0517 15.7595 26.0432 15.7347C26.0373 15.7176 26.0227 15.6721 26.0209 15.6671C25.9862 15.5522 25.9548 15.4364 25.9285 15.3194C25.8607 15.0182 25.8248 14.7018 25.7949 14.4033C25.629 12.7517 25.6547 11.0765 25.8958 9.43349H25.8949Z" fill="#00405B" stroke="#00405B" stroke-width="2.08205"/>
<path d="M46.023 19.1045C46.139 17.9094 45.8189 16.7003 44.9899 15.8116C44.6144 15.409 44.1428 15.0921 43.6154 14.9255C43.0689 14.7528 42.4775 14.7423 41.9195 14.8655C40.7438 15.1254 39.7287 15.869 38.8835 16.6988C37.9004 17.6644 37.059 18.7967 36.3507 19.9758C36.166 20.2831 35.9905 20.5959 35.8246 20.9135C35.6791 21.1922 35.5304 21.4717 35.4172 21.7655C35.2497 22.1995 35.1477 22.6667 35.1382 23.1326C35.1209 23.9692 35.3844 24.81 35.9205 25.4586C36.4491 26.0981 37.1787 26.5212 37.998 26.6555C38.9304 26.8087 39.8827 26.5304 40.6694 26.0309C41.8078 25.308 42.9151 24.4959 43.84 23.5089C44.0764 23.2566 44.3001 22.9921 44.5112 22.7184C45.3064 21.6758 45.8955 20.4199 46.0231 19.1043L46.023 19.1045ZM40.4087 25.5961C40.3165 25.6548 40.2228 25.7109 40.1266 25.7627C40.1106 25.7713 40.0944 25.7797 40.0783 25.788C40.0682 25.793 40.0368 25.8086 40.0298 25.8119C39.9715 25.8399 39.9126 25.8662 39.8527 25.8913C39.7616 25.9294 39.6692 25.9639 39.5755 25.9946C39.5357 26.0076 39.4955 26.0196 39.4552 26.0313C39.4463 26.0336 39.4139 26.0424 39.4065 26.0443C39.3735 26.0524 39.3402 26.0601 39.3067 26.0673C39.2086 26.0883 39.1095 26.1051 39.0098 26.1172C38.9691 26.122 38.9283 26.1264 38.8874 26.1297C38.863 26.1318 38.8386 26.1331 38.8142 26.135C38.8132 26.1351 38.8125 26.1351 38.8113 26.1351C38.7982 26.1355 38.7851 26.1361 38.7721 26.1362C38.5827 26.1402 38.393 26.1268 38.206 26.0963C38.183 26.0924 38.1602 26.0881 38.1374 26.0842C38.1338 26.0837 38.1311 26.0832 38.1284 26.0827C38.1255 26.0819 38.1226 26.0814 38.1186 26.0804C38.0736 26.0699 38.0287 26.0596 37.9841 26.0478C37.8882 26.0222 37.7936 25.9918 37.7007 25.957C37.6227 25.9277 37.5457 25.8952 37.4704 25.8597C37.4361 25.8437 37.402 25.8267 37.3685 25.8093C37.3608 25.8049 37.3351 25.7909 37.3305 25.7883C37.3043 25.7735 37.2783 25.7585 37.2523 25.7427C37.0975 25.6495 36.9507 25.5428 36.8139 25.4244C36.7456 25.3651 36.6796 25.3028 36.6166 25.238C36.6132 25.2347 36.5933 25.2135 36.5868 25.2068C36.5761 25.1951 36.5657 25.1835 36.5551 25.1716C36.525 25.1374 36.4957 25.1028 36.4672 25.0673C36.3471 24.919 36.2403 24.7598 36.1482 24.5928C36.1073 24.5184 36.069 24.4425 36.0339 24.3652C36.0242 24.344 36.0151 24.3226 36.0057 24.3013C36.0039 24.2971 36.0025 24.2937 36.0011 24.2908C35.9999 24.2875 35.9985 24.2834 35.9963 24.2781C35.977 24.227 35.9573 24.1757 35.9396 24.1239C35.8783 23.943 35.8326 23.7566 35.803 23.5678C35.7878 23.471 35.7771 23.3736 35.7703 23.276C35.7701 23.2731 35.77 23.2709 35.7696 23.2684C35.7696 23.2664 35.7695 23.2635 35.7693 23.2587C35.7686 23.2378 35.7676 23.2172 35.7671 23.1964C35.7655 23.1377 35.7656 23.0791 35.767 23.0203C35.7719 22.8125 35.7954 22.6051 35.8359 22.4012C35.8571 22.2941 35.8655 22.2586 35.9036 22.1296C35.938 22.0122 35.9779 21.8963 36.0228 21.7825C36.123 21.5278 36.2495 21.2837 36.3769 21.0418C37.0059 19.8485 37.7674 18.7174 38.6537 17.7005C39.025 17.2746 39.4212 16.87 39.8545 16.5069C39.8811 16.4846 39.9079 16.4623 39.935 16.4402C39.9356 16.4397 39.9781 16.4053 39.9874 16.3979C40.037 16.3588 40.0873 16.3203 40.1378 16.2826C40.248 16.2004 40.3604 16.1213 40.4752 16.0458C40.5883 15.9713 40.7037 15.9005 40.8215 15.8339C40.8733 15.8048 40.9255 15.7765 40.9781 15.7491C40.9867 15.745 41.0334 15.7215 41.036 15.72C41.0756 15.7009 41.1155 15.6823 41.1555 15.6641C41.2644 15.6149 41.3755 15.5698 41.4881 15.5296C41.549 15.508 41.61 15.4877 41.6718 15.4688C41.7684 15.4394 41.739 15.4473 41.8372 15.4249C41.9505 15.3988 42.0653 15.3783 42.1807 15.3637C42.3357 15.3444 42.4007 15.3407 42.5441 15.3431C43.0398 15.3515 43.5113 15.4972 43.9237 15.7708C44.7936 16.348 45.306 17.3362 45.4014 18.3699C45.5108 19.5541 45.1083 20.7624 44.5095 21.7647C44.3503 22.0312 44.1752 22.2873 43.987 22.5341C43.2232 23.5252 42.2473 24.34 41.2287 25.0489C40.9589 25.2366 40.6853 25.4189 40.4082 25.5956L40.4087 25.5961Z" fill="#00405B" stroke="#00405B" stroke-width="2.08205"/>
<path d="M13.0331 15.6004C13.285 16.202 13.5349 16.8115 13.9361 17.3315C14.2329 17.7161 14.5961 18.057 15.0107 18.3116C15.7851 18.7873 16.7229 18.9749 17.6199 18.8238C18.5504 18.6669 19.4136 18.1983 20.0418 17.491C20.3924 17.0965 20.6765 16.6485 20.8748 16.1587C21.1132 15.5697 21.2073 14.9596 21.2698 14.3309C21.4417 12.5978 21.4153 10.843 21.1506 9.12026C20.9467 7.79382 20.5866 6.42975 19.8106 5.31398C19.4521 4.79823 18.9916 4.33723 18.4405 4.02945C17.858 3.70409 17.1954 3.55651 16.5295 3.59211C15.1423 3.66624 13.8796 4.46341 13.0714 5.56904C12.194 6.76953 11.8046 8.27104 11.7456 9.74056C11.7312 10.0968 11.7384 10.4537 11.7641 10.8092C11.8914 12.4707 12.3923 14.0705 13.0328 15.6004H13.0331ZM13.0139 6.64222C13.0502 6.56809 13.0881 6.49464 13.1275 6.42209C13.1336 6.41105 13.1649 6.35517 13.1667 6.35156C13.1883 6.31439 13.2099 6.27744 13.2323 6.24093C13.3174 6.10124 13.4089 5.96515 13.5062 5.83356C13.5549 5.76799 13.6049 5.70355 13.6565 5.64024C13.6676 5.62672 13.6788 5.6132 13.6899 5.59991C13.6928 5.5963 13.709 5.57715 13.7178 5.56656C13.7237 5.5598 13.7302 5.55237 13.7307 5.55169C13.7494 5.53074 13.7681 5.51001 13.7872 5.4895C13.8933 5.37504 14.0058 5.26599 14.1234 5.16347C14.5591 4.78358 15.097 4.48887 15.6875 4.3298C16.2335 4.18289 16.8357 4.16644 17.3975 4.31898C17.9506 4.46904 18.467 4.7971 18.8564 5.19614C19.7347 6.09606 20.1727 7.33417 20.4379 8.54052C20.597 9.26446 20.6866 9.9821 20.7459 10.7295C20.8119 11.5616 20.8272 12.3977 20.7925 13.2318C20.7759 13.6365 20.7479 14.041 20.7062 14.444C20.6731 14.7638 20.6382 15.0842 20.5665 15.398C20.5526 15.4598 20.5373 15.5211 20.5208 15.5821C20.5127 15.6123 20.5041 15.6423 20.4956 15.6723C20.4917 15.6855 20.4782 15.729 20.4733 15.7462C20.4679 15.7622 20.4568 15.7955 20.4534 15.8052C20.4435 15.8338 20.4334 15.8624 20.4228 15.891C20.4005 15.9514 20.3771 16.0111 20.3523 16.0704C20.307 16.1785 20.2572 16.2851 20.2033 16.3892C20.19 16.4149 20.1763 16.4401 20.1628 16.4656C20.1596 16.4714 20.1574 16.4757 20.1553 16.4796C20.1547 16.4809 20.154 16.4818 20.1531 16.4832C20.1222 16.5354 20.0909 16.5875 20.0582 16.6386C19.9958 16.7357 19.9294 16.8304 19.8591 16.9219C19.828 16.9622 19.796 17.0021 19.7633 17.0413C19.7514 17.0557 19.7394 17.0692 19.7338 17.0755C19.7374 17.0717 19.7437 17.0645 19.7543 17.053C19.7333 17.076 19.713 17.0992 19.6921 17.1222C19.5452 17.2812 19.3843 17.4223 19.2164 17.5584C19.2106 17.5627 19.205 17.5669 19.1991 17.5712C19.1779 17.5865 19.1567 17.6019 19.1351 17.617C19.0894 17.649 19.043 17.68 18.9956 17.71C18.9082 17.7657 18.8185 17.8175 18.7271 17.8657C18.6815 17.8896 18.6349 17.9115 18.5889 17.9349C18.5862 17.9362 18.584 17.9374 18.582 17.9385C18.5788 17.9398 18.5754 17.9414 18.5709 17.9432C18.5441 17.9549 18.5173 17.9667 18.4903 17.9779C18.3927 18.0185 18.2933 18.055 18.1928 18.0872C18.0962 18.1181 17.9982 18.1451 17.8992 18.1681C17.8745 18.1737 17.8499 18.1794 17.8251 18.1845C17.8111 18.1875 17.7884 18.192 17.7803 18.1935C17.7341 18.2017 17.6877 18.2093 17.6413 18.2156C17.4376 18.2438 17.2314 18.2551 17.0259 18.2485C16.9754 18.2469 16.925 18.2442 16.8745 18.2406C16.8506 18.2388 16.827 18.2368 16.8033 18.2346C16.7889 18.233 16.7745 18.2312 16.7603 18.2294C16.6596 18.2168 16.5593 18.1999 16.4599 18.1787C16.2556 18.1352 16.0548 18.0735 15.8613 17.9946C15.8189 17.9772 15.7768 17.959 15.7351 17.9401C15.7301 17.9376 15.6995 17.9234 15.6891 17.9182C15.6623 17.9049 15.6355 17.8912 15.6089 17.8772C15.5116 17.8261 15.4165 17.7702 15.3243 17.7102C15.1371 17.5886 14.9611 17.4496 14.7987 17.2963C14.7782 17.277 14.7579 17.2574 14.7376 17.2375C14.7284 17.2285 14.7259 17.226 14.7257 17.226C14.7232 17.2233 14.7182 17.2179 14.7085 17.208C14.6659 17.1634 14.624 17.1179 14.5833 17.0712C14.5053 16.9822 14.4314 16.8896 14.3615 16.7943C14.2106 16.5886 14.0783 16.3696 13.9636 16.1418C13.6322 15.483 13.3499 14.7417 13.1 14.0319C12.8377 13.2877 12.6205 12.5262 12.4779 11.7495C12.4096 11.3775 12.3623 11.0021 12.3335 10.6252C12.2341 9.25477 12.4159 7.86344 13.0144 6.64132L13.0139 6.64222Z" fill="#00405B" stroke="#00405B" stroke-width="2.08205"/>
<path d="M19.7342 17.0757C19.728 17.0825 19.7292 17.0817 19.7342 17.0757V17.0757Z" fill="#00405B" stroke="#00405B" stroke-width="2.08205"/>
<path d="M11.9314 25.4482C12.5252 24.8423 12.9022 24.0178 12.9677 23.1713C13.0041 22.7007 12.9619 22.2304 12.8343 21.7751C12.6842 21.2391 12.4125 20.7592 12.1223 20.2881C11.3687 19.0657 10.4688 17.9289 9.44818 16.9185C8.62122 16.0999 7.65046 15.3337 6.53468 14.9585C6.01619 14.7841 5.45616 14.6973 4.91083 14.767C4.34315 14.8395 3.80963 15.0613 3.36191 15.4195C2.41124 16.1801 1.9012 17.3638 1.87642 18.5685C1.8493 19.877 2.3638 21.1677 3.10005 22.2304C3.28997 22.5046 3.49795 22.7655 3.71747 23.0163C4.61577 24.0324 5.72166 24.8263 6.88109 25.5179C7.3689 25.8088 7.86375 26.117 8.40775 26.2919C8.82716 26.4265 9.2746 26.494 9.71503 26.4667C10.5526 26.4147 11.3446 26.0472 11.9316 25.4481L11.9314 25.4482ZM10.8213 25.557C10.7941 25.569 10.8067 25.5636 10.8213 25.557V25.557ZM9.03136 25.7607C9.01089 25.7566 8.99034 25.7522 8.96969 25.7477C8.91824 25.7362 8.86685 25.7236 8.81592 25.7099C8.71107 25.6817 8.6075 25.6486 8.50586 25.6115C8.28092 25.5292 8.06698 25.4241 7.85746 25.3083C6.74813 24.6947 5.67004 24.0049 4.73984 23.1375C4.50738 22.9209 4.2856 22.6932 4.07528 22.4552C3.28199 21.5489 2.65707 20.4276 2.46246 19.2285C2.37384 18.6825 2.38311 18.1606 2.51635 17.6209C2.51944 17.6105 2.53224 17.562 2.53311 17.5589C2.54239 17.5271 2.55226 17.4955 2.56242 17.4641C2.57926 17.4118 2.5974 17.3597 2.61651 17.3082C2.63931 17.2464 2.66388 17.1854 2.68994 17.1249C2.70286 17.0947 2.71638 17.0648 2.72998 17.035C2.7342 17.0261 2.7723 16.9498 2.7708 16.9515C2.82833 16.8424 2.89036 16.7359 2.95845 16.6331C2.9881 16.5883 3.01874 16.544 3.05053 16.5007C3.10979 16.4194 3.09153 16.4418 3.15659 16.3654C3.48372 15.9808 3.86823 15.6965 4.33929 15.5367C4.79915 15.3806 5.3112 15.3649 5.77896 15.4525C6.84743 15.6527 7.79416 16.3083 8.59385 17.0149C9.57205 17.8791 10.4283 18.8923 11.168 19.9653C11.5162 20.4702 11.8717 20.9938 12.1311 21.551C12.1694 21.6336 12.1991 21.7042 12.2416 21.8216C12.2815 21.9323 12.3166 22.0445 12.3462 22.1584C12.3706 22.252 12.3898 22.3464 12.4083 22.441C12.4094 22.4464 12.4104 22.4509 12.411 22.4546C12.4113 22.4576 12.4119 22.4611 12.4124 22.465C12.416 22.4905 12.4197 22.5159 12.4229 22.5413C12.4305 22.6001 12.4364 22.659 12.441 22.7181C12.448 22.8094 12.4517 22.901 12.4514 22.9925C12.4514 23.0416 12.4497 23.0908 12.4479 23.1399C12.4478 23.1419 12.4479 23.1431 12.4477 23.1449C12.4475 23.1475 12.4472 23.1496 12.4469 23.1529C12.444 23.1851 12.4418 23.2173 12.4383 23.2495C12.4284 23.3449 12.4148 23.44 12.3968 23.5343C12.3893 23.5732 12.3814 23.612 12.3726 23.6505C12.3674 23.6736 12.3618 23.6964 12.3561 23.7195C12.3547 23.7253 12.3531 23.7312 12.3517 23.737C12.3509 23.7398 12.3501 23.7423 12.3492 23.7459C12.2945 23.9247 12.229 24.0969 12.1499 24.2664C12.1497 24.2667 12.1496 24.267 12.1495 24.2673C12.1493 24.2674 12.1492 24.2677 12.1491 24.268C12.1382 24.2882 12.1277 24.3087 12.1167 24.3287C12.0947 24.369 12.0719 24.4086 12.0484 24.4478C11.9974 24.5324 11.9425 24.6147 11.8841 24.6944C11.8711 24.7121 11.7943 24.8083 11.8538 24.7361C11.8251 24.7712 11.7963 24.8062 11.7664 24.8404C11.7019 24.9141 11.6339 24.9849 11.5629 25.0526C11.5302 25.0838 11.4968 25.1143 11.4627 25.1438C11.4487 25.1561 11.3944 25.2003 11.3993 25.1969C11.3288 25.2517 11.2568 25.3043 11.1821 25.3535C11.1064 25.4031 11.0283 25.4495 10.9484 25.4924C10.9118 25.512 10.8744 25.5307 10.837 25.5492C10.8339 25.5505 10.8292 25.5528 10.8246 25.555C10.799 25.5662 10.7737 25.5776 10.7479 25.5884C10.5739 25.6611 10.3933 25.7176 10.209 25.757C10.1669 25.7659 10.1248 25.7742 10.0824 25.7813C10.0777 25.7821 10.0409 25.7875 10.0361 25.7882C10.0198 25.7903 10.0035 25.7925 9.98739 25.7943C9.88402 25.8063 9.78012 25.8132 9.6759 25.8147C9.47632 25.8179 9.27686 25.8022 9.07995 25.7691C9.07865 25.7689 9.03899 25.7613 9.03079 25.76L9.03136 25.7607Z" fill="#00405B" stroke="#00405B" stroke-width="2.08205"/>
</g>
<circle cx="45.4233" cy="39.9999" r="11.6" fill="#74D1FF" stroke="#00405B" stroke-width="2.08205"/>
<path d="M51.2014 41.3118H46.7874V45.6633H44.0808V41.3118H39.646V38.6884H44.0599V34.3369H46.7666V38.6884H51.2014V41.3118Z" fill="#00405B"/>
<defs>
<clipPath id="clip0_1025_1645">
<rect width="47.5897" height="47.5897" fill="white" transform="translate(0.0639648 0.589844)"/>
</clipPath>
</defs>
</svg>
