<svg width="31" height="28" viewBox="0 0 31 28" fill="none" xmlns="http://www.w3.org/2000/svg">
<g clip-path="url(#clip0_1025_2033)">
<path d="M18.3446 15.6162C18.1499 15.5361 17.9527 15.4674 17.7666 15.3675C17.577 15.2658 17.3967 15.1471 17.2284 15.0129C16.9039 14.7542 16.6255 14.4291 16.4193 14.0689C16.2515 13.776 16.1385 13.4565 15.9671 13.1647C15.8056 12.8895 15.6166 12.6295 15.3956 12.3991C14.8706 11.8516 14.1909 11.4981 13.4499 11.3472C12.5779 11.1697 11.6221 11.2362 10.7986 11.5809C10.1564 11.8497 9.61262 12.3128 9.21672 12.8825C9.04377 13.1314 8.89984 13.3993 8.77805 13.6767C8.61128 14.0565 8.39556 14.41 8.10746 14.7108C7.81564 15.0154 7.4716 15.2637 7.09016 15.4438C6.89704 15.5349 6.69356 15.6003 6.49917 15.6887C6.31456 15.7725 6.1359 15.8697 5.96586 15.98C5.30017 16.4121 4.77806 17.0244 4.4712 17.7575C4.16038 18.4999 4.09779 19.3285 4.21294 20.1203C4.3226 20.8753 4.59916 21.608 5.06126 22.2186C5.50237 22.8013 6.11923 23.2489 6.82129 23.4597C7.60493 23.6948 8.47003 23.6595 9.2391 23.3851C9.91458 23.1441 10.5049 22.7261 11.1699 22.4627C11.5867 22.2976 12.0413 22.2111 12.4965 22.2102C12.5006 22.2102 12.5046 22.2103 12.5087 22.2104C12.5123 22.2104 12.5159 22.2102 12.5196 22.2102C12.8434 22.2116 13.1674 22.2563 13.4782 22.3474C14.1644 22.5483 14.7515 22.9568 15.4005 23.2463C16.1533 23.582 16.9875 23.6982 17.8006 23.5485C18.5276 23.4147 19.1995 23.0368 19.6991 22.4933C20.2107 21.9367 20.5493 21.2396 20.7141 20.504C20.7988 20.1253 20.8392 19.7366 20.84 19.3487C20.8379 18.5486 20.6198 17.7602 20.1771 17.0913C19.735 16.4231 19.0826 15.9198 18.3446 15.6162ZM11.1675 21.2536C11.1628 21.2495 11.158 21.2454 11.1532 21.2413C11.1355 21.226 11.1179 21.2107 11.1003 21.1952C11.0374 21.1397 10.9756 21.083 10.915 21.0249C10.7857 20.9012 10.6617 20.7718 10.543 20.6379C10.2918 20.3547 10.0586 20.0448 9.8619 19.7304C9.64595 19.3852 9.46006 19.0208 9.31159 18.6414C9.23677 18.4504 9.17174 18.2554 9.11743 18.0575C9.06591 17.8698 9.01953 17.6779 9.01126 17.4827C8.99611 17.1237 9.09855 16.7556 9.29632 16.458C9.3969 16.3066 9.49957 16.1952 9.65166 16.085C9.67905 16.0652 9.69944 16.0518 9.74688 16.025C9.7872 16.0022 9.82869 15.9815 9.87111 15.963C9.87799 15.9601 9.88486 15.9572 9.89174 15.9544C9.89547 15.9529 9.9006 15.951 9.90258 15.9503C9.9281 15.9414 9.95362 15.9326 9.9795 15.925C10.0062 15.9171 10.0332 15.91 10.0604 15.9038C10.0724 15.901 10.0845 15.8987 10.0966 15.8961C10.1031 15.8947 10.1065 15.894 10.1084 15.8935C10.1084 15.8935 10.1091 15.8935 10.1143 15.8928C10.1661 15.8852 10.2182 15.8803 10.2705 15.8783C10.2982 15.8772 10.326 15.8769 10.3537 15.8775H10.3553C10.357 15.8776 10.3592 15.8777 10.3625 15.8779C10.381 15.8791 10.3995 15.8803 10.4179 15.8819C10.4705 15.8866 10.5228 15.8939 10.5747 15.9035C10.6355 15.9148 10.655 15.9195 10.7143 15.9371C10.9279 16.0005 11.1123 16.0941 11.2927 16.2249C11.6581 16.4897 11.933 16.8669 12.1626 17.2503C12.2216 17.3488 12.2782 17.4488 12.3336 17.5493C12.3904 17.6525 12.5926 17.6707 12.6545 17.5585C12.8747 17.1593 13.1159 16.7591 13.4451 16.4394C13.6103 16.2791 13.7802 16.1509 13.9839 16.0497C14.0876 15.9982 14.1642 15.968 14.2774 15.9357C14.3928 15.9028 14.4562 15.8906 14.5708 15.8818C14.6864 15.8728 14.7472 15.8742 14.8652 15.8927C14.9614 15.9078 15.0439 15.9319 15.1436 15.9752C15.1475 15.9769 15.1843 15.9944 15.1832 15.9933C15.2016 16.0027 15.2199 16.0127 15.2378 16.0229C15.28 16.047 15.3209 16.0735 15.3603 16.102C15.3768 16.114 15.3932 16.1264 15.4092 16.1391C15.4158 16.1442 15.4222 16.1495 15.4286 16.1548C15.4315 16.1573 15.439 16.1638 15.439 16.1638C15.4754 16.1962 15.5105 16.2301 15.5439 16.2658C15.7902 16.5289 15.9403 16.8803 15.979 17.239C16.0211 17.6298 15.9098 18.0103 15.7845 18.3845C15.6553 18.7709 15.4887 19.1362 15.2871 19.4886C15.0926 19.8285 14.8692 20.152 14.6208 20.4549C14.4017 20.7222 14.1653 20.9698 13.8941 21.2064C13.7727 21.3122 13.6469 21.413 13.5161 21.507C13.4888 21.5266 13.4612 21.5458 13.4336 21.5649L13.4317 21.5662C13.425 21.5707 13.418 21.5753 13.4112 21.5798C13.3943 21.591 13.3774 21.602 13.3604 21.6128C13.3031 21.6494 13.2448 21.6845 13.1855 21.7177C13.1285 21.7496 13.0706 21.7798 13.0116 21.8077C12.9853 21.8201 12.9587 21.8321 12.932 21.8437C12.9183 21.8496 12.9043 21.8551 12.8905 21.861L12.8874 21.8625C12.8839 21.8638 12.8803 21.865 12.8769 21.8663C12.8253 21.8855 12.7729 21.9028 12.7197 21.9169C12.6976 21.9228 12.6754 21.9282 12.653 21.9329C12.6441 21.9348 12.6353 21.9364 12.6264 21.9382C12.6226 21.9388 12.6187 21.9395 12.6149 21.9399C12.5797 21.9448 12.5444 21.9477 12.5088 21.9486C12.5009 21.9486 12.493 21.9486 12.4851 21.9486C12.4777 21.9481 12.4704 21.9476 12.463 21.947C12.4396 21.9451 12.4163 21.9421 12.3931 21.9384C12.37 21.9348 12.3473 21.9303 12.3245 21.9255C12.3221 21.925 12.3204 21.9247 12.3185 21.9243C12.3054 21.9207 12.2921 21.9173 12.2789 21.9136C12.1695 21.8824 12.0657 21.838 11.9622 21.7909L11.9608 21.7903C11.9561 21.7878 11.9512 21.7855 11.9464 21.7831C11.9318 21.7757 11.9174 21.7683 11.9029 21.7606C11.8733 21.745 11.844 21.7289 11.8148 21.7122C11.7553 21.6783 11.6969 21.6426 11.6393 21.6054C11.5122 21.5232 11.3897 21.4337 11.2714 21.339C11.2412 21.3149 11.2115 21.2904 11.1818 21.2658C11.179 21.2635 11.1708 21.2564 11.1675 21.2536ZM20.4911 19.372C20.4895 20.1161 20.3326 20.8724 19.9858 21.5345C19.6638 22.1492 19.1833 22.6814 18.5652 23.0044C17.9047 23.3498 17.1343 23.4282 16.3974 23.2834C15.7069 23.1478 15.1205 22.7753 14.5011 22.4639C14.1775 22.3012 13.845 22.158 13.4926 22.07C13.403 22.0476 13.3126 22.0285 13.222 22.0123C13.4912 21.8825 13.7413 21.7103 13.9742 21.5242C14.5739 21.045 15.0835 20.4421 15.485 19.7895C15.7125 19.4198 15.9067 19.0279 16.0584 18.6211C16.1344 18.4175 16.1993 18.2097 16.2517 17.9988C16.3029 17.793 16.3424 17.5856 16.338 17.3726C16.3211 16.5437 15.7441 15.7263 14.8857 15.6267C14.3837 15.5684 13.8812 15.7401 13.4749 16.0291C13.0738 16.3143 12.7714 16.7223 12.5205 17.14C12.5143 17.1502 12.5084 17.1605 12.5023 17.1707C12.3067 16.8409 12.0865 16.5233 11.8085 16.259C11.4521 15.92 10.9983 15.6712 10.5027 15.6242C10.045 15.5809 9.58791 15.7179 9.25029 16.0346C8.958 16.3087 8.7629 16.6848 8.69309 17.0784C8.65801 17.2761 8.64951 17.4798 8.67841 17.6789C8.71034 17.8983 8.77234 18.117 8.83784 18.3285C8.96557 18.741 9.13957 19.1389 9.34923 19.5163C9.73114 20.2039 10.2265 20.8386 10.8187 21.3576C11.0627 21.5713 11.3221 21.7701 11.6059 21.9284C11.6597 21.9585 11.7147 21.9875 11.7707 22.0147C11.5308 22.0593 11.2954 22.1262 11.0674 22.2139C10.7382 22.3406 10.4266 22.5029 10.1162 22.6697C9.8182 22.8297 9.5075 22.9976 9.19807 23.114C8.83877 23.2492 8.46642 23.3296 8.08311 23.3478C7.3617 23.3819 6.65056 23.1932 6.05945 22.7658C5.48827 22.3527 5.07571 21.7529 4.82304 21.1002C4.55056 20.3965 4.44334 19.5996 4.53681 18.8496C4.63016 18.0999 4.93096 17.3866 5.43256 16.8186C5.67835 16.5401 5.97251 16.3001 6.2916 16.1107C6.46106 16.0102 6.63774 15.9222 6.81966 15.8468C7.01534 15.7657 7.21346 15.6962 7.40203 15.5983C8.16364 15.2031 8.76092 14.5549 9.09995 13.7682C9.33198 13.2296 9.67334 12.7147 10.1254 12.3265C10.6861 11.845 11.3937 11.5902 12.1296 11.5339C12.9251 11.4731 13.7529 11.601 14.4419 12.0202C14.9792 12.3471 15.4035 12.8286 15.7027 13.3757C15.8683 13.6788 15.9838 14.0046 16.1696 14.2971C16.3989 14.6583 16.6853 14.9738 17.0226 15.2371C17.3633 15.5031 17.7408 15.6772 18.1396 15.8362C18.5022 15.9807 18.8423 16.1785 19.146 16.4238C19.7246 16.8914 20.1368 17.5405 20.3412 18.2534C20.4453 18.6162 20.4902 18.9951 20.4911 19.372Z" fill="#00405B"/>
<path d="M11.1675 21.2536L11.1532 21.2413C11.1355 21.226 11.1179 21.2107 11.1003 21.1952C11.0374 21.1397 10.9756 21.083 10.915 21.0249C10.7857 20.9012 10.6617 20.7718 10.543 20.6379C10.2918 20.3547 10.0586 20.0448 9.8619 19.7304C9.64595 19.3852 9.46006 19.0208 9.31159 18.6414C9.23677 18.4504 9.17174 18.2554 9.11743 18.0575C9.06591 17.8698 9.01953 17.6779 9.01126 17.4827C8.99611 17.1237 9.09855 16.7556 9.29632 16.458C9.3969 16.3066 9.49957 16.1952 9.65166 16.085C9.67905 16.0652 9.69944 16.0518 9.74688 16.025C9.7872 16.0022 9.82869 15.9815 9.87111 15.963L9.89174 15.9544C9.89547 15.9529 9.9006 15.951 9.90258 15.9503C9.9281 15.9414 9.95362 15.9326 9.9795 15.925C10.0062 15.9171 10.0332 15.91 10.0604 15.9038C10.0724 15.901 10.0845 15.8987 10.0966 15.8961L10.1084 15.8935C10.1084 15.8935 10.1091 15.8935 10.1143 15.8928C10.1661 15.8852 10.2182 15.8803 10.2705 15.8783C10.2982 15.8772 10.326 15.8769 10.3537 15.8775H10.3553L10.3625 15.8779C10.381 15.8791 10.3995 15.8803 10.4179 15.8819C10.4705 15.8866 10.5228 15.8939 10.5747 15.9035C10.6355 15.9148 10.655 15.9195 10.7143 15.9371C10.9279 16.0005 11.1123 16.0941 11.2927 16.2249C11.6581 16.4897 11.933 16.8669 12.1626 17.2503C12.2216 17.3488 12.2782 17.4488 12.3336 17.5493C12.3904 17.6525 12.5926 17.6707 12.6545 17.5585C12.8747 17.1593 13.1159 16.7591 13.4451 16.4394C13.6103 16.2791 13.7802 16.1509 13.9839 16.0497C14.0876 15.9982 14.1642 15.968 14.2774 15.9357C14.3928 15.9028 14.4562 15.8906 14.5708 15.8818C14.6864 15.8728 14.7472 15.8742 14.8652 15.8927C14.9614 15.9078 15.0439 15.9319 15.1436 15.9752C15.1475 15.9769 15.1843 15.9944 15.1832 15.9933C15.2016 16.0027 15.2199 16.0127 15.2378 16.0229C15.28 16.047 15.3209 16.0735 15.3603 16.102C15.3768 16.114 15.3932 16.1264 15.4092 16.1391C15.4158 16.1442 15.4222 16.1495 15.4286 16.1548C15.4315 16.1573 15.439 16.1638 15.439 16.1638C15.4754 16.1962 15.5105 16.2301 15.5439 16.2658C15.7902 16.5289 15.9403 16.8803 15.979 17.239C16.0211 17.6298 15.9098 18.0103 15.7845 18.3845C15.6553 18.7709 15.4887 19.1362 15.2871 19.4886C15.0926 19.8285 14.8692 20.152 14.6208 20.4549C14.4017 20.7222 14.1653 20.9698 13.8941 21.2064C13.7727 21.3122 13.6469 21.413 13.5161 21.507C13.4888 21.5266 13.4612 21.5458 13.4336 21.5649L13.4317 21.5662L13.4112 21.5798C13.3943 21.591 13.3774 21.602 13.3604 21.6128C13.3031 21.6494 13.2448 21.6845 13.1855 21.7177C13.1285 21.7496 13.0706 21.7798 13.0116 21.8077C12.9853 21.8201 12.9587 21.8321 12.932 21.8437C12.9183 21.8496 12.9043 21.8551 12.8905 21.861L12.8874 21.8625L12.8769 21.8663C12.8253 21.8855 12.7729 21.9028 12.7197 21.9169C12.6976 21.9228 12.6754 21.9282 12.653 21.9329C12.6441 21.9348 12.6353 21.9364 12.6264 21.9382C12.6226 21.9388 12.6187 21.9395 12.6149 21.9399C12.5797 21.9448 12.5444 21.9477 12.5088 21.9486H12.4851C12.4777 21.9481 12.4704 21.9476 12.463 21.947C12.4396 21.9451 12.4163 21.9421 12.3931 21.9384C12.37 21.9348 12.3473 21.9303 12.3245 21.9255L12.3185 21.9243C12.3054 21.9207 12.2921 21.9173 12.2789 21.9136C12.1695 21.8824 12.0657 21.838 11.9622 21.7909L11.9608 21.7903L11.9464 21.7831C11.9318 21.7757 11.9174 21.7683 11.9029 21.7606C11.8733 21.745 11.844 21.7289 11.8148 21.7122C11.7553 21.6783 11.6969 21.6426 11.6393 21.6054C11.5122 21.5232 11.3897 21.4337 11.2714 21.339C11.2412 21.3149 11.2115 21.2904 11.1818 21.2658L11.1675 21.2536Z" fill="#00405B"/>
<path d="M11.1675 21.2536C11.1628 21.2495 11.158 21.2454 11.1532 21.2413M11.1675 21.2536C11.1708 21.2564 11.179 21.2635 11.1818 21.2658M11.1675 21.2536L11.1532 21.2413M11.1675 21.2536L11.1818 21.2658M11.1532 21.2413C11.1355 21.226 11.1179 21.2107 11.1003 21.1952C11.0374 21.1397 10.9756 21.083 10.915 21.0249C10.7857 20.9012 10.6617 20.7718 10.543 20.6379C10.2918 20.3547 10.0586 20.0448 9.8619 19.7304C9.64595 19.3852 9.46006 19.0208 9.31159 18.6414C9.23677 18.4504 9.17174 18.2554 9.11743 18.0575C9.06591 17.8698 9.01953 17.6779 9.01126 17.4827C8.99611 17.1237 9.09855 16.7556 9.29632 16.458C9.3969 16.3066 9.49957 16.1952 9.65166 16.085C9.67905 16.0652 9.69944 16.0518 9.74688 16.025C9.7872 16.0022 9.82869 15.9815 9.87111 15.963M9.87111 15.963C9.87799 15.9601 9.88486 15.9572 9.89174 15.9544M9.87111 15.963L9.89174 15.9544M9.89174 15.9544C9.89547 15.9529 9.9006 15.951 9.90258 15.9503C9.9281 15.9414 9.95362 15.9326 9.9795 15.925C10.0062 15.9171 10.0332 15.91 10.0604 15.9038C10.0724 15.901 10.0845 15.8987 10.0966 15.8961M10.0966 15.8961C10.1031 15.8947 10.1065 15.894 10.1084 15.8935M10.0966 15.8961L10.1084 15.8935M10.1084 15.8935C10.1084 15.8935 10.1091 15.8935 10.1143 15.8928C10.1661 15.8852 10.2182 15.8803 10.2705 15.8783C10.2982 15.8772 10.326 15.8769 10.3537 15.8775H10.3553M10.3553 15.8775C10.357 15.8776 10.3592 15.8777 10.3625 15.8779M10.3553 15.8775L10.3625 15.8779M10.3625 15.8779C10.381 15.8791 10.3995 15.8803 10.4179 15.8819C10.4705 15.8866 10.5228 15.8939 10.5747 15.9035C10.6355 15.9148 10.655 15.9195 10.7143 15.9371C10.9279 16.0005 11.1123 16.0941 11.2927 16.2249C11.6581 16.4897 11.933 16.8669 12.1626 17.2503C12.2216 17.3488 12.2782 17.4488 12.3336 17.5493C12.3904 17.6525 12.5926 17.6707 12.6545 17.5585C12.8747 17.1593 13.1159 16.7591 13.4451 16.4394C13.6103 16.2791 13.7802 16.1509 13.9839 16.0497C14.0876 15.9982 14.1642 15.968 14.2774 15.9357C14.3928 15.9028 14.4562 15.8906 14.5708 15.8818C14.6864 15.8728 14.7472 15.8742 14.8652 15.8927C14.9614 15.9078 15.0439 15.9319 15.1436 15.9752C15.1475 15.9769 15.1843 15.9944 15.1832 15.9933C15.2016 16.0027 15.2199 16.0127 15.2378 16.0229C15.28 16.047 15.3209 16.0735 15.3603 16.102C15.3768 16.114 15.3932 16.1264 15.4092 16.1391C15.4158 16.1442 15.4222 16.1495 15.4286 16.1548C15.4315 16.1573 15.439 16.1638 15.439 16.1638C15.4754 16.1962 15.5105 16.2301 15.5439 16.2658C15.7902 16.5289 15.9403 16.8803 15.979 17.239C16.0211 17.6298 15.9098 18.0103 15.7845 18.3845C15.6553 18.7709 15.4887 19.1362 15.2871 19.4886C15.0926 19.8285 14.8692 20.152 14.6208 20.4549C14.4017 20.7222 14.1653 20.9698 13.8941 21.2064C13.7727 21.3122 13.6469 21.413 13.5161 21.507C13.4888 21.5266 13.4612 21.5458 13.4336 21.5649L13.4317 21.5662M13.4317 21.5662C13.425 21.5707 13.418 21.5753 13.4112 21.5798M13.4317 21.5662L13.4112 21.5798M13.4112 21.5798C13.3943 21.591 13.3774 21.602 13.3604 21.6128C13.3031 21.6494 13.2448 21.6845 13.1855 21.7177C13.1285 21.7496 13.0706 21.7798 13.0116 21.8077C12.9853 21.8201 12.9587 21.8321 12.932 21.8437C12.9183 21.8496 12.9043 21.8551 12.8905 21.861L12.8874 21.8625M12.8874 21.8625C12.8839 21.8638 12.8803 21.865 12.8769 21.8663M12.8874 21.8625L12.8769 21.8663M12.8769 21.8663C12.8253 21.8855 12.7729 21.9028 12.7197 21.9169C12.6976 21.9228 12.6754 21.9282 12.653 21.9329C12.6441 21.9348 12.6353 21.9364 12.6264 21.9382C12.6226 21.9388 12.6187 21.9395 12.6149 21.9399C12.5797 21.9448 12.5444 21.9477 12.5088 21.9486M12.5088 21.9486C12.5009 21.9486 12.493 21.9486 12.4851 21.9486M12.5088 21.9486H12.4851M12.4851 21.9486C12.4777 21.9481 12.4704 21.9476 12.463 21.947C12.4396 21.9451 12.4163 21.9421 12.3931 21.9384C12.37 21.9348 12.3473 21.9303 12.3245 21.9255M12.3245 21.9255C12.3221 21.925 12.3204 21.9247 12.3185 21.9243M12.3245 21.9255L12.3185 21.9243M12.3185 21.9243C12.3054 21.9207 12.2921 21.9173 12.2789 21.9136C12.1695 21.8824 12.0657 21.838 11.9622 21.7909L11.9608 21.7903M11.9608 21.7903C11.9561 21.7878 11.9512 21.7855 11.9464 21.7831M11.9608 21.7903L11.9464 21.7831M11.9464 21.7831C11.9318 21.7757 11.9174 21.7683 11.9029 21.7606C11.8733 21.745 11.844 21.7289 11.8148 21.7122C11.7553 21.6783 11.6969 21.6426 11.6393 21.6054C11.5122 21.5232 11.3897 21.4337 11.2714 21.339C11.2412 21.3149 11.2115 21.2904 11.1818 21.2658M18.3446 15.6162C18.1499 15.5361 17.9527 15.4674 17.7666 15.3675C17.577 15.2658 17.3967 15.1471 17.2284 15.0129C16.9039 14.7542 16.6255 14.4291 16.4193 14.0689C16.2515 13.776 16.1385 13.4565 15.9671 13.1647C15.8056 12.8895 15.6166 12.6295 15.3956 12.3991C14.8706 11.8516 14.1909 11.4981 13.4499 11.3472C12.5779 11.1697 11.6221 11.2362 10.7986 11.5809C10.1564 11.8497 9.61262 12.3128 9.21672 12.8825C9.04377 13.1314 8.89984 13.3993 8.77805 13.6767C8.61128 14.0565 8.39556 14.41 8.10746 14.7108C7.81564 15.0154 7.4716 15.2637 7.09016 15.4438C6.89704 15.5349 6.69356 15.6003 6.49917 15.6887C6.31456 15.7725 6.1359 15.8697 5.96586 15.98C5.30017 16.4121 4.77806 17.0244 4.4712 17.7575C4.16038 18.4999 4.09779 19.3285 4.21294 20.1203C4.3226 20.8753 4.59916 21.608 5.06126 22.2186C5.50237 22.8013 6.11923 23.2489 6.82129 23.4597C7.60493 23.6948 8.47003 23.6595 9.2391 23.3851C9.91458 23.1441 10.5049 22.7261 11.1699 22.4627C11.5867 22.2976 12.0413 22.2111 12.4965 22.2102C12.5006 22.2102 12.5046 22.2103 12.5087 22.2104C12.5123 22.2104 12.5159 22.2102 12.5196 22.2102C12.8434 22.2116 13.1674 22.2563 13.4782 22.3474C14.1644 22.5483 14.7515 22.9568 15.4005 23.2463C16.1533 23.582 16.9875 23.6982 17.8006 23.5485C18.5276 23.4147 19.1995 23.0368 19.6991 22.4933C20.2107 21.9367 20.5493 21.2396 20.7141 20.504C20.7988 20.1254 20.8392 19.7366 20.84 19.3487C20.8379 18.5486 20.6198 17.7602 20.1771 17.0913C19.735 16.4231 19.0826 15.9198 18.3446 15.6162ZM20.4911 19.372C20.4895 20.1161 20.3326 20.8724 19.9858 21.5345C19.6638 22.1492 19.1833 22.6814 18.5652 23.0044C17.9047 23.3498 17.1343 23.4282 16.3974 23.2834C15.7069 23.1478 15.1205 22.7753 14.5011 22.4639C14.1775 22.3012 13.845 22.158 13.4926 22.07C13.403 22.0476 13.3126 22.0285 13.222 22.0123C13.4912 21.8825 13.7413 21.7103 13.9742 21.5242C14.5739 21.045 15.0835 20.4421 15.485 19.7895C15.7125 19.4198 15.9067 19.0279 16.0584 18.6211C16.1344 18.4175 16.1993 18.2097 16.2517 17.9988C16.3029 17.793 16.3424 17.5856 16.338 17.3726C16.3211 16.5437 15.7441 15.7263 14.8857 15.6267C14.3837 15.5684 13.8812 15.7401 13.4749 16.0291C13.0738 16.3143 12.7714 16.7223 12.5205 17.14C12.5143 17.1502 12.5084 17.1605 12.5023 17.1707C12.3067 16.8409 12.0865 16.5233 11.8085 16.259C11.4521 15.92 10.9983 15.6712 10.5027 15.6242C10.045 15.5809 9.58791 15.7179 9.25029 16.0346C8.958 16.3087 8.7629 16.6848 8.69309 17.0784C8.65801 17.2761 8.64951 17.4798 8.67841 17.6789C8.71034 17.8983 8.77234 18.117 8.83784 18.3285C8.96557 18.741 9.13957 19.1389 9.34923 19.5163C9.73114 20.2039 10.2265 20.8386 10.8187 21.3576C11.0627 21.5713 11.3221 21.7701 11.6059 21.9284C11.6597 21.9585 11.7147 21.9875 11.7707 22.0147C11.5308 22.0593 11.2954 22.1262 11.0674 22.2139C10.7382 22.3406 10.4266 22.5029 10.1162 22.6697C9.8182 22.8297 9.5075 22.9976 9.19807 23.114C8.83877 23.2492 8.46642 23.3296 8.08311 23.3478C7.3617 23.3819 6.65056 23.1932 6.05945 22.7658C5.48827 22.3527 5.07571 21.7529 4.82304 21.1002C4.55056 20.3965 4.44334 19.5996 4.53681 18.8496C4.63016 18.0999 4.93096 17.3866 5.43256 16.8186C5.67835 16.5401 5.97251 16.3001 6.2916 16.1107C6.46106 16.0102 6.63774 15.9222 6.81966 15.8468C7.01534 15.7657 7.21346 15.6962 7.40203 15.5983C8.16364 15.2031 8.76092 14.5549 9.09994 13.7682C9.33198 13.2296 9.67334 12.7147 10.1254 12.3265C10.6861 11.845 11.3937 11.5902 12.1296 11.5339C12.9251 11.4731 13.7529 11.601 14.4419 12.0202C14.9792 12.3471 15.4035 12.8286 15.7027 13.3757C15.8683 13.6788 15.9838 14.0046 16.1696 14.2971C16.3989 14.6583 16.6853 14.9738 17.0226 15.2371C17.3633 15.5031 17.7408 15.6772 18.1396 15.8362C18.5022 15.9807 18.8423 16.1785 19.146 16.4238C19.7246 16.8914 20.1368 17.5405 20.3412 18.2534C20.4453 18.6162 20.4902 18.9951 20.4911 19.372Z" stroke="#00405B" stroke-width="1.07692"/>
<path d="M11.1675 21.2537L11.1532 21.2413C11.1355 21.226 11.1179 21.2108 11.1003 21.1953C11.0373 21.1398 10.9756 21.083 10.915 21.025C10.7857 20.9012 10.6617 20.7719 10.543 20.638C10.2918 20.3548 10.0586 20.0449 9.86188 19.7304C9.64593 19.3852 9.46004 19.0208 9.31157 18.6415C9.23675 18.4504 9.17172 18.2555 9.11741 18.0576C9.06589 17.8698 9.01951 17.678 9.01124 17.4828C8.99609 17.1237 9.09853 16.7557 9.2963 16.458C9.39688 16.3066 9.49955 16.1952 9.65164 16.0851C9.67903 16.0653 9.69942 16.0519 9.74686 16.0251C9.78718 16.0022 9.82867 15.9816 9.87109 15.9631L9.89172 15.9544C9.89545 15.9529 9.90058 15.9511 9.90256 15.9504C9.92808 15.9415 9.9536 15.9326 9.97948 15.9251C10.0062 15.9171 10.0332 15.91 10.0604 15.9039C10.0724 15.9011 10.0845 15.8987 10.0966 15.8962L10.1084 15.8936C10.1084 15.8936 10.1091 15.8936 10.1143 15.8929C10.1661 15.8852 10.2182 15.8803 10.2705 15.8783C10.2982 15.8773 10.326 15.8769 10.3537 15.8775H10.3553L10.3624 15.878C10.381 15.8792 10.3995 15.8803 10.4179 15.8819C10.4705 15.8866 10.5228 15.894 10.5747 15.9035C10.6355 15.9148 10.655 15.9196 10.7143 15.9372C10.9279 16.0006 11.1123 16.0942 11.2927 16.2249C11.658 16.4897 11.933 16.867 12.1626 17.2504C12.2215 17.3489 12.2782 17.4489 12.3335 17.5493C12.3904 17.6526 12.5926 17.6708 12.6545 17.5585C12.8746 17.1594 13.1159 16.7592 13.4451 16.4395C13.6103 16.2791 13.7802 16.1509 13.9839 16.0498C14.0876 15.9983 14.1642 15.9681 14.2774 15.9358C14.3927 15.9028 14.4561 15.8907 14.5708 15.8818C14.6864 15.8729 14.7471 15.8743 14.8652 15.8928C14.9614 15.9078 15.0439 15.9319 15.1436 15.9753C15.1475 15.9769 15.1843 15.9944 15.1831 15.9934C15.2015 16.0028 15.2198 16.0127 15.2378 16.023C15.28 16.0471 15.3209 16.0735 15.3603 16.1021C15.3768 16.1141 15.3931 16.1265 15.4092 16.1392C15.4158 16.1443 15.4222 16.1495 15.4286 16.1549C15.4315 16.1573 15.4389 16.1639 15.4389 16.1639C15.4754 16.1963 15.5105 16.2302 15.5438 16.2658C15.7902 16.529 15.9403 16.8804 15.979 17.2391C16.0211 17.6299 15.9098 18.0104 15.7845 18.3846C15.6553 18.7709 15.4887 19.1363 15.2871 19.4886C15.0926 19.8286 14.8692 20.1521 14.6208 20.455C14.4017 20.7222 14.1652 20.9699 13.894 21.2065C13.7727 21.3123 13.6469 21.4131 13.5161 21.507C13.4888 21.5266 13.4612 21.5458 13.4336 21.5649L13.4317 21.5662L13.4112 21.5799C13.3943 21.5911 13.3774 21.602 13.3604 21.6128C13.3031 21.6494 13.2448 21.6845 13.1855 21.7177C13.1285 21.7497 13.0706 21.7799 13.0116 21.8077C12.9852 21.8202 12.9587 21.8322 12.932 21.8437C12.9182 21.8497 12.9042 21.8551 12.8905 21.8611L12.8873 21.8626L12.8769 21.8663C12.8252 21.8856 12.7729 21.9028 12.7196 21.9169C12.6976 21.9229 12.6754 21.9282 12.653 21.933C12.6441 21.9349 12.6353 21.9365 12.6264 21.9382C12.6226 21.9388 12.6187 21.9395 12.6149 21.94C12.5797 21.9449 12.5444 21.9478 12.5088 21.9486H12.485C12.4777 21.9481 12.4704 21.9477 12.463 21.9471C12.4396 21.9451 12.4163 21.9422 12.3931 21.9385C12.37 21.9349 12.3473 21.9303 12.3244 21.9255L12.3185 21.9244C12.3053 21.9208 12.292 21.9174 12.2789 21.9136C12.1694 21.8824 12.0657 21.838 11.9622 21.7909L11.9608 21.7903L11.9464 21.7831C11.9318 21.7758 11.9174 21.7683 11.9029 21.7606C11.8733 21.745 11.8439 21.7289 11.8148 21.7123C11.7552 21.6783 11.6969 21.6427 11.6393 21.6055C11.5121 21.5232 11.3897 21.4337 11.2714 21.3391C11.2412 21.315 11.2115 21.2905 11.1817 21.2659L11.1675 21.2537Z" fill="white" stroke="#00405B" stroke-width="1.07692"/>
<path d="M13.5443 7.66713C13.5632 7.85162 13.5814 8.03716 13.6227 8.21827C13.6861 8.49634 13.7933 8.76217 13.9444 9.00412C14.2005 9.41388 14.5982 9.74149 15.0577 9.89602C15.5004 10.045 15.9862 10.048 16.4228 9.87446C16.9186 9.67739 17.3002 9.29326 17.5424 8.82184C17.6308 8.64959 17.7042 8.46849 17.7786 8.28983C17.8611 8.09159 17.9391 7.89136 18.0107 7.68881C18.1549 7.28103 18.276 6.86427 18.3527 6.43819C18.3909 6.22584 18.4173 6.01164 18.4338 5.7965C18.4888 5.03792 18.3803 4.24111 18.0414 3.55432C17.8761 3.21926 17.6572 2.90646 17.3754 2.65892C17.1133 2.42863 16.8043 2.25883 16.4699 2.16012C16.1501 2.0656 15.8018 2.04835 15.4765 2.12643C15.1454 2.20592 14.8523 2.3833 14.6086 2.61848C14.1113 3.09852 13.8535 3.79102 13.7025 4.45112C13.6124 4.84469 13.5615 5.24653 13.5269 5.64849C13.4883 6.09753 13.4784 6.54902 13.4967 6.99934C13.5057 7.22241 13.5216 7.44512 13.5443 7.66713ZM13.8608 5.11286C13.9094 4.78164 13.9793 4.45264 14.0808 4.13343C14.1682 3.85862 14.3128 3.52507 14.4747 3.2815C14.6453 3.02463 14.849 2.80821 15.1082 2.65065C15.3648 2.49483 15.6715 2.41511 15.9673 2.42304C16.2867 2.43166 16.5848 2.51919 16.8633 2.67116C17.1424 2.82348 17.3803 3.0392 17.5663 3.29198C17.672 3.43557 17.7483 3.564 17.8211 3.71364C17.8601 3.79382 17.8957 3.87552 17.9281 3.95861C17.9439 3.99894 17.9589 4.03961 17.9732 4.08052C17.9803 4.10103 17.9873 4.12166 17.9942 4.14228C17.9942 4.14205 17.9968 4.15021 17.9985 4.15557C18.0008 4.16314 18.0083 4.18739 18.0082 4.18692C18.1135 4.53643 18.1649 4.87639 18.1776 5.22392C18.1842 5.40188 18.1802 5.57996 18.1674 5.75757C18.1058 6.56126 17.8553 7.34373 17.5466 8.08599C17.4741 8.26034 17.4023 8.43667 17.3169 8.60519C17.2508 8.73572 17.207 8.80751 17.1228 8.92009C17.0497 9.01787 16.9684 9.10959 16.8792 9.19304C16.8686 9.20294 16.8579 9.21261 16.8472 9.2224C16.8466 9.22299 16.8461 9.22334 16.8457 9.2238C16.8412 9.22753 16.8369 9.23138 16.8325 9.23511C16.8092 9.2548 16.7855 9.27392 16.7613 9.29256C16.7154 9.32788 16.6678 9.36109 16.6189 9.39197C16.5725 9.42123 16.5248 9.4485 16.4761 9.47356C16.452 9.48591 16.4276 9.4978 16.403 9.5091C16.3908 9.51469 16.3784 9.52017 16.3661 9.52553C16.3608 9.52786 16.3555 9.52996 16.3502 9.53229C16.3487 9.53299 16.3476 9.53346 16.3464 9.53404C16.3462 9.53404 16.346 9.53416 16.3458 9.53427C16.2454 9.5739 16.1415 9.60502 16.0356 9.62658C15.9823 9.63741 15.9285 9.64592 15.8744 9.65198C15.8503 9.65466 15.826 9.65699 15.8018 9.65874C15.7887 9.65967 15.7757 9.66049 15.7626 9.66119C15.7552 9.66154 15.7477 9.66189 15.7403 9.66224C15.6343 9.66387 15.5287 9.65781 15.4238 9.64243C15.3702 9.6345 15.3169 9.62436 15.2641 9.61189C15.2385 9.60583 15.2131 9.59931 15.1878 9.59231C15.1751 9.58882 15.1627 9.58497 15.15 9.58136C15.1496 9.58136 15.149 9.58112 15.1482 9.58089C15.1427 9.57914 15.1325 9.57588 15.1305 9.57518C15.0282 9.54057 14.9288 9.4985 14.8334 9.44792C14.7844 9.42193 14.7365 9.39384 14.6898 9.36377C14.6839 9.35992 14.678 9.35596 14.672 9.352C14.6691 9.3499 14.6538 9.33941 14.6496 9.3365C14.6259 9.31972 14.6026 9.30235 14.5796 9.28452C14.4908 9.21564 14.4093 9.13884 14.3325 9.05691C14.3295 9.05342 14.3264 9.04992 14.3233 9.04642C14.3141 9.03582 14.3049 9.02498 14.2959 9.01414C14.2765 8.99072 14.2575 8.96694 14.2391 8.9427C14.2041 8.89678 14.1711 8.84935 14.1401 8.80063C14.1244 8.77593 14.1093 8.75064 14.0944 8.72546C14.0933 8.7236 14.0924 8.7222 14.0918 8.72104C14.0908 8.71917 14.0895 8.71684 14.0879 8.71381C14.0799 8.69878 14.0717 8.68374 14.0639 8.66859C14.0351 8.61265 14.0087 8.55543 13.9846 8.49716C13.9728 8.46837 13.9616 8.43947 13.951 8.41021C13.9463 8.39751 13.9419 8.38492 13.9374 8.3721C13.9344 8.36325 13.9268 8.33971 13.9259 8.33714C13.908 8.2777 13.8918 8.2178 13.8781 8.15732C13.843 8.0015 13.8245 7.83787 13.809 7.68345C13.7232 6.82919 13.7365 5.96269 13.8612 5.11286H13.8608Z" fill="#00405B" stroke="#00405B" stroke-width="1.07692"/>
<path d="M24.272 10.115C24.332 9.49681 24.1664 8.87142 23.7376 8.41177C23.5434 8.20354 23.2995 8.03958 23.0267 7.95343C22.744 7.86412 22.4381 7.8587 22.1494 7.92242C21.5414 8.05683 21.0163 8.44145 20.5791 8.87067C20.0706 9.3701 19.6354 9.9558 19.269 10.5657C19.1735 10.7246 19.0828 10.8864 18.997 11.0507C18.9217 11.1948 18.8447 11.3394 18.7862 11.4914C18.6996 11.7159 18.6468 11.9575 18.6419 12.1985C18.6329 12.6312 18.7692 13.0661 19.0465 13.4016C19.3199 13.7324 19.6973 13.9512 20.1211 14.0207C20.6034 14.0999 21.0959 13.956 21.5029 13.6976C22.0917 13.3237 22.6644 12.9036 23.1428 12.3931C23.2651 12.2626 23.3808 12.1258 23.49 11.9842C23.9013 11.445 24.206 10.7954 24.272 10.1149L24.272 10.115ZM21.368 13.4727C21.3203 13.5031 21.2719 13.5321 21.2221 13.5589C21.2138 13.5633 21.2055 13.5677 21.1971 13.572C21.1919 13.5746 21.1756 13.5826 21.1721 13.5843C21.1419 13.5988 21.1114 13.6124 21.0804 13.6254C21.0333 13.6451 20.9855 13.6629 20.937 13.6788C20.9164 13.6856 20.8957 13.6918 20.8748 13.6978C20.8702 13.699 20.8535 13.7036 20.8497 13.7046C20.8326 13.7087 20.8153 13.7127 20.798 13.7165C20.7473 13.7273 20.696 13.736 20.6444 13.7422C20.6234 13.7447 20.6023 13.747 20.5811 13.7487C20.5685 13.7498 20.5559 13.7505 20.5433 13.7514C20.5428 13.7515 20.5424 13.7515 20.5418 13.7515C20.535 13.7517 20.5282 13.752 20.5215 13.7521C20.4235 13.7541 20.3254 13.7472 20.2287 13.7314C20.2168 13.7294 20.205 13.7272 20.1932 13.7252C20.1913 13.7249 20.1899 13.7246 20.1885 13.7244C20.1871 13.724 20.1856 13.7237 20.1835 13.7232C20.1602 13.7178 20.137 13.7124 20.1139 13.7063C20.0643 13.6931 20.0154 13.6774 19.9673 13.6594C19.927 13.6442 19.8872 13.6274 19.8482 13.6091C19.8305 13.6008 19.8128 13.592 19.7955 13.583C19.7915 13.5807 19.7782 13.5735 19.7759 13.5721C19.7623 13.5645 19.7488 13.5567 19.7354 13.5486C19.6553 13.5003 19.5794 13.4451 19.5087 13.3839C19.4733 13.3533 19.4392 13.321 19.4066 13.2875C19.4048 13.2858 19.3945 13.2748 19.3912 13.2714C19.3857 13.2653 19.3803 13.2593 19.3748 13.2531C19.3592 13.2355 19.344 13.2176 19.3293 13.1992C19.2672 13.1225 19.2119 13.0402 19.1643 12.9537C19.1431 12.9153 19.1233 12.876 19.1052 12.836C19.1002 12.8251 19.0955 12.814 19.0906 12.803C19.0897 12.8008 19.0889 12.7991 19.0882 12.7976C19.0876 12.7959 19.0869 12.7937 19.0858 12.791C19.0758 12.7645 19.0656 12.738 19.0564 12.7112C19.0247 12.6176 19.0011 12.5212 18.9858 12.4236C18.9779 12.3735 18.9723 12.3232 18.9688 12.2727C18.9687 12.2712 18.9687 12.27 18.9685 12.2687C18.9685 12.2677 18.9684 12.2662 18.9683 12.2637C18.968 12.2529 18.9674 12.2422 18.9672 12.2315C18.9664 12.2011 18.9664 12.1708 18.9671 12.1404C18.9697 12.0329 18.9818 11.9257 19.0028 11.8202C19.0137 11.7648 19.0181 11.7464 19.0378 11.6797C19.0556 11.619 19.0762 11.559 19.0995 11.5001C19.1513 11.3684 19.2167 11.2421 19.2826 11.117C19.6079 10.4998 20.0018 9.91474 20.4603 9.3888C20.6523 9.16849 20.8572 8.95922 21.0814 8.7714C21.0951 8.75985 21.109 8.74835 21.123 8.73688C21.1233 8.73663 21.1453 8.71884 21.1501 8.715C21.1757 8.69481 21.2018 8.6749 21.2279 8.65539C21.2849 8.61286 21.343 8.57197 21.4024 8.53288C21.4609 8.49437 21.5206 8.45775 21.5815 8.4233C21.6083 8.40823 21.6353 8.39361 21.6625 8.37943C21.667 8.37731 21.6911 8.36513 21.6925 8.36439C21.713 8.35449 21.7336 8.3449 21.7543 8.33545C21.8106 8.31001 21.8681 8.28669 21.9263 8.2659C21.9578 8.25472 21.9894 8.24421 22.0213 8.23445C22.0713 8.21923 22.0561 8.22334 22.1069 8.21175C22.1655 8.19827 22.2249 8.18764 22.2846 8.18011C22.3648 8.17009 22.3983 8.16821 22.4725 8.16943C22.729 8.17378 22.9728 8.24912 23.1861 8.39066C23.6361 8.68922 23.9011 9.20035 23.9504 9.73503C24.007 10.3475 23.7989 10.9725 23.4891 11.491C23.4068 11.6288 23.3162 11.7613 23.2189 11.8889C22.8238 12.4016 22.319 12.823 21.7922 13.1897C21.6526 13.2868 21.5111 13.3811 21.3677 13.4725L21.368 13.4727Z" fill="#00405B" stroke="#00405B" stroke-width="1.07692"/>
<path d="M7.20829 8.30273C7.33859 8.6139 7.46784 8.92915 7.6754 9.19813C7.82889 9.39707 8.01676 9.5734 8.2312 9.70509C8.63175 9.95111 9.11681 10.0482 9.58077 9.96999C10.0621 9.88888 10.5086 9.64647 10.8335 9.28064C11.0148 9.07657 11.1618 8.84489 11.2643 8.59152C11.3877 8.28688 11.4364 7.97128 11.4687 7.64612C11.5576 6.74967 11.5439 5.84203 11.407 4.95094C11.3015 4.26485 11.1153 3.5593 10.7139 2.98218C10.5285 2.71541 10.2903 2.47696 10.0052 2.31776C9.70395 2.14948 9.3612 2.07314 9.01681 2.09155C8.29926 2.1299 7.64615 2.54223 7.22811 3.1141C6.77429 3.73505 6.5729 4.51169 6.54237 5.27179C6.53491 5.45604 6.53864 5.64065 6.55192 5.82455C6.61777 6.68394 6.87685 7.5114 7.20818 8.30273H7.20829ZM7.19839 3.6692C7.21715 3.63086 7.23673 3.59286 7.25713 3.55534C7.26027 3.54963 7.27647 3.52072 7.2774 3.51886C7.28859 3.49963 7.29978 3.48052 7.31132 3.46164C7.35537 3.38938 7.40269 3.31899 7.45304 3.25093C7.47821 3.21701 7.50408 3.18368 7.53077 3.15093C7.53648 3.14394 7.54231 3.13695 7.54802 3.13007C7.54953 3.12821 7.55792 3.1183 7.56247 3.11282C7.5655 3.10933 7.56888 3.10548 7.56911 3.10513C7.57879 3.09429 7.58846 3.08357 7.59837 3.07296C7.65326 3.01376 7.71141 2.95735 7.77225 2.90433C7.99764 2.70783 8.27583 2.5554 8.58129 2.47312C8.86368 2.39713 9.1752 2.38862 9.46574 2.46752C9.75185 2.54514 10.019 2.71483 10.2204 2.92123C10.6746 3.3867 10.9012 4.0271 11.0384 4.65108C11.1207 5.02553 11.167 5.39672 11.1977 5.78329C11.2318 6.21369 11.2398 6.64618 11.2218 7.07762C11.2132 7.28694 11.1987 7.49613 11.1772 7.70463C11.16 7.87 11.142 8.03573 11.1049 8.19807C11.0977 8.23 11.0898 8.2617 11.0813 8.29329C11.0771 8.3089 11.0726 8.3244 11.0682 8.3399C11.0662 8.34678 11.0592 8.36927 11.0567 8.37813C11.0539 8.3864 11.0482 8.40365 11.0464 8.40866C11.0413 8.42347 11.036 8.43827 11.0306 8.45307C11.019 8.4843 11.0069 8.51518 10.9941 8.54584C10.9707 8.60178 10.9449 8.6569 10.9171 8.71074C10.9102 8.72403 10.9031 8.73708 10.8961 8.75025C10.8944 8.75328 10.8933 8.7555 10.8922 8.75748C10.8919 8.75818 10.8915 8.75864 10.8911 8.75934C10.8751 8.78638 10.8589 8.8133 10.842 8.83976C10.8097 8.88999 10.7753 8.93894 10.739 8.98625C10.7229 9.00711 10.7063 9.02774 10.6894 9.04802C10.6833 9.05548 10.6771 9.06247 10.6742 9.06574C10.676 9.06375 10.6793 9.06002 10.6848 9.05408C10.6739 9.06597 10.6635 9.07797 10.6526 9.08986C10.5766 9.17214 10.4934 9.2451 10.4066 9.31549C10.4036 9.3177 10.4006 9.31992 10.3976 9.32213C10.3867 9.33006 10.3757 9.33798 10.3645 9.34579C10.3409 9.36234 10.3169 9.37842 10.2924 9.39392C10.2472 9.42271 10.2008 9.44951 10.1535 9.47445C10.1299 9.48681 10.1058 9.49811 10.082 9.51023C10.0806 9.51093 10.0795 9.51151 10.0784 9.5121C10.0768 9.51279 10.075 9.51361 10.0727 9.51454C10.0588 9.5206 10.045 9.52666 10.031 9.53249C9.98051 9.55347 9.92911 9.57235 9.87714 9.58901C9.82714 9.60498 9.77644 9.61897 9.72528 9.63085C9.71246 9.63377 9.69976 9.63668 9.68694 9.63936C9.67971 9.64088 9.66794 9.64321 9.66374 9.64402C9.63985 9.64822 9.61585 9.65218 9.59184 9.65544C9.48648 9.67001 9.37984 9.67584 9.27356 9.67246C9.24745 9.67164 9.22135 9.67024 9.19524 9.66838C9.18289 9.66745 9.17065 9.6664 9.15841 9.66523C9.15095 9.66442 9.1435 9.66349 9.13615 9.66255C9.08406 9.65603 9.0322 9.64729 8.9808 9.63633C8.8751 9.61384 8.77126 9.5819 8.67115 9.54111C8.64924 9.53214 8.62744 9.5227 8.60588 9.51291C8.60332 9.51163 8.58747 9.50429 8.58211 9.50161C8.56824 9.49473 8.55437 9.48762 8.54062 9.4804C8.49027 9.45394 8.44109 9.42504 8.39342 9.39404C8.29658 9.3311 8.20556 9.2592 8.12153 9.17995C8.11092 9.16992 8.10043 9.15979 8.08994 9.14953C8.08517 9.14487 8.08388 9.14359 8.08377 9.14359C8.08249 9.14219 8.07992 9.13939 8.07491 9.13426C8.05288 9.11119 8.03121 9.08765 8.01011 9.06352C7.96979 9.01749 7.93156 8.96959 7.89543 8.92029C7.81735 8.81388 7.74894 8.70061 7.68962 8.58278C7.51818 8.24201 7.37215 7.85858 7.24291 7.49147C7.10725 7.10653 6.9949 6.71261 6.92113 6.31089C6.88582 6.11847 6.86135 5.92431 6.84643 5.72933C6.79503 5.02052 6.88908 4.30086 7.19862 3.66873L7.19839 3.6692Z" fill="#00405B" stroke="#00405B" stroke-width="1.07692"/>
<path d="M10.6749 9.06592C10.6712 9.07007 10.6719 9.06955 10.6749 9.06592V9.06592Z" fill="#00405B" stroke="#00405B" stroke-width="1.07692"/>
<path d="M6.63832 13.3962C6.94547 13.0828 7.14048 12.6563 7.17434 12.2185C7.19321 11.975 7.17137 11.7318 7.10536 11.4963C7.02772 11.2191 6.88719 10.9709 6.73707 10.7272C6.34728 10.0949 5.88182 9.50689 5.35392 8.98429C4.92618 8.56086 4.42407 8.16455 3.84694 7.97048C3.57875 7.88028 3.28908 7.83538 3.00702 7.87143C2.71339 7.90894 2.43743 8.02366 2.20585 8.20893C1.71412 8.60231 1.45031 9.21457 1.43749 9.83772C1.42347 10.5145 1.68959 11.1821 2.07041 11.7318C2.16864 11.8736 2.27621 12.0086 2.38976 12.1383C2.8544 12.6639 3.42641 13.0745 4.02612 13.4322C4.27843 13.5827 4.53439 13.7421 4.81577 13.8326C5.0327 13.9022 5.26414 13.9371 5.49195 13.923C5.92515 13.8961 6.33481 13.706 6.63843 13.3961L6.63832 13.3962ZM6.06413 13.4524C6.05007 13.4587 6.05659 13.4558 6.06413 13.4524V13.4524ZM5.13832 13.5578C5.12774 13.5557 5.11711 13.5534 5.10643 13.5511C5.07982 13.5451 5.05323 13.5386 5.02689 13.5315C4.97266 13.517 4.91909 13.4998 4.86652 13.4806C4.75017 13.438 4.63951 13.3837 4.53113 13.3238C3.95734 13.0064 3.39971 12.6496 2.91857 12.201C2.79833 12.0889 2.68362 11.9712 2.57484 11.8481C2.16451 11.3793 1.84128 10.7993 1.74062 10.1791C1.69478 9.89669 1.69958 9.62674 1.76849 9.3476C1.77009 9.3422 1.77671 9.31709 1.77716 9.31549C1.78196 9.29905 1.78706 9.28272 1.79232 9.26646C1.80103 9.23942 1.81041 9.21247 1.8203 9.18581C1.83209 9.15387 1.8448 9.1223 1.85828 9.09103C1.86496 9.07542 1.87195 9.05993 1.87899 9.04454C1.88117 9.03991 1.90088 9.00046 1.9001 9.00131C1.92986 8.94492 1.96195 8.8898 1.99716 8.83663C2.0125 8.81345 2.02835 8.79055 2.04479 8.76815C2.07544 8.72611 2.066 8.73771 2.09965 8.69818C2.26886 8.49923 2.46774 8.35218 2.71139 8.26955C2.94925 8.1888 3.21411 8.18069 3.45605 8.226C4.00871 8.32956 4.4984 8.66862 4.91202 9.03414C5.41799 9.48113 5.86089 10.0052 6.24351 10.5602C6.42359 10.8214 6.60748 11.0922 6.74164 11.3804C6.76147 11.4231 6.77684 11.4596 6.79878 11.5204C6.81946 11.5776 6.83758 11.6357 6.85289 11.6946C6.86553 11.743 6.87543 11.7918 6.88502 11.8407C6.8856 11.8435 6.8861 11.8458 6.88642 11.8477C6.88659 11.8493 6.88686 11.8511 6.88712 11.8532C6.88902 11.8663 6.89092 11.8795 6.89256 11.8926C6.89651 11.923 6.89958 11.9535 6.90195 11.9841C6.90557 12.0313 6.90746 12.0786 6.90732 12.126C6.90731 12.1514 6.90642 12.1768 6.90552 12.2022C6.90546 12.2033 6.90548 12.2039 6.90538 12.2048C6.90531 12.2061 6.90515 12.2072 6.905 12.2089C6.90348 12.2256 6.90233 12.2423 6.90054 12.2589C6.89544 12.3083 6.88836 12.3575 6.87906 12.4062C6.87521 12.4263 6.8711 12.4464 6.86654 12.4663C6.86386 12.4783 6.86098 12.4901 6.85804 12.502C6.85731 12.505 6.85646 12.5081 6.85573 12.5111C6.85534 12.5125 6.8549 12.5138 6.85444 12.5157C6.82614 12.6082 6.79228 12.6972 6.75134 12.7849C6.75128 12.7851 6.75122 12.7852 6.75116 12.7854C6.75105 12.7854 6.75099 12.7856 6.75093 12.7857C6.74531 12.7962 6.73988 12.8068 6.73421 12.8171C6.72281 12.838 6.71101 12.8585 6.69885 12.8787C6.67249 12.9225 6.64411 12.9651 6.61387 13.0063C6.60716 13.0154 6.56743 13.0652 6.5982 13.0278C6.58334 13.046 6.56848 13.0641 6.55302 13.0818C6.51965 13.1199 6.48449 13.1565 6.44774 13.1916C6.43085 13.2077 6.41356 13.2235 6.39593 13.2387C6.38865 13.2451 6.36059 13.2679 6.36314 13.2662C6.32665 13.2945 6.28943 13.3217 6.2508 13.3472C6.21163 13.3728 6.17125 13.3969 6.12992 13.419C6.11095 13.4292 6.09164 13.4388 6.07228 13.4484C6.07068 13.4491 6.06827 13.4503 6.06585 13.4514C6.0526 13.4572 6.03955 13.4631 6.0262 13.4687C5.93618 13.5063 5.84279 13.5355 5.74744 13.5559C5.72568 13.5605 5.7039 13.5648 5.68199 13.5685C5.67951 13.5689 5.66052 13.5717 5.658 13.572C5.64958 13.5731 5.64117 13.5742 5.63282 13.5752C5.57935 13.5814 5.52561 13.5849 5.4717 13.5858C5.36848 13.5874 5.26531 13.5793 5.16346 13.5621C5.16278 13.5621 5.14227 13.5581 5.13803 13.5574L5.13832 13.5578Z" fill="#00405B" stroke="#00405B" stroke-width="1.07692"/>
</g>
<circle cx="23.9613" cy="20.9232" r="6" fill="white" stroke="#00405B" stroke-width="1.07692"/>
<path d="M26.9496 21.6018H24.6665V23.8526H23.2665V21.6018H20.9727V20.2449H23.2557V17.9941H24.6557V20.2449H26.9496V21.6018Z" fill="#00405B"/>
<defs>
<clipPath id="clip0_1025_2033">
<rect width="24.6154" height="24.6154" fill="white" transform="translate(0.5 0.538574)"/>
</clipPath>
</defs>
</svg>
