<svg width="33" height="32" viewBox="0 0 33 32" fill="none" xmlns="http://www.w3.org/2000/svg">
<path fill-rule="evenodd" clip-rule="evenodd" d="M22.3175 6.2861C23.4535 5.67527 24.9001 5.84932 25.859 6.80825C26.8178 7.76708 26.9919 9.21346 26.3813 10.3494C26.9409 10.7192 27.3726 11.2872 27.5599 11.986L27.5999 12.1355C28.0287 13.7359 27.079 15.3809 25.4786 15.8097L23.7076 16.2842C23.5476 17.1879 23.0967 18.0558 22.3234 18.8291C21.2527 19.8998 18.2908 22.0318 15.3836 23.6431C13.9233 24.4524 12.4137 25.1663 11.1119 25.5493C10.4635 25.74 9.81342 25.8649 9.21909 25.853C8.6289 25.8411 7.97074 25.6896 7.47421 25.193C6.97767 24.6965 6.82609 24.0383 6.81426 23.4481C6.80235 22.8538 6.92724 22.2037 7.11797 21.5553C7.5009 20.2535 8.21482 18.744 9.02418 17.2836C10.6355 14.3764 12.7674 11.4145 13.8382 10.3438C14.6108 9.57112 15.4781 9.12029 16.381 8.95998L16.8561 7.18718C17.2849 5.58678 18.9299 4.63703 20.5303 5.06586L20.6797 5.1059C21.3792 5.29333 21.9477 5.72575 22.3175 6.2861ZM23.7377 10.3438L24.0819 9.99954L24.0751 9.97411C24.0896 9.97022 24.1041 9.96645 24.1186 9.9628L24.4448 9.63668C24.8353 9.24615 24.8353 8.61299 24.4448 8.22246C24.0542 7.83194 23.4211 7.83194 23.0306 8.22246L22.702 8.55104L22.6917 8.59067L22.6685 8.58448L22.3234 8.92957C21.9329 9.32009 21.2998 9.32009 20.9092 8.92957C20.5716 8.59198 20.5259 8.07308 20.772 7.68633C20.7101 7.38214 20.4823 7.12355 20.1621 7.03775L20.0127 6.99771C19.4792 6.85477 18.9309 7.17135 18.7879 7.70482L18.4224 9.06903C19.5966 9.39005 20.688 10.1226 21.6163 11.0509C22.5442 11.9787 23.2765 13.0695 23.5977 14.2431L24.9609 13.8778C25.4944 13.7349 25.811 13.1866 25.6681 12.6531L25.628 12.5037C25.5425 12.1845 25.2852 11.9571 24.9823 11.8944C24.5954 12.1415 24.0757 12.096 23.7377 11.758C23.3471 11.3675 23.3471 10.7343 23.7377 10.3438ZM17.569 10.9274C16.7935 10.8031 16.0096 11.0008 15.2524 11.758C14.3705 12.6399 12.3442 15.4192 10.7735 18.2532C9.99184 19.6635 9.35885 21.0245 9.03669 22.1197C8.87488 22.6698 8.80768 23.0999 8.81386 23.4081C8.81687 23.5581 8.83697 23.6557 8.85663 23.7137C8.86607 23.7416 8.87471 23.7583 8.87997 23.767C8.88494 23.7753 8.88841 23.7788 8.88841 23.7788C8.88841 23.7788 8.89189 23.7823 8.90019 23.7873C8.90896 23.7925 8.92565 23.8012 8.95352 23.8106C9.01152 23.8303 9.10912 23.8504 9.25916 23.8534C9.56736 23.8595 9.99742 23.7924 10.5475 23.6305C11.0805 23.4738 11.6764 23.2434 12.3103 22.9581L11.7168 22.3646C11.3263 21.9741 11.3263 21.3409 11.7168 20.9504C12.1074 20.5599 12.7405 20.5599 13.1311 20.9504L14.1949 22.0142C14.2678 21.9745 14.3409 21.9343 14.4141 21.8938C14.9436 21.6002 15.4713 21.2908 15.985 20.9759L14.8988 19.8897C14.5083 19.4992 14.5083 18.866 14.8988 18.4755C15.2894 18.085 15.9225 18.085 16.313 18.4755L17.7062 19.8687C18.3149 19.4583 18.8756 19.0594 19.3614 18.6955L18.0808 17.4149C17.6903 17.0243 17.6903 16.3912 18.0808 16.0006C18.4713 15.6101 19.1045 15.6101 19.495 16.0006L20.9092 17.4149C21.6665 16.6576 21.8642 15.8737 21.7399 15.0983C21.6072 14.2706 21.0864 13.3494 20.2021 12.4651C19.3179 11.5808 18.3966 11.06 17.569 10.9274Z" fill="#544864"/>
</svg>
