<svg width="33" height="32" viewBox="0 0 33 32" fill="none" xmlns="http://www.w3.org/2000/svg">
<path fill-rule="evenodd" clip-rule="evenodd" d="M14.3335 5C14.3335 3.89543 15.2289 3 16.3335 3C17.0738 3 17.7201 3.4022 18.0659 4H20.3335C20.8858 4 21.3335 4.44772 21.3335 5H20.3335C21.3335 5 21.3335 4.9995 21.3335 5L21.3335 5.00215L21.3335 5.00514L21.3334 5.01358L21.3331 5.04015C21.3328 5.06211 21.3322 5.09248 21.3311 5.13069C21.3288 5.20709 21.3244 5.31505 21.3159 5.45008C21.2987 5.71983 21.2649 6.09947 21.1977 6.5528C21.0641 7.45437 20.7951 8.6735 20.2473 9.90614C19.699 11.1397 18.8562 12.4205 17.5585 13.3938C16.454 14.2221 15.0622 14.7955 13.3335 14.955V21.5C13.3335 24.5376 15.7959 27 18.8335 27C21.8711 27 24.3335 24.5376 24.3335 21.5V19.874C22.6083 19.4299 21.3335 17.8638 21.3335 16C21.3335 13.7909 23.1244 12 25.3335 12C27.5426 12 29.3335 13.7909 29.3335 16C29.3335 17.8638 28.0587 19.4299 26.3335 19.874V21.5C26.3335 25.6421 22.9756 29 18.8335 29C14.6914 29 11.3335 25.6421 11.3335 21.5V14.955C9.60477 14.7955 8.21303 14.2221 7.1085 13.3938C5.81083 12.4205 4.96795 11.1397 4.41968 9.90614C3.87185 8.6735 3.60286 7.45437 3.46929 6.5528C3.40213 6.09947 3.36826 5.71983 3.35113 5.45008C3.34256 5.31505 3.33815 5.20709 3.33589 5.13069C3.33476 5.09248 3.33416 5.06211 3.33384 5.04015L3.33355 5.01358L3.33351 5.00514L3.3335 5.00215L3.3335 5.00097C3.3335 5.00047 3.3335 5 4.3335 5L3.3335 5.00097C3.3335 4.44869 3.78121 4 4.3335 4H6.60106C6.94687 3.4022 7.59321 3 8.3335 3C9.43807 3 10.3335 3.89543 10.3335 5C10.3335 6.10457 9.43807 7 8.3335 7C7.59321 7 6.94687 6.5978 6.60106 6H5.41208C5.42251 6.08271 5.43432 6.16941 5.4477 6.2597C5.56413 7.04563 5.79515 8.0765 6.24731 9.09386C6.69905 10.1103 7.35616 11.0795 8.3085 11.7937C9.24851 12.4988 10.5345 13 12.3335 13C14.1325 13 15.4185 12.4988 16.3585 11.7937C17.3108 11.0795 17.9679 10.1103 18.4197 9.09386C18.8718 8.0765 19.1029 7.04563 19.2193 6.2597C19.2327 6.16941 19.2445 6.08271 19.2549 6H18.0659C17.7201 6.5978 17.0738 7 16.3335 7C15.2289 7 14.3335 6.10457 14.3335 5ZM23.3335 16C23.3335 14.8954 24.2289 14 25.3335 14C26.4381 14 27.3335 14.8954 27.3335 16C27.3335 17.1046 26.4381 18 25.3335 18C24.2289 18 23.3335 17.1046 23.3335 16Z" fill="#544864"/>
</svg>
