<svg width="25" height="24" viewBox="0 0 25 24" fill="none" xmlns="http://www.w3.org/2000/svg">
<path d="M12.375 22.81C11.685 22.81 11.035 22.46 10.575 21.85L9.075 19.85C9.045 19.81 8.925 19.76 8.875 19.75H8.375C4.205 19.75 1.625 18.62 1.625 13V8C1.625 3.58 3.955 1.25 8.375 1.25H16.375C20.795 1.25 23.125 3.58 23.125 8V13C23.125 17.42 20.795 19.75 16.375 19.75H15.875C15.795 19.75 15.725 19.79 15.675 19.85L14.175 21.85C13.715 22.46 13.065 22.81 12.375 22.81ZM8.375 2.75C4.795 2.75 3.125 4.42 3.125 8V13C3.125 17.52 4.675 18.25 8.375 18.25H8.875C9.385 18.25 9.965 18.54 10.275 18.95L11.775 20.95C12.125 21.41 12.625 21.41 12.975 20.95L14.475 18.95C14.805 18.51 15.325 18.25 15.875 18.25H16.375C19.955 18.25 21.625 16.58 21.625 13V8C21.625 4.42 19.955 2.75 16.375 2.75H8.375Z" fill="#00405B"/>
<path d="M12.375 12C11.815 12 11.375 11.55 11.375 11C11.375 10.45 11.825 10 12.375 10C12.925 10 13.375 10.45 13.375 11C13.375 11.55 12.935 12 12.375 12Z" fill="#00405B"/>
<path d="M16.375 12C15.815 12 15.375 11.55 15.375 11C15.375 10.45 15.825 10 16.375 10C16.925 10 17.375 10.45 17.375 11C17.375 11.55 16.935 12 16.375 12Z" fill="#00405B"/>
<path d="M8.375 12C7.815 12 7.375 11.55 7.375 11C7.375 10.45 7.825 10 8.375 10C8.925 10 9.375 10.45 9.375 11C9.375 11.55 8.935 12 8.375 12Z" fill="#00405B"/>
</svg>
