<svg width="24" height="6" viewBox="0 0 24 6" fill="none" xmlns="http://www.w3.org/2000/svg">
<path fill-rule="evenodd" clip-rule="evenodd" d="M12 5.68494C10.5272 5.68494 9.33333 4.48281 9.33333 2.9999C9.33333 1.51699 10.5272 0.31486 12 0.31486C13.4728 0.31486 14.6667 1.51699 14.6667 2.9999C14.6667 4.48281 13.4728 5.68494 12 5.68494ZM2.66667 5.68502C1.19391 5.68502 0 4.48289 0 2.99998C0 1.51707 1.19391 0.314941 2.66667 0.314941C4.13943 0.314941 5.33333 1.51707 5.33333 2.99998C5.33333 4.48289 4.13943 5.68502 2.66667 5.68502ZM18.6667 2.9999C18.6667 4.48281 19.8606 5.68494 21.3333 5.68494C22.8061 5.68494 24 4.48281 24 2.9999C24 1.51699 22.8061 0.31486 21.3333 0.31486C19.8606 0.31486 18.6667 1.51699 18.6667 2.9999Z" fill="#00405B"/>
</svg>
