<svg width="32" height="32" viewBox="-1 -1 32 32" fill="none" xmlns="http://www.w3.org/2000/svg">
<path d="M12.6196 6.66782C12.6196 5.35299 13.6855 4.28711 15.0003 4.28711C16.3152 4.28711 17.3811 5.35299 17.3811 6.66782C17.3811 7.98266 16.3152 9.04854 15.0003 9.04854C13.6855 9.04854 12.6196 7.98266 12.6196 6.66782Z" fill="#00405B"/>
<path d="M12.6196 15.0003C12.6196 13.6855 13.6855 12.6196 15.0003 12.6196C16.3152 12.6196 17.3811 13.6855 17.3811 15.0003C17.3811 16.3152 16.3152 17.381 15.0003 17.381C13.6855 17.381 12.6196 16.3152 12.6196 15.0003Z" fill="#00405B"/>
<path d="M15.0003 20.9521C13.6855 20.9521 12.6196 22.018 12.6196 23.3328C12.6196 24.6477 13.6855 25.7136 15.0003 25.7136C16.3152 25.7136 17.3811 24.6477 17.3811 23.3328C17.3811 22.018 16.3152 20.9521 15.0003 20.9521Z" fill="#00405B"/>
</svg>
