<svg width="24" height="17" viewBox="-2.5 0 24 17" fill="none" xmlns="http://www.w3.org/2000/svg">
<path fill-rule="evenodd" clip-rule="evenodd" d="M13.6278 1.35106e-05C12.4214 0 11.6437 0.14471 10.7523 0.584057C10.4223 0.746718 10.1126 0.942611 9.82506 1.17115C9.54858 0.955422 9.25131 0.768524 8.93492 0.610959C8.02618 0.158397 7.20865 0 6.04554 0C2.93045 0 0.666748 2.59884 0.666748 5.97411C0.666748 8.52312 2.07827 10.9854 4.70745 13.3664C6.08749 14.6161 7.84952 15.8529 9.11142 16.5109L9.83342 16.8873L10.5554 16.5109C11.8173 15.8529 13.5793 14.6161 14.9594 13.3664C17.5886 10.9854 19.0001 8.52312 19.0001 5.97411C19.0001 2.63457 16.715 0.0128868 13.6278 1.35106e-05Z" fill="#7D16FF"/>
</svg>