<svg width="27" height="24" viewBox="0 0 27 24" fill="none" xmlns="http://www.w3.org/2000/svg">
<path fill-rule="evenodd" clip-rule="evenodd" d="M18.5177 1.92011e-05C16.8031 0 15.698 0.20566 14.4311 0.830053C13.962 1.06122 13.522 1.33962 13.1133 1.66442C12.7204 1.35783 12.2979 1.09221 11.8483 0.868285C10.5568 0.225111 9.3949 0 7.7419 0C3.31479 0 0.0976562 3.69343 0.0976562 8.49031C0.0976562 12.1129 2.10369 15.6123 5.84023 18.9961C7.80153 20.7722 10.3057 22.5299 12.0991 23.465L13.1252 24L14.1513 23.465C15.9447 22.5299 18.4488 20.7722 20.4101 18.9961C24.1467 15.6123 26.1527 12.1129 26.1527 8.49031C26.1527 3.7442 22.9052 0.0183145 18.5177 1.92011e-05ZM23.784 8.48972C23.784 11.3278 22.1096 14.2487 18.8261 17.2222C17.036 18.8434 14.7346 20.4635 13.1251 21.3134C11.5157 20.4635 9.21428 18.8434 7.42413 17.2222C4.14066 14.2487 2.46624 11.3278 2.46624 8.48972C2.46624 4.94548 4.69707 2.38437 7.74184 2.38437C9.05613 2.38437 9.86602 2.54129 10.7981 3.00546C11.3486 3.27965 11.8352 3.64169 12.2565 4.09411L13.1279 5.03013L13.9914 4.08669C14.4221 3.61614 14.9158 3.24586 15.4723 2.97158C16.3771 2.52567 17.1364 2.38437 18.5127 2.38438C21.5198 2.39693 23.784 4.99466 23.784 8.48972Z" fill="#00405B"/>
</svg>
