<svg width="32" height="32" viewBox="0 0 32 32" fill="none" xmlns="http://www.w3.org/2000/svg">
<path fill-rule="evenodd" clip-rule="evenodd" d="M9.13235 18.5789C9.53002 18.8554 10.0116 19 10.5556 19C11.0974 19 11.5915 18.8542 11.975 18.5045C12.3333 18.1779 12.4758 17.7762 12.5474 17.5395L12.5591 17.5H19.4601C19.4662 17.52 19.472 17.5387 19.4771 17.5548C19.5505 17.7841 19.6943 18.1775 20.0413 18.4991C20.418 18.8482 20.9049 19 21.4444 19C21.9835 19 22.4587 18.8509 22.8499 18.5758C23.2313 18.3075 23.4802 17.9571 23.6416 17.6284C23.9529 16.9949 24 16.3201 24 16C24 15.7363 23.9469 15.5042 23.861 15.3C23.8107 15.1805 23.7521 15.0785 23.702 15C23.7521 14.9215 23.8107 14.8196 23.861 14.7C23.9469 14.4958 24 14.2637 24 14C24 13.6799 23.9529 13.005 23.6416 12.3716C23.4802 12.0429 23.2313 11.6924 22.8499 11.4242C22.4587 11.1491 21.9835 11 21.4444 11C20.9049 11 20.418 11.1518 20.0413 11.5009C19.6943 11.8225 19.5505 12.2159 19.4771 12.4452C19.472 12.4613 19.4662 12.48 19.4601 12.5H12.6002L12.5984 12.4935C12.5313 12.2406 12.3914 11.8212 12.0096 11.4844C11.6131 11.1347 11.1042 11 10.5556 11C9.99999 11 9.50491 11.1364 9.09475 11.4147C8.68843 11.6904 8.43558 12.0577 8.28062 12.4063C7.99851 13.0411 7.99957 13.7202 7.99997 13.9752L8 14.0001C8.00002 14.2638 8.05311 14.4958 8.13898 14.7C8.18928 14.8195 8.24789 14.9215 8.29798 15C8.24788 15.0785 8.18925 15.1805 8.13895 15.3001C8.05307 15.5043 7.99998 15.7364 8 16.0001C8.00002 16.2935 8.02744 16.9752 8.33326 17.6174C8.49271 17.9523 8.74285 18.3082 9.13235 18.5789ZM10.0006 16.0513L10.0133 16.033C10.0177 16.0267 10.0236 16.0187 10.0307 16.0089C10.1176 15.8908 10.3889 15.522 10.3889 15C10.3889 14.4781 10.1178 14.1094 10.0308 13.9912C10.0237 13.9815 10.0177 13.9734 10.0133 13.9671L10.0002 13.9481C10.0018 13.6952 10.0174 13.423 10.1082 13.2186C10.1477 13.1298 10.1866 13.0908 10.2177 13.0697C10.2451 13.0511 10.3333 13 10.5556 13C10.6016 13 10.6375 13.0021 10.665 13.005L10.6654 13.0065C10.6773 13.0514 10.6849 13.0865 10.696 13.1374C10.7024 13.1669 10.71 13.2016 10.7201 13.2465C10.7414 13.3402 10.7785 13.4981 10.8464 13.6575C10.917 13.8231 11.0465 14.0537 11.2919 14.2369C11.5503 14.4298 11.8423 14.5 12.1111 14.5H19.8889C20.1592 14.5 20.4384 14.4295 20.6868 14.2571C20.923 14.0932 21.0621 13.8849 21.1449 13.7249C21.225 13.57 21.2744 13.4158 21.3048 13.3156C21.3254 13.2476 21.3368 13.2075 21.3463 13.1738C21.357 13.1361 21.3655 13.1063 21.382 13.0548C21.3888 13.0336 21.3949 13.0158 21.4003 13.0011C21.4129 13.0004 21.4275 13 21.4444 13C21.6012 13 21.6684 13.0384 21.6994 13.0602C21.7401 13.0888 21.7931 13.1446 21.8466 13.2534C21.9547 13.4736 21.9932 13.7634 21.9992 13.9491L21.9867 13.9671C21.9823 13.9734 21.9764 13.9814 21.9692 13.9912C21.8823 14.1093 21.6111 14.478 21.6111 15C21.6111 15.522 21.8823 15.8907 21.9692 16.0089C21.9764 16.0186 21.9823 16.0267 21.9867 16.033L21.9992 16.0509C21.9932 16.2367 21.9547 16.5264 21.8466 16.7466C21.7931 16.8554 21.7401 16.9112 21.6994 16.9398C21.6684 16.9616 21.6012 17 21.4444 17C21.4275 17 21.4129 16.9996 21.4003 16.9989C21.3949 16.9842 21.3888 16.9664 21.382 16.9452C21.3655 16.8936 21.357 16.864 21.3463 16.8262C21.3368 16.7926 21.3254 16.7524 21.3048 16.6844C21.2744 16.5842 21.225 16.43 21.1449 16.2751C21.0621 16.1151 20.923 15.9068 20.6868 15.7429C20.4384 15.5705 20.1592 15.5 19.8889 15.5H12.1111C11.8412 15.5 11.5581 15.5705 11.3066 15.7491C11.0674 15.9189 10.931 16.134 10.852 16.296C10.7757 16.4525 10.7301 16.608 10.7028 16.7062C10.6864 16.765 10.6759 16.8047 10.6672 16.838C10.656 16.8805 10.6476 16.9125 10.6331 16.9605C10.6288 16.9746 10.6248 16.987 10.6212 16.9978C10.6035 16.9991 10.5818 17 10.5556 17C10.3773 17 10.3033 16.9571 10.2739 16.9367C10.2363 16.9106 10.1879 16.8602 10.139 16.7576C10.037 16.5433 10.005 16.2566 10.0006 16.0513ZM21.3365 13.0094C21.3366 13.0094 21.3377 13.0091 21.3396 13.0084L21.3365 13.0094C21.3365 13.0093 21.336 13.0095 21.3365 13.0094ZM10.74 13.0194C10.7401 13.0193 10.7384 13.0185 10.7345 13.0173L10.7374 13.0186C10.739 13.0192 10.7399 13.0195 10.74 13.0194Z" fill="#544864"/>
<path fill-rule="evenodd" clip-rule="evenodd" d="M5.8448 8.84897L4.14117 20H4C3.44772 20 3 20.4477 3 21V24C3 24.5523 3.44772 25 4 25H28C28.5523 25 29 24.5523 29 24V21C29 20.4477 28.5523 20 28 20H27.8588L26.1552 8.84897C26.0806 8.36067 25.6606 8 25.1667 8H6.83333C6.33937 8 5.9194 8.36067 5.8448 8.84897ZM25.8356 20L24.3078 10H7.69216L6.16438 20H25.8356ZM5 23V22H27V23H5Z" fill="#544864"/>
</svg>
