<svg width="31" height="30" viewBox="0 0 31 30" fill="none" xmlns="http://www.w3.org/2000/svg">
<path d="M15.5 28.4375C8.0875 28.4375 2.0625 22.4125 2.0625 15C2.0625 7.5875 8.0875 1.5625 15.5 1.5625C22.9125 1.5625 28.9375 7.5875 28.9375 15C28.9375 22.4125 22.9125 28.4375 15.5 28.4375ZM15.5 3.4375C9.125 3.4375 3.9375 8.625 3.9375 15C3.9375 21.375 9.125 26.5625 15.5 26.5625C21.875 26.5625 27.0625 21.375 27.0625 15C27.0625 8.625 21.875 3.4375 15.5 3.4375Z" fill="#00405B"/>
<path d="M15.4997 22.8123C15.2372 22.8123 14.9872 22.7748 14.7747 22.6998C12.0872 21.7873 7.82471 18.5123 7.82471 13.6373C7.82471 11.0373 9.92471 8.9248 12.5122 8.9248C13.6372 8.9248 14.6747 9.3123 15.5122 10.0123C16.3497 9.3123 17.3997 8.9248 18.4997 8.9248C21.0872 8.9248 23.1872 11.0373 23.1872 13.6373C23.1872 18.4998 18.9247 21.7748 16.2247 22.6998C16.0122 22.7748 15.7497 22.8123 15.4997 22.8123ZM12.4997 10.8123C10.9497 10.8123 9.68721 12.0873 9.68721 13.6498C9.68721 18.0123 13.8997 20.4373 15.3747 20.9373C15.4247 20.9498 15.5497 20.9498 15.5997 20.9373C17.0747 20.4373 21.2872 18.0123 21.2872 13.6498C21.2872 12.0873 20.0247 10.8123 18.4747 10.8123C17.5997 10.8123 16.7622 11.2373 16.2372 11.9498C15.8872 12.4248 15.0872 12.4248 14.7372 11.9498C14.2122 11.2248 13.3997 10.8123 12.4997 10.8123Z" fill="#00405B"/>
</svg>
