<svg width="32" height="32" viewBox="0 0 32 32" fill="none" xmlns="http://www.w3.org/2000/svg">
<path fill-rule="evenodd" clip-rule="evenodd" d="M12.279 19.1063C12.9356 19.2817 13.5564 19.627 14.0716 20.1421C15.6337 21.7042 15.6337 24.2369 14.0716 25.799C12.5095 27.3611 9.9768 27.3611 8.41471 25.799C6.85261 24.2369 6.85261 21.7042 8.41471 20.1421L11.5568 17H7.00049C4.79135 17 3.00049 15.2091 3.00049 13C3.00049 10.7909 4.79135 9.00001 7.00049 9.00001C9.20963 9.00001 11.0005 10.7909 11.0005 13C11.0005 13.7286 10.8057 14.4117 10.4654 15H13.5568L23.2639 5.29289C23.6545 4.90237 24.2876 4.90237 24.6782 5.29289C25.0687 5.68342 25.0687 6.31658 24.6782 6.70711L16.3853 15H28.0005C28.5528 15 29.0005 15.4477 29.0005 16C29.0005 16.5523 28.5528 17 28.0005 17H14.3853L12.279 19.1063ZM9.82892 21.5563C9.04787 22.3374 9.04787 23.6037 9.82892 24.3848C10.61 25.1658 11.8763 25.1658 12.6573 24.3848C13.4384 23.6037 13.4384 22.3374 12.6573 21.5563C11.8763 20.7753 10.61 20.7753 9.82892 21.5563ZM5.00049 13C5.00049 11.8954 5.89592 11 7.00049 11C8.10506 11 9.00049 11.8954 9.00049 13C9.00049 14.1046 8.10506 15 7.00049 15C5.89592 15 5.00049 14.1046 5.00049 13Z" fill="#544864"/>
</svg>
