<svg width="24" height="16" viewBox="-3 0 24 16" fill="none" xmlns="http://www.w3.org/2000/svg">
<path d="M3.02438 2.40355C4.36929 0.976593 6.53255 0.976593 7.87746 2.40355L8.84803 3.43333C8.97399 3.56698 9.14951 3.64274 9.33317 3.64274C9.51683 3.64274 9.69235 3.56698 9.81832 3.43332L10.7889 2.40355C12.1338 0.976593 14.297 0.976593 15.642 2.40355C17.008 3.85294 17.008 6.21829 15.642 7.66768C15.3894 7.93562 15.4019 8.35754 15.6699 8.61008C15.9378 8.86261 16.3597 8.85012 16.6123 8.58218C18.4624 6.61921 18.4624 3.45203 16.6123 1.48905C14.741 -0.496351 11.6898 -0.49635 9.81859 1.48905L9.33317 2.00408L8.84775 1.48905C6.97651 -0.496351 3.92533 -0.496351 2.05409 1.48905C0.203976 3.45203 0.203977 6.61921 2.05409 8.58218L8.84802 15.7906C8.97399 15.9242 9.14951 16 9.33317 16C9.51683 16 9.69235 15.9242 9.81832 15.7906L11.1516 14.3759C11.4042 14.108 11.3917 13.686 11.1238 13.4335C10.8558 13.181 10.4339 13.1935 10.1814 13.4614L9.33317 14.3613L3.02438 7.66768C1.65832 6.21829 1.65832 3.85294 3.02438 2.40355Z" fill="#00405B"/>
<path d="M11.2819 6.41026C11.175 6.15362 10.92 5.99029 10.6422 6.00044C10.3643 6.0106 10.122 6.1921 10.034 6.45585L8.8527 10H7.99984C7.63165 10 7.33317 10.2985 7.33317 10.6667C7.33317 11.0349 7.63165 11.3333 7.99984 11.3333H9.33322C9.62017 11.3333 9.87493 11.1497 9.96567 10.8775L10.7359 8.56663L13.3845 14.9231C13.4848 15.1638 13.7162 15.324 13.9769 15.3329C14.2375 15.3419 14.4795 15.1981 14.5961 14.9648L16.4119 11.3333H17.3332C17.7014 11.3333 17.9998 11.0349 17.9998 10.6667C17.9998 10.2985 17.7014 10 17.3332 10H15.9999C15.7474 10 15.5165 10.1427 15.4036 10.3685L14.055 13.0657L11.2819 6.41026Z" fill="#00405B"/>
</svg>
