<svg width="32" height="32" viewBox="0.5 0 32 32" fill="none" xmlns="http://www.w3.org/2000/svg">
<path fill-rule="evenodd" clip-rule="evenodd" d="M17.2072 5.12151C16.8167 4.73098 16.1835 4.73098 15.793 5.12151L6.50809 14.4064C5.88883 15.0257 5.57108 15.8846 5.63825 16.7578L6.3551 26.0769C6.39518 26.5979 6.82962 27.0002 7.35215 27.0002H13.5001V22.0002C13.5001 20.3433 14.8432 19.0002 16.5001 19.0002C18.1569 19.0002 19.5001 20.3433 19.5001 22.0002V27.0002H25.648C26.1706 27.0002 26.605 26.5979 26.6451 26.0769L27.3619 16.7578C27.4291 15.8846 27.1114 15.0257 26.4921 14.4064L17.2072 5.12151ZM14.3788 3.70729C15.5503 2.53572 17.4498 2.53572 18.6214 3.70729L27.9063 12.9922C28.9384 14.0243 29.468 15.4559 29.356 16.9112L28.6392 26.2303C28.519 27.7933 27.2156 29.0002 25.648 29.0002H19.5001C18.3955 29.0002 17.5001 28.1048 17.5001 27.0002V22.0002C17.5001 21.4479 17.0524 21.0002 16.5001 21.0002C15.9478 21.0002 15.5001 21.4479 15.5001 22.0002V27.0002C15.5001 28.1048 14.6047 29.0002 13.5001 29.0002H7.35215C5.78455 29.0002 4.48122 27.7933 4.36099 26.2303L3.64414 16.9112C3.53219 15.4559 4.06177 14.0243 5.09388 12.9922L14.3788 3.70729Z" fill="#00405B"/>
</svg>
