<svg width="24" height="15" viewBox="-6 0 24 15" fill="none" xmlns="http://www.w3.org/2000/svg">
<mask id="path-1-inside-1_965_3773" fill="white">
<path d="M5.99951 0C8.87589 0 11.2913 2.33167 11.2915 5.20801C11.2915 8.08449 8.37419 15 5.99951 15C3.6249 14.9994 0.708496 8.08436 0.708496 5.20801C0.708678 2.33178 3.12328 0.000176048 5.99951 0ZM6.12256 2.91602C4.74185 2.91602 3.62256 4.0353 3.62256 5.41602C3.62256 6.79673 4.74185 7.91602 6.12256 7.91602C7.50327 7.91602 8.62256 6.79673 8.62256 5.41602C8.62256 4.0353 7.50327 2.91602 6.12256 2.91602Z"/>
</mask>
<path d="M5.99951 0C8.87589 0 11.2913 2.33167 11.2915 5.20801C11.2915 8.08449 8.37419 15 5.99951 15C3.6249 14.9994 0.708496 8.08436 0.708496 5.20801C0.708678 2.33178 3.12328 0.000176048 5.99951 0ZM6.12256 2.91602C4.74185 2.91602 3.62256 4.0353 3.62256 5.41602C3.62256 6.79673 4.74185 7.91602 6.12256 7.91602C7.50327 7.91602 8.62256 6.79673 8.62256 5.41602C8.62256 4.0353 7.50327 2.91602 6.12256 2.91602Z" fill="white"/>
<path d="M5.99951 0V-1H5.99945L5.99951 0ZM11.2915 5.20801H12.2915V5.20794L11.2915 5.20801ZM5.99951 15L5.99925 16H5.99951V15ZM0.708496 5.20801L-0.291504 5.20794V5.20801H0.708496ZM5.99951 0V1C8.34442 1 10.2914 2.90457 10.2915 5.20807L11.2915 5.20801L12.2915 5.20794C12.2913 1.75878 9.40735 -1 5.99951 -1V0ZM11.2915 5.20801H10.2915C10.2915 6.42337 9.63699 8.70957 8.6385 10.7417C8.14695 11.7421 7.6047 12.6122 7.07607 13.2155C6.50366 13.8688 6.13284 14 5.99951 14V15V16C7.05352 16 7.93787 15.2668 8.58034 14.5335C9.26658 13.7503 9.8989 12.7117 10.4335 11.6237C11.4874 9.47892 12.2915 6.86913 12.2915 5.20801H11.2915ZM5.99951 15L5.99978 14C5.86637 14 5.49552 13.8686 4.9232 13.2153C4.39465 12.6119 3.8525 11.7418 3.36107 10.7415C2.36281 8.70943 1.7085 6.42335 1.7085 5.20801H0.708496H-0.291504C-0.291504 6.86901 0.512379 9.47862 1.56598 11.6233C2.10047 12.7113 2.73267 13.7499 3.4188 14.5332C4.06117 15.2665 4.94535 15.9997 5.99925 16L5.99951 15ZM0.708496 5.20801L1.7085 5.20807C1.70864 2.9045 3.65494 1.00014 5.99957 1L5.99951 0L5.99945 -1C2.59162 -0.999791 -0.291286 1.75907 -0.291504 5.20794L0.708496 5.20801ZM6.12256 2.91602V1.91602C4.18956 1.91602 2.62256 3.48302 2.62256 5.41602H3.62256H4.62256C4.62256 4.58759 5.29413 3.91602 6.12256 3.91602V2.91602ZM3.62256 5.41602H2.62256C2.62256 7.34901 4.18956 8.91602 6.12256 8.91602V7.91602V6.91602C5.29413 6.91602 4.62256 6.24444 4.62256 5.41602H3.62256ZM6.12256 7.91602V8.91602C8.05556 8.91602 9.62256 7.34901 9.62256 5.41602H8.62256H7.62256C7.62256 6.24444 6.95099 6.91602 6.12256 6.91602V7.91602ZM8.62256 5.41602H9.62256C9.62256 3.48302 8.05556 1.91602 6.12256 1.91602V2.91602V3.91602C6.95099 3.91602 7.62256 4.58759 7.62256 5.41602H8.62256Z" fill="#00405B" mask="url(#path-1-inside-1_965_3773)"/>
</svg>
