<svg width="32" height="30" viewBox="0.5 0 32 30" fill="none" xmlns="http://www.w3.org/2000/svg">
<path d="M23.6979 18.6007C23.4447 18.4967 23.1884 18.4073 22.9464 18.2774C22.6999 18.1453 22.4656 17.9909 22.2468 17.8165C21.825 17.4802 21.463 17.0575 21.195 16.5893C20.9769 16.2085 20.8299 15.7932 20.6072 15.4138C20.3972 15.0561 20.1515 14.7181 19.8642 14.4186C19.1817 13.7068 18.2981 13.2473 17.3348 13.0511C16.2012 12.8203 14.9586 12.9068 13.888 13.3548C13.0532 13.7044 12.3463 14.3063 11.8316 15.047C11.6068 15.3705 11.4197 15.7188 11.2614 16.0794C11.0446 16.5731 10.7641 17.0326 10.3896 17.4237C10.0102 17.8197 9.56299 18.1426 9.06711 18.3767C8.81606 18.4951 8.55153 18.5801 8.29882 18.695C8.05883 18.8039 7.82657 18.9303 7.60553 19.0737C6.74012 19.6354 6.06137 20.4314 5.66246 21.3845C5.25839 22.3496 5.17703 23.4268 5.32672 24.4561C5.46929 25.4376 5.82881 26.3901 6.42953 27.1839C7.00299 27.9414 7.80491 28.5233 8.71758 28.7973C9.73631 29.103 10.8609 29.0571 11.8607 28.7003C12.7389 28.387 13.5062 27.8437 14.3707 27.5013C14.9127 27.2866 15.5035 27.1742 16.0953 27.173C16.1006 27.173 16.1059 27.1731 16.1112 27.1733C16.1159 27.1733 16.1206 27.173 16.1253 27.173C16.5464 27.1748 16.9676 27.233 17.3716 27.3513C18.2637 27.6125 19.0268 28.1435 19.8706 28.5198C20.8491 28.9563 21.9336 29.1074 22.9907 28.9127C23.9358 28.7388 24.8092 28.2476 25.4587 27.541C26.1238 26.8174 26.564 25.9112 26.7782 24.9549C26.8883 24.4627 26.9409 23.9572 26.942 23.453C26.9392 22.4129 26.6556 21.388 26.0802 20.5184C25.5054 19.6498 24.6572 18.9954 23.6979 18.6007ZM14.3677 25.9294C14.3615 25.9241 14.3553 25.9188 14.3491 25.9133C14.326 25.8935 14.3032 25.8736 14.2803 25.8535C14.1985 25.7814 14.1182 25.7076 14.0394 25.6321C13.8714 25.4712 13.7102 25.3031 13.5558 25.129C13.2293 24.7608 12.9261 24.358 12.6704 23.9492C12.3896 23.5004 12.148 23.0267 11.955 22.5335C11.8577 22.2852 11.7732 22.0317 11.7026 21.7745C11.6356 21.5304 11.5753 21.281 11.5645 21.0273C11.5448 20.5605 11.678 20.082 11.9351 19.6951C12.0659 19.4983 12.1993 19.3534 12.3971 19.2102C12.4327 19.1845 12.4592 19.1671 12.5208 19.1322C12.5733 19.1025 12.6272 19.0757 12.6823 19.0516C12.6913 19.0478 12.7002 19.044 12.7092 19.0404C12.714 19.0384 12.7207 19.036 12.7233 19.0351C12.7564 19.0236 12.7896 19.0121 12.8232 19.0022C12.8579 18.9919 12.8931 18.9827 12.9284 18.9747C12.944 18.971 12.9598 18.968 12.9755 18.9647C12.984 18.9628 12.9884 18.9619 12.9908 18.9613C12.9908 18.9613 12.9917 18.9613 12.9985 18.9604C13.0658 18.9504 13.1335 18.944 13.2016 18.9415C13.2376 18.9401 13.2737 18.9397 13.3097 18.9404H13.3119C13.314 18.9406 13.3169 18.9407 13.3211 18.941C13.3452 18.9425 13.3693 18.944 13.3932 18.9462C13.4615 18.9522 13.5296 18.9618 13.597 18.9742C13.6761 18.9889 13.7014 18.9951 13.7785 19.018C14.0562 19.1004 14.2959 19.2221 14.5304 19.3921C15.0054 19.7363 15.3628 20.2267 15.6613 20.7252C15.7379 20.8532 15.8116 20.9832 15.8835 21.1138C15.9575 21.248 16.2203 21.2716 16.3008 21.1257C16.587 20.6068 16.9006 20.0866 17.3286 19.671C17.5433 19.4625 17.7642 19.2958 18.029 19.1643C18.1638 19.0974 18.2634 19.0581 18.4105 19.0162C18.5605 18.9733 18.6429 18.9575 18.792 18.946C18.9423 18.9344 19.0212 18.9362 19.1747 18.9603C19.2997 18.9798 19.407 19.0112 19.5366 19.0675C19.5416 19.0696 19.5895 19.0924 19.588 19.091C19.6119 19.1033 19.6357 19.1162 19.6591 19.1295C19.7139 19.1609 19.7671 19.1952 19.8183 19.2324C19.8398 19.248 19.861 19.264 19.8819 19.2805C19.8904 19.2872 19.8987 19.294 19.9071 19.301C19.9109 19.3042 19.9206 19.3127 19.9206 19.3127C19.968 19.3548 20.0136 19.3989 20.0569 19.4452C20.3772 19.7873 20.5723 20.2441 20.6226 20.7105C20.6773 21.2185 20.5326 21.7131 20.3698 22.1996C20.2018 22.7019 19.9853 23.1768 19.7231 23.6348C19.4703 24.0768 19.1798 24.4974 18.857 24.8911C18.5722 25.2385 18.2647 25.5605 17.9122 25.868C17.7545 26.0056 17.5908 26.1367 17.4209 26.2588C17.3854 26.2842 17.3495 26.3092 17.3136 26.3341L17.3112 26.3357C17.3024 26.3416 17.2933 26.3476 17.2845 26.3535C17.2625 26.368 17.2406 26.3822 17.2184 26.3963C17.1439 26.4439 17.0682 26.4895 16.991 26.5327C16.9169 26.5742 16.8416 26.6134 16.765 26.6497C16.7307 26.6659 16.6962 26.6815 16.6615 26.6965C16.6436 26.7042 16.6254 26.7113 16.6076 26.719L16.6035 26.721C16.5989 26.7227 16.5942 26.7242 16.5898 26.7259C16.5227 26.7509 16.4547 26.7733 16.3855 26.7916C16.3568 26.7993 16.3279 26.8063 16.2988 26.8125C16.2873 26.8149 16.2758 26.8171 16.2643 26.8193C16.2593 26.8201 16.2543 26.821 16.2493 26.8216C16.2035 26.828 16.1576 26.8318 16.1114 26.8328C16.1011 26.8328 16.0908 26.8328 16.0805 26.8328C16.0709 26.8322 16.0614 26.8316 16.0518 26.8309C16.0214 26.8283 15.9911 26.8245 15.9609 26.8196C15.9309 26.8149 15.9014 26.809 15.8717 26.8028C15.8687 26.8022 15.8664 26.8018 15.864 26.8013C15.8469 26.7966 15.8296 26.7922 15.8125 26.7874C15.6702 26.7468 15.5354 26.689 15.4008 26.6278L15.399 26.6271C15.3928 26.6239 15.3864 26.6209 15.3802 26.6177C15.3613 26.6081 15.3425 26.5984 15.3237 26.5884C15.2852 26.5681 15.247 26.5472 15.2092 26.5256C15.1318 26.4815 15.0558 26.4351 14.981 26.3868C14.8157 26.2798 14.6565 26.1635 14.5027 26.0404C14.4635 26.0091 14.4248 25.9773 14.3862 25.9453C14.3826 25.9423 14.3719 25.933 14.3677 25.9294ZM26.4884 23.4833C26.4862 24.4507 26.2823 25.4338 25.8314 26.2945C25.4128 27.0937 24.7882 27.7855 23.9847 28.2055C23.126 28.6544 22.1245 28.7563 21.1665 28.5682C20.2689 28.3918 19.5065 27.9076 18.7014 27.5028C18.2807 27.2913 17.8484 27.1051 17.3903 26.9907C17.2737 26.9616 17.1563 26.9368 17.0385 26.9157C17.3884 26.7469 17.7136 26.5231 18.0164 26.2812C18.7959 25.6582 19.4585 24.8745 19.9804 24.026C20.2761 23.5454 20.5286 23.0359 20.7258 22.5072C20.8246 22.2425 20.909 21.9724 20.9772 21.6981C21.0437 21.4306 21.095 21.161 21.0893 20.8841C21.0673 19.8066 20.3172 18.7439 19.2014 18.6144C18.5487 18.5386 17.8955 18.7618 17.3672 19.1375C16.8459 19.5083 16.4527 20.0387 16.1265 20.5817C16.1185 20.595 16.1108 20.6083 16.1029 20.6217C15.8487 20.1929 15.5623 19.7801 15.201 19.4364C14.7377 18.9957 14.1477 18.6722 13.5034 18.6112C12.9084 18.5548 12.3142 18.733 11.8753 19.1446C11.4953 19.501 11.2417 19.9899 11.1509 20.5017C11.1053 20.7586 11.0943 21.0235 11.1318 21.2822C11.1733 21.5675 11.2539 21.8518 11.3391 22.1267C11.5051 22.6631 11.7313 23.1803 12.0039 23.6709C12.5004 24.5648 13.1443 25.3899 13.9142 26.0645C14.2313 26.3424 14.5686 26.6009 14.9375 26.8066C15.0075 26.8457 15.079 26.8834 15.1517 26.9189C14.8399 26.9768 14.5339 27.0637 14.2376 27.1778C13.8096 27.3425 13.4044 27.5535 13.001 27.7703C12.6136 27.9784 12.2096 28.1965 11.8074 28.3479C11.3403 28.5236 10.8562 28.6282 10.3579 28.6518C9.42012 28.6962 8.49563 28.4509 7.72719 27.8952C6.98465 27.3583 6.44832 26.5784 6.11986 25.73C5.76563 24.8152 5.62625 23.7792 5.74776 22.8041C5.86911 21.8296 6.26015 20.9023 6.91223 20.1638C7.23176 19.8019 7.61416 19.4898 8.02899 19.2436C8.24928 19.113 8.47896 18.9986 8.71546 18.9006C8.96984 18.7951 9.2274 18.7048 9.47254 18.5776C10.4626 18.0638 11.2391 17.2211 11.6798 16.1983C11.9815 15.4982 12.4252 14.8288 13.0129 14.3242C13.7418 13.6981 14.6618 13.367 15.6184 13.2938C16.6526 13.2147 17.7287 13.381 18.6244 13.926C19.3229 14.351 19.8745 14.9769 20.2634 15.6882C20.4787 16.0821 20.6288 16.5057 20.8704 16.886C21.1685 17.3555 21.5408 17.7656 21.9792 18.1079C22.4222 18.4538 22.913 18.6801 23.4314 18.8868C23.9027 19.0746 24.3448 19.3318 24.7397 19.6507C25.4919 20.2585 26.0278 21.1024 26.2935 22.0292C26.4288 22.5008 26.4871 22.9934 26.4884 23.4833Z" fill="#00405B"/>
<path d="M14.3677 25.9294L14.3491 25.9133C14.326 25.8935 14.3032 25.8736 14.2803 25.8535C14.1985 25.7814 14.1182 25.7076 14.0394 25.6321C13.8714 25.4712 13.7102 25.3031 13.5558 25.129C13.2293 24.7608 12.9261 24.358 12.6704 23.9492C12.3896 23.5004 12.148 23.0267 11.955 22.5335C11.8577 22.2852 11.7732 22.0317 11.7026 21.7745C11.6356 21.5304 11.5753 21.281 11.5645 21.0273C11.5448 20.5605 11.678 20.082 11.9351 19.6951C12.0659 19.4983 12.1993 19.3534 12.3971 19.2102C12.4327 19.1845 12.4592 19.1671 12.5208 19.1322C12.5733 19.1025 12.6272 19.0757 12.6823 19.0516L12.7092 19.0404C12.714 19.0384 12.7207 19.036 12.7233 19.0351C12.7564 19.0236 12.7896 19.0121 12.8232 19.0022C12.8579 18.9919 12.8931 18.9827 12.9284 18.9747C12.944 18.971 12.9598 18.968 12.9755 18.9647L12.9908 18.9613C12.9908 18.9613 12.9917 18.9613 12.9985 18.9604C13.0658 18.9504 13.1335 18.944 13.2016 18.9415C13.2376 18.9401 13.2737 18.9397 13.3097 18.9404H13.3119L13.3211 18.941C13.3452 18.9425 13.3693 18.944 13.3932 18.9462C13.4615 18.9522 13.5296 18.9618 13.597 18.9742C13.6761 18.9889 13.7014 18.9951 13.7785 19.018C14.0562 19.1004 14.2959 19.2221 14.5304 19.3921C15.0054 19.7363 15.3628 20.2267 15.6613 20.7252C15.7379 20.8532 15.8116 20.9832 15.8835 21.1138C15.9575 21.248 16.2203 21.2716 16.3008 21.1257C16.587 20.6068 16.9006 20.0866 17.3286 19.671C17.5433 19.4625 17.7642 19.2958 18.029 19.1643C18.1638 19.0974 18.2634 19.0581 18.4105 19.0162C18.5605 18.9733 18.6429 18.9575 18.792 18.946C18.9423 18.9344 19.0212 18.9362 19.1747 18.9603C19.2997 18.9798 19.407 19.0112 19.5366 19.0675C19.5416 19.0696 19.5895 19.0924 19.588 19.091C19.6119 19.1033 19.6357 19.1162 19.6591 19.1295C19.7139 19.1609 19.7671 19.1952 19.8183 19.2324C19.8398 19.248 19.861 19.264 19.8819 19.2805C19.8904 19.2872 19.8987 19.294 19.9071 19.301C19.9109 19.3042 19.9206 19.3127 19.9206 19.3127C19.968 19.3548 20.0136 19.3989 20.0569 19.4452C20.3772 19.7873 20.5723 20.2441 20.6226 20.7105C20.6773 21.2185 20.5326 21.7131 20.3698 22.1996C20.2018 22.7019 19.9853 23.1768 19.7231 23.6348C19.4703 24.0768 19.1798 24.4974 18.857 24.8911C18.5722 25.2385 18.2647 25.5605 17.9122 25.868C17.7545 26.0056 17.5908 26.1367 17.4209 26.2588C17.3854 26.2842 17.3495 26.3092 17.3136 26.3341L17.3112 26.3357L17.2845 26.3535C17.2625 26.368 17.2406 26.3822 17.2184 26.3963C17.1439 26.4439 17.0682 26.4895 16.991 26.5327C16.9169 26.5742 16.8416 26.6134 16.765 26.6497C16.7307 26.6659 16.6962 26.6815 16.6615 26.6965C16.6436 26.7042 16.6254 26.7113 16.6076 26.719L16.6035 26.721L16.5898 26.7259C16.5227 26.7509 16.4547 26.7733 16.3855 26.7916C16.3568 26.7993 16.3279 26.8063 16.2988 26.8125C16.2873 26.8149 16.2758 26.8171 16.2643 26.8193C16.2593 26.8201 16.2543 26.821 16.2493 26.8216C16.2035 26.828 16.1576 26.8318 16.1114 26.8328H16.0805C16.0709 26.8322 16.0614 26.8316 16.0518 26.8309C16.0214 26.8283 15.9911 26.8245 15.9609 26.8196C15.9309 26.8149 15.9014 26.809 15.8717 26.8028L15.864 26.8013C15.8469 26.7966 15.8296 26.7922 15.8125 26.7874C15.6702 26.7468 15.5354 26.689 15.4008 26.6278L15.399 26.6271L15.3802 26.6177C15.3613 26.6081 15.3425 26.5984 15.3237 26.5884C15.2852 26.5681 15.247 26.5472 15.2092 26.5256C15.1318 26.4815 15.0558 26.4351 14.981 26.3868C14.8157 26.2798 14.6565 26.1635 14.5027 26.0404C14.4635 26.0091 14.4248 25.9773 14.3862 25.9453L14.3677 25.9294Z" fill="#00405B"/>
<path d="M14.3677 25.9294C14.3615 25.9241 14.3553 25.9188 14.3491 25.9133M14.3677 25.9294C14.3719 25.933 14.3826 25.9423 14.3862 25.9453M14.3677 25.9294L14.3491 25.9133M14.3677 25.9294L14.3862 25.9453M14.3491 25.9133C14.326 25.8935 14.3032 25.8736 14.2803 25.8535C14.1985 25.7814 14.1182 25.7076 14.0394 25.6321C13.8714 25.4712 13.7102 25.3031 13.5558 25.129C13.2293 24.7608 12.9261 24.358 12.6704 23.9492C12.3896 23.5004 12.148 23.0267 11.955 22.5335C11.8577 22.2852 11.7732 22.0317 11.7026 21.7745C11.6356 21.5304 11.5753 21.281 11.5645 21.0273C11.5448 20.5605 11.678 20.082 11.9351 19.6951C12.0659 19.4983 12.1993 19.3534 12.3971 19.2102C12.4327 19.1845 12.4592 19.1671 12.5208 19.1322C12.5733 19.1025 12.6272 19.0757 12.6823 19.0516M12.6823 19.0516C12.6913 19.0478 12.7002 19.044 12.7092 19.0404M12.6823 19.0516L12.7092 19.0404M12.7092 19.0404C12.714 19.0384 12.7207 19.036 12.7233 19.0351C12.7564 19.0236 12.7896 19.0121 12.8232 19.0022C12.8579 18.9919 12.8931 18.9827 12.9284 18.9747C12.944 18.971 12.9598 18.968 12.9755 18.9647M12.9755 18.9647C12.984 18.9628 12.9884 18.9619 12.9908 18.9613M12.9755 18.9647L12.9908 18.9613M12.9908 18.9613C12.9908 18.9613 12.9917 18.9613 12.9985 18.9604C13.0658 18.9504 13.1335 18.944 13.2016 18.9415C13.2376 18.9401 13.2737 18.9397 13.3097 18.9404H13.3119M13.3119 18.9404C13.314 18.9406 13.3169 18.9407 13.3211 18.941M13.3119 18.9404L13.3211 18.941M13.3211 18.941C13.3452 18.9425 13.3693 18.944 13.3932 18.9462C13.4615 18.9522 13.5296 18.9618 13.597 18.9742C13.6761 18.9889 13.7014 18.9951 13.7785 19.018C14.0562 19.1004 14.2959 19.2221 14.5304 19.3921C15.0054 19.7363 15.3628 20.2267 15.6613 20.7252C15.7379 20.8532 15.8116 20.9832 15.8835 21.1138C15.9575 21.248 16.2203 21.2716 16.3008 21.1257C16.587 20.6068 16.9006 20.0866 17.3286 19.671C17.5433 19.4625 17.7642 19.2958 18.029 19.1643C18.1638 19.0974 18.2634 19.0581 18.4105 19.0162C18.5605 18.9733 18.6429 18.9575 18.792 18.946C18.9423 18.9344 19.0212 18.9362 19.1747 18.9603C19.2997 18.9798 19.407 19.0112 19.5366 19.0675C19.5416 19.0696 19.5895 19.0924 19.588 19.091C19.6119 19.1033 19.6357 19.1162 19.6591 19.1295C19.7139 19.1609 19.7671 19.1952 19.8183 19.2324C19.8398 19.248 19.861 19.264 19.8819 19.2805C19.8904 19.2872 19.8987 19.294 19.9071 19.301C19.9109 19.3042 19.9206 19.3127 19.9206 19.3127C19.968 19.3548 20.0136 19.3989 20.0569 19.4452C20.3772 19.7873 20.5723 20.2441 20.6226 20.7105C20.6773 21.2185 20.5326 21.7131 20.3698 22.1996C20.2018 22.7019 19.9853 23.1768 19.7231 23.6348C19.4703 24.0768 19.1798 24.4974 18.857 24.8911C18.5722 25.2385 18.2647 25.5605 17.9122 25.868C17.7545 26.0056 17.5908 26.1367 17.4209 26.2588C17.3854 26.2842 17.3495 26.3092 17.3136 26.3341L17.3112 26.3357M17.3112 26.3357C17.3024 26.3416 17.2933 26.3476 17.2845 26.3535M17.3112 26.3357L17.2845 26.3535M17.2845 26.3535C17.2625 26.368 17.2406 26.3822 17.2184 26.3963C17.1439 26.4439 17.0682 26.4895 16.991 26.5327C16.9169 26.5742 16.8416 26.6134 16.765 26.6497C16.7307 26.6659 16.6962 26.6815 16.6615 26.6965C16.6436 26.7042 16.6254 26.7113 16.6076 26.719L16.6035 26.721M16.6035 26.721C16.5989 26.7227 16.5942 26.7242 16.5898 26.7259M16.6035 26.721L16.5898 26.7259M16.5898 26.7259C16.5227 26.7509 16.4547 26.7733 16.3855 26.7916C16.3568 26.7993 16.3279 26.8063 16.2988 26.8125C16.2873 26.8149 16.2758 26.8171 16.2643 26.8193C16.2593 26.8201 16.2543 26.821 16.2493 26.8216C16.2035 26.828 16.1576 26.8318 16.1114 26.8328M16.1114 26.8328C16.1011 26.8328 16.0908 26.8328 16.0805 26.8328M16.1114 26.8328H16.0805M16.0805 26.8328C16.0709 26.8322 16.0614 26.8316 16.0518 26.8309C16.0214 26.8283 15.9911 26.8245 15.9609 26.8196C15.9309 26.8149 15.9014 26.809 15.8717 26.8028M15.8717 26.8028C15.8687 26.8022 15.8664 26.8018 15.864 26.8013M15.8717 26.8028L15.864 26.8013M15.864 26.8013C15.8469 26.7966 15.8296 26.7922 15.8125 26.7874C15.6702 26.7468 15.5354 26.689 15.4008 26.6278L15.399 26.6271M15.399 26.6271C15.3928 26.6239 15.3864 26.6209 15.3802 26.6177M15.399 26.6271L15.3802 26.6177M15.3802 26.6177C15.3613 26.6081 15.3425 26.5984 15.3237 26.5884C15.2852 26.5681 15.247 26.5472 15.2092 26.5256C15.1317 26.4815 15.0558 26.4351 14.981 26.3868C14.8157 26.2798 14.6565 26.1635 14.5027 26.0404C14.4635 26.0091 14.4248 25.9773 14.3862 25.9453M23.6979 18.6007C23.4447 18.4967 23.1884 18.4073 22.9464 18.2774C22.6999 18.1453 22.4656 17.9909 22.2468 17.8165C21.825 17.4802 21.463 17.0575 21.195 16.5893C20.9769 16.2085 20.8299 15.7932 20.6072 15.4138C20.3972 15.0561 20.1515 14.7181 19.8642 14.4186C19.1817 13.7068 18.2981 13.2473 17.3348 13.0511C16.2012 12.8203 14.9586 12.9068 13.888 13.3548C13.0532 13.7044 12.3463 14.3063 11.8316 15.047C11.6068 15.3705 11.4197 15.7188 11.2614 16.0794C11.0446 16.5731 10.7641 17.0326 10.3896 17.4237C10.0102 17.8197 9.56299 18.1426 9.06711 18.3767C8.81606 18.4951 8.55153 18.5801 8.29882 18.695C8.05883 18.8039 7.82657 18.9303 7.60553 19.0737C6.74012 19.6354 6.06137 20.4314 5.66246 21.3845C5.25839 22.3496 5.17703 23.4268 5.32672 24.4561C5.46929 25.4376 5.82881 26.3901 6.42953 27.1839C7.00299 27.9414 7.80491 28.5233 8.71758 28.7973C9.73631 29.103 10.8609 29.0571 11.8607 28.7003C12.7389 28.387 13.5062 27.8437 14.3707 27.5013C14.9127 27.2866 15.5035 27.1742 16.0953 27.173C16.1006 27.173 16.1059 27.1731 16.1112 27.1733C16.1159 27.1733 16.1206 27.173 16.1253 27.173C16.5464 27.1748 16.9676 27.233 17.3716 27.3513C18.2637 27.6125 19.0268 28.1435 19.8706 28.5198C20.8491 28.9563 21.9336 29.1074 22.9907 28.9127C23.9358 28.7388 24.8092 28.2476 25.4587 27.541C26.1238 26.8174 26.564 25.9112 26.7782 24.9549C26.8883 24.4627 26.9409 23.9572 26.942 23.453C26.9392 22.4129 26.6556 21.388 26.0802 20.5184C25.5054 19.6498 24.6572 18.9954 23.6979 18.6007ZM26.4884 23.4833C26.4862 24.4507 26.2823 25.4338 25.8314 26.2945C25.4128 27.0937 24.7882 27.7855 23.9847 28.2055C23.126 28.6544 22.1245 28.7563 21.1665 28.5682C20.2689 28.3918 19.5065 27.9076 18.7014 27.5028C18.2807 27.2913 17.8484 27.1051 17.3903 26.9907C17.2737 26.9616 17.1563 26.9368 17.0385 26.9157C17.3884 26.7469 17.7136 26.5231 18.0164 26.2812C18.7959 25.6582 19.4585 24.8745 19.9804 24.026C20.2761 23.5454 20.5286 23.0359 20.7258 22.5072C20.8246 22.2425 20.909 21.9724 20.9772 21.6981C21.0437 21.4306 21.095 21.161 21.0893 20.8841C21.0673 19.8066 20.3172 18.7439 19.2014 18.6144C18.5487 18.5386 17.8955 18.7618 17.3672 19.1375C16.8459 19.5083 16.4527 20.0387 16.1265 20.5817C16.1185 20.595 16.1108 20.6083 16.1029 20.6217C15.8487 20.1929 15.5623 19.7801 15.201 19.4364C14.7377 18.9957 14.1477 18.6722 13.5034 18.6112C12.9084 18.5548 12.3142 18.733 11.8753 19.1446C11.4953 19.501 11.2417 19.9899 11.1509 20.5017C11.1053 20.7586 11.0943 21.0235 11.1318 21.2822C11.1733 21.5675 11.2539 21.8518 11.3391 22.1267C11.5051 22.6631 11.7313 23.1803 12.0039 23.6709C12.5004 24.5648 13.1443 25.3899 13.9142 26.0645C14.2313 26.3424 14.5686 26.6009 14.9375 26.8066C15.0075 26.8457 15.079 26.8834 15.1517 26.9189C14.8399 26.9768 14.5339 27.0637 14.2376 27.1778C13.8096 27.3425 13.4044 27.5535 13.001 27.7703C12.6136 27.9784 12.2096 28.1965 11.8074 28.3479C11.3403 28.5236 10.8562 28.6282 10.3579 28.6518C9.42012 28.6962 8.49562 28.4509 7.72719 27.8952C6.98465 27.3583 6.44832 26.5784 6.11986 25.73C5.76563 24.8152 5.62625 23.7792 5.74776 22.8041C5.86911 21.8296 6.26015 20.9023 6.91223 20.1638C7.23176 19.8019 7.61416 19.4898 8.02899 19.2436C8.24928 19.113 8.47896 18.9986 8.71546 18.9006C8.96984 18.7951 9.2274 18.7048 9.47254 18.5776C10.4626 18.0638 11.2391 17.2211 11.6798 16.1983C11.9815 15.4982 12.4252 14.8288 13.0129 14.3242C13.7418 13.6981 14.6618 13.367 15.6184 13.2938C16.6526 13.2147 17.7287 13.381 18.6244 13.926C19.3229 14.351 19.8745 14.9769 20.2634 15.6882C20.4787 16.0821 20.6288 16.5057 20.8704 16.886C21.1685 17.3555 21.5408 17.7656 21.9792 18.1079C22.4222 18.4538 22.913 18.6801 23.4314 18.8868C23.9027 19.0746 24.3448 19.3318 24.7397 19.6507C25.4919 20.2585 26.0278 21.1024 26.2935 22.0292C26.4288 22.5008 26.4871 22.9934 26.4884 23.4833Z" stroke="#00405B" stroke-width="1.4"/>
<path d="M14.3676 25.9293L14.3489 25.9133C14.3259 25.8934 14.303 25.8736 14.2802 25.8534C14.1983 25.7813 14.118 25.7075 14.0393 25.6321C13.8712 25.4712 13.71 25.303 13.5557 25.1289C13.2292 24.7607 12.926 24.3579 12.6703 23.9491C12.3895 23.5004 12.1479 23.0266 11.9548 22.5335C11.8576 22.2851 11.773 22.0317 11.7024 21.7744C11.6355 21.5303 11.5752 21.281 11.5644 21.0272C11.5447 20.5604 11.6779 20.0819 11.935 19.695C12.0657 19.4982 12.1992 19.3533 12.3969 19.2102C12.4325 19.1844 12.4591 19.167 12.5207 19.1321C12.5731 19.1024 12.6271 19.0756 12.6822 19.0515L12.709 19.0403C12.7139 19.0384 12.7206 19.0359 12.7231 19.035C12.7563 19.0235 12.7895 19.012 12.8231 19.0021C12.8578 18.9918 12.893 18.9826 12.9283 18.9746C12.9439 18.9709 12.9596 18.9679 12.9754 18.9646L12.9907 18.9612C12.9907 18.9612 12.9916 18.9612 12.9984 18.9603C13.0657 18.9503 13.1334 18.944 13.2014 18.9414C13.2375 18.94 13.2736 18.9396 13.3096 18.9403H13.3117L13.321 18.9409C13.3451 18.9425 13.3692 18.944 13.3931 18.9461C13.4614 18.9522 13.5294 18.9617 13.5969 18.9741C13.676 18.9888 13.7013 18.995 13.7784 19.0179C14.0561 19.1003 14.2958 19.222 14.5303 19.392C15.0053 19.7362 15.3627 20.2266 15.6611 20.7251C15.7378 20.8531 15.8114 20.9831 15.8834 21.1137C15.9573 21.2479 16.2202 21.2716 16.3006 21.1257C16.5868 20.6068 16.9005 20.0865 17.3285 19.6709C17.5431 19.4624 17.764 19.2958 18.0289 19.1643C18.1637 19.0973 18.2633 19.0581 18.4104 19.0161C18.5604 18.9732 18.6428 18.9575 18.7919 18.9459C18.9422 18.9343 19.0211 18.9361 19.1746 18.9602C19.2996 18.9797 19.4068 19.0111 19.5365 19.0674C19.5415 19.0696 19.5894 19.0923 19.5879 19.0909C19.6118 19.1032 19.6356 19.1161 19.6589 19.1294C19.7138 19.1608 19.767 19.1952 19.8182 19.2323C19.8397 19.2479 19.8609 19.264 19.8818 19.2805C19.8903 19.2871 19.8986 19.294 19.907 19.3009C19.9107 19.3041 19.9204 19.3126 19.9204 19.3126C19.9679 19.3547 20.0135 19.3988 20.0568 19.4452C20.3771 19.7873 20.5722 20.244 20.6225 20.7104C20.6772 21.2184 20.5325 21.7131 20.3697 22.1995C20.2016 22.7018 19.9851 23.1768 19.723 23.6348C19.4702 24.0767 19.1797 24.4973 18.8569 24.891C18.572 25.2384 18.2646 25.5604 17.9121 25.868C17.7543 26.0055 17.5907 26.1366 17.4207 26.2587C17.3853 26.2841 17.3494 26.3091 17.3135 26.334L17.311 26.3357L17.2844 26.3534C17.2624 26.3679 17.2404 26.3822 17.2183 26.3963C17.1438 26.4438 17.068 26.4894 16.9909 26.5326C16.9168 26.5741 16.8415 26.6134 16.7649 26.6496C16.7306 26.6658 16.6961 26.6814 16.6614 26.6964C16.6435 26.7041 16.6253 26.7112 16.6074 26.719L16.6034 26.7209L16.5897 26.7258C16.5226 26.7508 16.4546 26.7732 16.3853 26.7915C16.3567 26.7993 16.3278 26.8062 16.2987 26.8124C16.2872 26.8149 16.2756 26.817 16.2641 26.8193C16.2591 26.82 16.2541 26.8209 16.2491 26.8215C16.2034 26.8279 16.1575 26.8317 16.1113 26.8328H16.0804C16.0708 26.8321 16.0613 26.8315 16.0517 26.8308C16.0213 26.8282 15.991 26.8244 15.9608 26.8196C15.9308 26.8149 15.9013 26.809 15.8716 26.8028L15.8639 26.8012C15.8467 26.7965 15.8295 26.7921 15.8123 26.7873C15.6701 26.7467 15.5352 26.689 15.4007 26.6278L15.3989 26.627L15.3801 26.6176C15.3612 26.6081 15.3424 26.5984 15.3236 26.5884C15.2851 26.5681 15.2469 26.5472 15.209 26.5255C15.1316 26.4814 15.0557 26.435 14.9809 26.3867C14.8156 26.2798 14.6563 26.1634 14.5026 26.0404C14.4633 26.009 14.4247 25.9772 14.3861 25.9452L14.3676 25.9293Z" fill="#74D1FF" stroke="#00405B" stroke-width="1.4"/>
<path d="M17.4578 8.26698C17.4823 8.50682 17.506 8.74801 17.5596 8.98345C17.642 9.34495 17.7814 9.69053 17.9779 10.0051C18.3108 10.5378 18.8279 10.9636 19.4251 11.1645C20.0007 11.3582 20.6322 11.3621 21.1998 11.1365C21.8444 10.8803 22.3404 10.3809 22.6552 9.76811C22.7702 9.54418 22.8657 9.30874 22.9623 9.07648C23.0696 8.81877 23.1709 8.55848 23.2641 8.29516C23.4515 7.76504 23.609 7.22326 23.7086 6.66935C23.7583 6.3933 23.7926 6.11484 23.8141 5.83516C23.8856 4.849 23.7445 3.81315 23.304 2.92033C23.0891 2.48475 22.8045 2.0781 22.4381 1.7563C22.0974 1.45693 21.6957 1.23618 21.2611 1.10786C20.8453 0.984986 20.3925 0.962563 19.9696 1.06407C19.5392 1.1674 19.1582 1.39799 18.8414 1.70373C18.1949 2.32779 17.8597 3.22804 17.6634 4.08617C17.5463 4.5978 17.4801 5.1202 17.4351 5.64274C17.3849 6.2265 17.372 6.81343 17.3958 7.39885C17.4075 7.68883 17.4283 7.97836 17.4578 8.26698ZM17.8691 4.94642C17.9323 4.51584 18.0232 4.08814 18.1552 3.67316C18.2688 3.31591 18.4568 2.8823 18.6673 2.56565C18.8891 2.23173 19.1539 1.95038 19.4909 1.74555C19.8243 1.54298 20.2231 1.43935 20.6076 1.44966C21.0229 1.46087 21.4104 1.57465 21.7724 1.77221C22.1352 1.97023 22.4445 2.25067 22.6863 2.57929C22.8237 2.76594 22.9229 2.9329 23.0176 3.12744C23.0682 3.23167 23.1146 3.33788 23.1567 3.4459C23.1772 3.49832 23.1967 3.5512 23.2153 3.60438C23.2246 3.63104 23.2337 3.65786 23.2426 3.68468C23.2426 3.68437 23.2459 3.69498 23.2482 3.70195C23.2512 3.7118 23.2609 3.74331 23.2608 3.7427C23.3977 4.19707 23.4646 4.63901 23.4811 5.09081C23.4896 5.32215 23.4844 5.55366 23.4677 5.78455C23.3878 6.82934 23.062 7.84655 22.6607 8.8115C22.5664 9.03815 22.4731 9.26738 22.3621 9.48646C22.2762 9.65614 22.2192 9.74947 22.1098 9.89582C22.0148 10.0229 21.909 10.1422 21.7931 10.2507C21.7794 10.2635 21.7654 10.2761 21.7515 10.2888C21.7507 10.2896 21.7501 10.29 21.7495 10.2907C21.7438 10.2955 21.7382 10.3005 21.7324 10.3053C21.7021 10.331 21.6713 10.3558 21.6398 10.38C21.5801 10.4259 21.5183 10.4691 21.4547 10.5093C21.3944 10.5473 21.3324 10.5828 21.2691 10.6153C21.2377 10.6314 21.2061 10.6468 21.1741 10.6615C21.1582 10.6688 21.1421 10.6759 21.1261 10.6829C21.1192 10.6859 21.1123 10.6887 21.1055 10.6917C21.1035 10.6926 21.102 10.6932 21.1005 10.694C21.1002 10.694 21.1 10.6941 21.0997 10.6943C20.9691 10.7458 20.8341 10.7862 20.6964 10.8143C20.6272 10.8283 20.5572 10.8394 20.4869 10.8473C20.4555 10.8508 20.424 10.8538 20.3925 10.8561C20.3755 10.8573 20.3585 10.8583 20.3416 10.8593C20.3319 10.8597 20.3222 10.8602 20.3125 10.8606C20.1748 10.8627 20.0375 10.8549 19.9011 10.8349C19.8314 10.8246 19.7621 10.8114 19.6934 10.7952C19.6602 10.7873 19.6272 10.7788 19.5943 10.7697C19.5778 10.7652 19.5616 10.7602 19.5451 10.7555C19.5446 10.7555 19.5439 10.7552 19.5428 10.7549C19.5357 10.7526 19.5224 10.7484 19.5198 10.7474C19.3868 10.7024 19.2575 10.6478 19.1336 10.582C19.0698 10.5482 19.0076 10.5117 18.947 10.4726C18.9392 10.4676 18.9315 10.4625 18.9238 10.4573C18.92 10.4546 18.9001 10.4409 18.8947 10.4372C18.8638 10.4153 18.8335 10.3928 18.8036 10.3696C18.6882 10.28 18.5823 10.1802 18.4824 10.0737C18.4785 10.0691 18.4744 10.0646 18.4705 10.0601C18.4585 10.0463 18.4465 10.0322 18.4349 10.0181C18.4096 9.98764 18.3849 9.95673 18.3609 9.92522C18.3155 9.86552 18.2726 9.80386 18.2323 9.74053C18.2118 9.70841 18.1923 9.67554 18.1729 9.64281C18.1714 9.64039 18.1703 9.63857 18.1694 9.63705C18.1682 9.63463 18.1665 9.6316 18.1644 9.62766C18.154 9.60812 18.1434 9.58857 18.1332 9.56888C18.0958 9.49615 18.0614 9.42176 18.0302 9.34601C18.0147 9.30859 18.0002 9.27101 17.9864 9.23299C17.9803 9.21647 17.9746 9.20011 17.9688 9.18344C17.9649 9.17193 17.955 9.14132 17.9538 9.13799C17.9305 9.06072 17.9094 8.98285 17.8917 8.90422C17.8461 8.70165 17.822 8.48894 17.8019 8.28819C17.6904 7.17765 17.7076 6.0512 17.8697 4.94642H17.8691Z" fill="#00405B" stroke="#00405B" stroke-width="1.4"/>
<path d="M31.4033 11.4494C31.4813 10.6458 31.266 9.83275 30.7086 9.23521C30.4561 8.96451 30.139 8.75136 29.7844 8.63936C29.4169 8.52325 29.0192 8.51621 28.644 8.59905C27.8535 8.77378 27.1709 9.27379 26.6025 9.83177C25.9415 10.481 25.3757 11.2424 24.8995 12.0353C24.7753 12.2419 24.6573 12.4522 24.5457 12.6658C24.4479 12.8532 24.3479 13.0411 24.2718 13.2387C24.1592 13.5305 24.0906 13.8446 24.0842 14.158C24.0725 14.7205 24.2497 15.2859 24.6102 15.722C24.9656 16.152 25.4562 16.4365 26.0071 16.5268C26.6341 16.6298 27.2744 16.4427 27.8034 16.1068C28.5689 15.6207 29.3135 15.0746 29.9354 14.4109C30.0943 14.2413 30.2448 14.0635 30.3867 13.8794C30.9214 13.1784 31.3175 12.3339 31.4033 11.4493L31.4033 11.4494ZM27.6281 15.8144C27.5661 15.8539 27.5031 15.8916 27.4384 15.9264C27.4277 15.9322 27.4168 15.9379 27.406 15.9435C27.3991 15.9468 27.378 15.9573 27.3734 15.9595C27.3342 15.9784 27.2946 15.9961 27.2543 16.0129C27.193 16.0385 27.1309 16.0617 27.0679 16.0824C27.0411 16.0911 27.0141 16.0992 26.987 16.1071C26.981 16.1086 26.9592 16.1145 26.9543 16.1158C26.9321 16.1213 26.9096 16.1264 26.8871 16.1313C26.8212 16.1454 26.7545 16.1567 26.6875 16.1648C26.6601 16.1681 26.6327 16.171 26.6052 16.1732C26.5887 16.1746 26.5723 16.1755 26.556 16.1768C26.5553 16.1769 26.5548 16.1768 26.554 16.1769C26.5452 16.1771 26.5364 16.1775 26.5277 16.1776C26.4003 16.1803 26.2727 16.1713 26.147 16.1508C26.1316 16.1481 26.1162 16.1452 26.1009 16.1427C26.0984 16.1423 26.0966 16.1419 26.0948 16.1416C26.0929 16.1411 26.0909 16.1407 26.0883 16.1401C26.058 16.133 26.0278 16.1261 25.9978 16.1181C25.9333 16.1009 25.8697 16.0805 25.8073 16.0571C25.7548 16.0374 25.703 16.0156 25.6524 15.9917C25.6293 15.9809 25.6064 15.9695 25.5839 15.9578C25.5787 15.9548 25.5614 15.9454 25.5583 15.9437C25.5407 15.9337 25.5232 15.9236 25.5057 15.913C25.4017 15.8503 25.3029 15.7786 25.211 15.699C25.165 15.6591 25.1206 15.6172 25.0783 15.5737C25.076 15.5714 25.0626 15.5571 25.0582 15.5527C25.0511 15.5448 25.044 15.537 25.0369 15.529C25.0166 15.506 24.997 15.4827 24.9778 15.4588C24.8971 15.3591 24.8252 15.2521 24.7633 15.1398C24.7358 15.0897 24.7101 15.0388 24.6865 14.9867C24.68 14.9725 24.6738 14.9581 24.6675 14.9438C24.6663 14.9409 24.6653 14.9387 24.6644 14.9367C24.6636 14.9345 24.6626 14.9318 24.6612 14.9282C24.6482 14.8938 24.6349 14.8593 24.623 14.8245C24.5818 14.7028 24.5511 14.5775 24.5312 14.4506C24.521 14.3855 24.5138 14.32 24.5092 14.2544C24.5091 14.2524 24.509 14.2509 24.5088 14.2492C24.5087 14.2479 24.5086 14.246 24.5085 14.2427C24.508 14.2287 24.5074 14.2148 24.507 14.2008C24.506 14.1614 24.506 14.122 24.507 14.0824C24.5103 13.9427 24.5261 13.8033 24.5533 13.6661C24.5676 13.5941 24.5732 13.5702 24.5988 13.4835C24.622 13.4046 24.6488 13.3267 24.679 13.2501C24.7464 13.0788 24.8314 12.9147 24.9171 12.7521C25.34 11.9497 25.8521 11.1891 26.448 10.5053C26.6977 10.2189 26.9641 9.94689 27.2555 9.70272C27.2734 9.68771 27.2914 9.67275 27.3096 9.65785C27.31 9.65752 27.3386 9.63439 27.3448 9.6294C27.3782 9.60316 27.412 9.57727 27.446 9.55191C27.5201 9.49662 27.5957 9.44347 27.6728 9.39265C27.7489 9.34258 27.8265 9.29498 27.9057 9.2502C27.9405 9.2306 27.9756 9.21159 28.011 9.19316C28.0168 9.19041 28.0482 9.17458 28.05 9.17361C28.0766 9.16074 28.1034 9.14827 28.1303 9.13599C28.2035 9.10291 28.2782 9.0726 28.354 9.04557C28.3948 9.03104 28.4359 9.01738 28.4774 9.00468C28.5424 8.9849 28.5226 8.99024 28.5887 8.97518C28.6649 8.95765 28.742 8.94383 28.8197 8.93404C28.9239 8.92102 28.9675 8.91858 29.064 8.92016C29.3973 8.92581 29.7144 9.02376 29.9917 9.20776C30.5766 9.59589 30.9211 10.2604 30.9853 10.9554C31.0588 11.7517 30.7882 12.5642 30.3855 13.2382C30.2785 13.4173 30.1608 13.5896 30.0342 13.7555C29.5207 14.4219 28.8644 14.9698 28.1795 15.4465C27.9981 15.5727 27.8141 15.6953 27.6278 15.8141L27.6281 15.8144Z" fill="#00405B" stroke="#00405B" stroke-width="1.4"/>
<path d="M9.22025 9.09315C9.38963 9.49767 9.55765 9.9075 9.82748 10.2572C10.027 10.5158 10.2712 10.745 10.55 10.9162C11.0707 11.2361 11.7013 11.3623 12.3045 11.2606C12.9302 11.1552 13.5106 10.84 13.933 10.3644C14.1687 10.0992 14.3598 9.79796 14.4931 9.46859C14.6534 9.07255 14.7167 8.66227 14.7587 8.23957C14.8743 7.07418 14.8566 5.89425 14.6786 4.73583C14.5414 3.84392 14.2993 2.9267 13.7776 2.17644C13.5365 1.82964 13.2268 1.51966 12.8562 1.3127C12.4646 1.09393 12.019 0.994691 11.5713 1.01863C10.6385 1.06847 9.78945 1.6045 9.246 2.34794C8.65604 3.15517 8.39423 4.16481 8.35454 5.15293C8.34484 5.39246 8.34969 5.63245 8.36696 5.87153C8.45256 6.98873 8.78936 8.06443 9.22009 9.09315H9.22025ZM9.20737 3.06957C9.23176 3.01972 9.25721 2.97033 9.28373 2.92155C9.28782 2.91412 9.30888 2.87655 9.31009 2.87413C9.32463 2.84913 9.33918 2.82428 9.35418 2.79974C9.41145 2.7058 9.47296 2.61429 9.53841 2.52581C9.57113 2.48172 9.60477 2.43839 9.63946 2.39582C9.64689 2.38673 9.65446 2.37764 9.66189 2.3687C9.66386 2.36628 9.67476 2.3534 9.68067 2.34628C9.68461 2.34173 9.68901 2.33673 9.68931 2.33628C9.70188 2.32219 9.71446 2.30825 9.72734 2.29446C9.7987 2.2175 9.8743 2.14417 9.95338 2.07523C10.2464 1.81979 10.608 1.62162 11.0051 1.51466C11.3722 1.41588 11.7772 1.40482 12.1549 1.50739C12.5269 1.60829 12.8741 1.82888 13.1359 2.0972C13.7265 2.70232 14.021 3.53484 14.1993 4.34601C14.3063 4.8328 14.3666 5.31535 14.4065 5.81789C14.4508 6.3774 14.4612 6.93964 14.4378 7.50052C14.4266 7.77263 14.4078 8.04458 14.3798 8.31562C14.3575 8.53061 14.334 8.74605 14.2859 8.9571C14.2765 8.99861 14.2662 9.03982 14.2551 9.08088C14.2496 9.10118 14.2439 9.12133 14.2381 9.14148C14.2356 9.15042 14.2265 9.17966 14.2231 9.19118C14.2195 9.20194 14.2121 9.22436 14.2098 9.23087C14.2031 9.25011 14.1963 9.26936 14.1892 9.2886C14.1742 9.3292 14.1584 9.36935 14.1418 9.40919C14.1113 9.48192 14.0778 9.55358 14.0416 9.62358C14.0327 9.64085 14.0234 9.65782 14.0144 9.67494C14.0122 9.67888 14.0107 9.68176 14.0094 9.68433C14.0089 9.68524 14.0084 9.68585 14.0078 9.68675C13.9871 9.7219 13.966 9.7569 13.9441 9.79129C13.9021 9.85659 13.8574 9.92023 13.8101 9.98174C13.7892 10.0089 13.7677 10.0357 13.7457 10.062C13.7377 10.0717 13.7297 10.0808 13.7259 10.0851C13.7283 10.0825 13.7326 10.0776 13.7397 10.0699C13.7256 10.0854 13.712 10.101 13.6979 10.1164C13.5991 10.2234 13.4909 10.3182 13.378 10.4097C13.3741 10.4126 13.3703 10.4155 13.3664 10.4184C13.3521 10.4287 13.3379 10.439 13.3233 10.4491C13.2926 10.4706 13.2614 10.4916 13.2296 10.5117C13.1708 10.5491 13.1105 10.584 13.049 10.6164C13.0184 10.6325 12.987 10.6472 12.9561 10.6629C12.9543 10.6638 12.9528 10.6646 12.9514 10.6653C12.9493 10.6662 12.947 10.6673 12.944 10.6685C12.9259 10.6764 12.9079 10.6843 12.8897 10.6918C12.8241 10.7191 12.7573 10.7437 12.6897 10.7653C12.6247 10.7861 12.5588 10.8043 12.4923 10.8197C12.4757 10.8235 12.4591 10.8273 12.4425 10.8308C12.4331 10.8327 12.4178 10.8358 12.4123 10.8368C12.3813 10.8423 12.3501 10.8474 12.3189 10.8517C12.1819 10.8706 12.0433 10.8782 11.9051 10.8738C11.8712 10.8727 11.8372 10.8709 11.8033 10.8685C11.7872 10.8673 11.7713 10.8659 11.7554 10.8644C11.7457 10.8634 11.736 10.8621 11.7265 10.8609C11.6587 10.8524 11.5913 10.8411 11.5245 10.8268C11.3871 10.7976 11.2521 10.7561 11.122 10.7031C11.0935 10.6914 11.0651 10.6791 11.0371 10.6664C11.0338 10.6647 11.0132 10.6552 11.0062 10.6517C10.9882 10.6428 10.9701 10.6335 10.9523 10.6241C10.8868 10.5897 10.8229 10.5522 10.7609 10.5119C10.635 10.43 10.5167 10.3366 10.4074 10.2335C10.3937 10.2205 10.38 10.2073 10.3664 10.194C10.3602 10.1879 10.3585 10.1863 10.3584 10.1863C10.3567 10.1845 10.3534 10.1808 10.3468 10.1742C10.3182 10.1442 10.29 10.1135 10.2626 10.0822C10.2102 10.0223 10.1605 9.96007 10.1135 9.89598C10.012 9.75766 9.92308 9.6104 9.84597 9.45722C9.6231 9.01422 9.43326 8.51576 9.26524 8.03852C9.08889 7.53809 8.94284 7.026 8.84693 6.50376C8.80103 6.25362 8.76921 6.00121 8.74982 5.74774C8.683 4.82628 8.80527 3.89073 9.20767 3.06896L9.20737 3.06957Z" fill="#00405B" stroke="#00405B" stroke-width="1.4"/>
<path d="M13.7262 10.0854C13.7225 10.0896 13.7231 10.0891 13.7262 10.0854V10.0854Z" fill="#00405B" stroke="#00405B" stroke-width="1.4"/>
<path d="M8.47972 15.7151C8.87902 15.3077 9.13252 14.7533 9.17654 14.1841C9.20108 13.8676 9.17268 13.5514 9.08688 13.2453C8.98594 12.8849 8.80325 12.5622 8.60809 12.2454C8.10136 11.4234 7.49627 10.6591 6.81 9.97967C6.25394 9.42922 5.60119 8.91401 4.85092 8.66172C4.50228 8.54446 4.12571 8.48609 3.75902 8.53295C3.37731 8.58172 3.01856 8.73085 2.71751 8.9717C2.07826 9.4831 1.73531 10.279 1.71865 11.0891C1.70041 11.969 2.04637 12.8369 2.54143 13.5514C2.66913 13.7358 2.80898 13.9113 2.95659 14.0799C3.56062 14.7631 4.30424 15.297 5.08385 15.762C5.41186 15.9576 5.74461 16.1649 6.1104 16.2824C6.39242 16.373 6.69328 16.4183 6.98943 16.4C7.55259 16.365 8.08516 16.1179 8.47986 15.7151L8.47972 15.7151ZM7.73327 15.7883C7.71499 15.7964 7.72347 15.7927 7.73327 15.7883V15.7883ZM6.52972 15.9253C6.51596 15.9225 6.50214 15.9196 6.48826 15.9165C6.45366 15.9088 6.4191 15.9003 6.38486 15.8911C6.31436 15.8722 6.24472 15.8499 6.17637 15.8249C6.02512 15.7696 5.88126 15.6989 5.74038 15.6211C4.99445 15.2085 4.26953 14.7446 3.64405 14.1614C3.48774 14.0157 3.33861 13.8626 3.19719 13.7026C2.66377 13.0932 2.24356 12.3392 2.11271 11.5329C2.05311 11.1658 2.05935 10.8149 2.14895 10.452C2.15102 10.445 2.15963 10.4123 2.16021 10.4102C2.16645 10.3889 2.17309 10.3676 2.17992 10.3465C2.19124 10.3113 2.20344 10.2763 2.21629 10.2417C2.23162 10.2001 2.24814 10.1591 2.26566 10.1184C2.27435 10.0981 2.28344 10.078 2.29259 10.058C2.29543 10.052 2.32105 10.0007 2.32004 10.0018C2.35872 9.92849 2.40043 9.85684 2.44622 9.78772C2.46616 9.75758 2.48675 9.72781 2.50813 9.6987C2.54798 9.64404 2.5357 9.65913 2.57945 9.60774C2.79942 9.34909 3.05797 9.15794 3.37471 9.05051C3.68393 8.94554 4.02824 8.935 4.34276 8.9939C5.06122 9.12852 5.69782 9.56931 6.23553 10.0445C6.89329 10.6256 7.46906 11.3069 7.96646 12.0284C8.20057 12.3679 8.43963 12.7199 8.61403 13.0946C8.63981 13.1501 8.65979 13.1976 8.68832 13.2766C8.7152 13.351 8.73876 13.4265 8.75866 13.503C8.77509 13.5659 8.78797 13.6294 8.80043 13.693C8.80118 13.6967 8.80183 13.6997 8.80224 13.7022C8.80247 13.7042 8.80282 13.7065 8.80315 13.7092C8.80563 13.7263 8.8081 13.7434 8.81024 13.7605C8.81537 13.8 8.81935 13.8396 8.82244 13.8794C8.82715 13.9408 8.82961 14.0023 8.82942 14.0639C8.82941 14.0969 8.82824 14.1299 8.82708 14.163C8.82701 14.1644 8.82703 14.1652 8.8269 14.1664C8.82681 14.1681 8.82659 14.1695 8.82641 14.1717C8.82443 14.1934 8.82293 14.215 8.82061 14.2367C8.81397 14.3009 8.80477 14.3648 8.79267 14.4282C8.78767 14.4543 8.78234 14.4805 8.7764 14.5063C8.77292 14.5219 8.76917 14.5372 8.76535 14.5528C8.7644 14.5566 8.76331 14.5606 8.76235 14.5645C8.76184 14.5663 8.76127 14.5681 8.76067 14.5705C8.72388 14.6907 8.67986 14.8065 8.62665 14.9205C8.62657 14.9207 8.62649 14.9209 8.62641 14.9211C8.62627 14.9211 8.62619 14.9213 8.62612 14.9215C8.6188 14.9351 8.61175 14.9489 8.60438 14.9624C8.58956 14.9894 8.57421 15.0161 8.55841 15.0425C8.52415 15.0993 8.48724 15.1547 8.44793 15.2083C8.43921 15.2201 8.38756 15.2849 8.42756 15.2363C8.40824 15.2599 8.38892 15.2835 8.36883 15.3064C8.32545 15.356 8.27974 15.4036 8.23197 15.4491C8.21001 15.4701 8.18753 15.4906 8.16462 15.5105C8.15515 15.5187 8.11867 15.5484 8.12199 15.5462C8.07455 15.583 8.02616 15.6184 7.97594 15.6514C7.92502 15.6848 7.87252 15.716 7.81879 15.7448C7.79413 15.758 7.76903 15.7706 7.74387 15.783C7.74178 15.7839 7.73865 15.7854 7.73551 15.787C7.71828 15.7945 7.70131 15.8022 7.68396 15.8094C7.56693 15.8583 7.44553 15.8963 7.32157 15.9228C7.29329 15.9288 7.26497 15.9343 7.23649 15.9391C7.23327 15.9397 7.20858 15.9433 7.2053 15.9437C7.19436 15.9452 7.18343 15.9466 7.17257 15.9479C7.10306 15.9559 7.0332 15.9605 6.96312 15.9616C6.82892 15.9637 6.6948 15.9531 6.5624 15.9309C6.56152 15.9308 6.53486 15.9257 6.52934 15.9248L6.52972 15.9253Z" fill="#00405B" stroke="#00405B" stroke-width="1.4"/>
</svg>
