<svg width="31" height="30" viewBox="0 0 31 30" fill="none" xmlns="http://www.w3.org/2000/svg">
<path d="M20.0623 26.7627C19.5248 26.7627 18.9873 26.6502 18.5498 26.4377L11.9873 23.1502C11.6123 22.9627 10.8748 22.9752 10.5123 23.1877L7.5623 24.8752C6.2873 25.6002 4.9748 25.7002 3.9873 25.1127C2.9873 24.5377 2.4248 23.3627 2.4248 21.8877V9.73769C2.4248 8.60019 3.1748 7.31269 4.1623 6.75019L9.57481 3.65019C10.4873 3.12519 11.8748 3.08769 12.8123 3.56269L19.3748 6.85019C19.7498 7.03769 20.4748 7.01269 20.8498 6.81269L23.7873 5.13769C25.0623 4.41269 26.3748 4.31269 27.3623 4.90019C28.3623 5.47519 28.9248 6.65019 28.9248 8.12519V20.2877C28.9248 21.4252 28.1748 22.7127 27.1873 23.2752L21.7748 26.3752C21.2998 26.6252 20.6748 26.7627 20.0623 26.7627ZM11.2998 21.1502C11.8373 21.1502 12.3748 21.2627 12.8123 21.4752L19.3748 24.7627C19.7498 24.9502 20.4748 24.9252 20.8498 24.7252L26.2623 21.6252C26.6623 21.4002 27.0498 20.7252 27.0498 20.2752V8.11269C27.0498 7.32519 26.8248 6.73769 26.4123 6.51269C26.0123 6.28769 25.3873 6.37519 24.7123 6.76269L21.7748 8.43769C20.8623 8.96269 19.4748 9.00019 18.5373 8.52519L11.9748 5.23769C11.5998 5.05019 10.8748 5.07519 10.4998 5.27519L5.0873 8.37519C4.6873 8.60019 4.2998 9.27519 4.2998 9.73769V21.9002C4.2998 22.6877 4.5248 23.2752 4.9248 23.5002C5.3248 23.7377 5.9498 23.6377 6.6373 23.2502L9.57481 21.5752C10.0623 21.2877 10.6873 21.1502 11.2998 21.1502Z" fill="#00405B"/>
<path d="M11.2002 22.1875C10.6877 22.1875 10.2627 21.7625 10.2627 21.25V5C10.2627 4.4875 10.6877 4.0625 11.2002 4.0625C11.7127 4.0625 12.1377 4.4875 12.1377 5V21.25C12.1377 21.7625 11.7127 22.1875 11.2002 22.1875Z" fill="#00405B"/>
<path d="M20.1626 25.9379C19.6501 25.9379 19.2251 25.5129 19.2251 25.0004V8.27539C19.2251 7.76289 19.6501 7.33789 20.1626 7.33789C20.6751 7.33789 21.1001 7.76289 21.1001 8.27539V25.0004C21.1001 25.5129 20.6751 25.9379 20.1626 25.9379Z" fill="#00405B"/>
</svg>
