<svg width="32" height="32" viewBox="-0.5 0 32 32" fill="none" xmlns="http://www.w3.org/2000/svg">
<path d="M26.9791 10.5797H4.02104C3.4981 10.5797 3.06445 10.146 3.06445 9.62309C3.06445 9.10016 3.4981 8.6665 4.02104 8.6665H26.9791C27.502 8.6665 27.9357 9.10016 27.9357 9.62309C27.9357 10.146 27.502 10.5797 26.9791 10.5797Z" fill="#00405B"/>
<path d="M26.9791 16.9566H4.02104C3.4981 16.9566 3.06445 16.523 3.06445 16C3.06445 15.4771 3.4981 15.0435 4.02104 15.0435H26.9791C27.502 15.0435 27.9357 15.4771 27.9357 16C27.9357 16.523 27.502 16.9566 26.9791 16.9566Z" fill="#00405B"/>
<path d="M26.9791 23.3341H4.02104C3.4981 23.3341 3.06445 22.9004 3.06445 22.3775C3.06445 21.8546 3.4981 21.4209 4.02104 21.4209H26.9791C27.502 21.4209 27.9357 21.8546 27.9357 22.3775C27.9357 22.9004 27.502 23.3341 26.9791 23.3341Z" fill="#00405B"/>
</svg>
