<svg width="32" height="32" viewBox="0.5 0 32 32" fill="none" xmlns="http://www.w3.org/2000/svg">
<path fill-rule="evenodd" clip-rule="evenodd" d="M16.5 5C15.9477 5 15.5 5.44772 15.5 6C15.5 6.55228 15.9477 7 16.5 7C17.0523 7 17.5 6.55228 17.5 6C17.5 5.44772 17.0523 5 16.5 5ZM13.5 6C13.5 4.34315 14.8432 3 16.5 3C18.1569 3 19.5 4.34315 19.5 6C19.5 6.54582 19.3543 7.05759 19.0995 7.49851C21.6784 8.53043 23.5 11.0521 23.5 13.9996V19C23.5 19.6994 23.8653 20.4951 24.3321 21.1953C24.5546 21.5291 24.7787 21.8093 24.9468 22.0055C25.0304 22.103 25.099 22.1784 25.1451 22.2278C25.1682 22.2525 25.1855 22.2706 25.1962 22.2816L25.207 22.2928C25.4928 22.5788 25.5786 23.0091 25.4239 23.3827C25.2691 23.7564 24.9045 24 24.5 24H20.325C20.4334 24.3116 20.5 24.6469 20.5 25C20.5 27.2091 18.7092 29 16.5 29C14.2909 29 12.5 27.2091 12.5 25C12.5 24.6469 12.5666 24.3116 12.675 24H8.50003C8.09557 24 7.73093 23.7564 7.57615 23.3827C7.4216 23.0096 7.50667 22.5802 7.79163 22.2942L7.79246 22.2934L7.80389 22.2816C7.81456 22.2706 7.83188 22.2525 7.85491 22.2278C7.90103 22.1784 7.96965 22.103 8.05327 22.0055C8.22141 21.8093 8.44542 21.5291 8.66798 21.1953C9.13477 20.4951 9.50003 19.6994 9.50003 19V13.9996C9.50003 11.0521 11.3217 8.53043 13.9005 7.49851C13.6458 7.05759 13.5 6.54582 13.5 6ZM14.9449 24C14.6639 24.3532 14.5 24.7137 14.5 25C14.5 26.1046 15.3955 27 16.5 27C17.6046 27 18.5 26.1046 18.5 25C18.5 24.7137 18.3361 24.3532 18.0551 24H14.9449ZM21.5 19C21.5 20.1446 21.9916 21.2146 22.473 22H10.527C11.0084 21.2146 11.5 20.1446 11.5 19V13.9996C11.5 11.2382 13.7385 9 16.5 9C19.2615 9 21.5 11.2382 21.5 13.9996V19Z" fill="#00405B"/>
</svg>
