<svg width="24" height="21" viewBox="-2 0 24 21" fill="none" xmlns="http://www.w3.org/2000/svg">
<path fill-rule="evenodd" clip-rule="evenodd" d="M5.78077 4.90457C5.83981 4.82193 5.90538 4.72076 5.989 4.58434C6.01953 4.53451 6.10278 4.39622 6.1648 4.29319L6.16494 4.29297L6.23475 4.17713C6.92557 3.03932 7.42775 2.51709 8.33325 2.51709H12.4999V4.19524H8.33325C8.26098 4.19524 8.03367 4.43163 7.65675 5.05243L7.59617 5.15297L7.59596 5.15332C7.53342 5.25722 7.44239 5.40845 7.40731 5.46568C7.30485 5.63284 7.21971 5.76421 7.13376 5.88451C6.76023 6.40738 6.38687 6.71247 5.83325 6.71247H3.33325C2.87301 6.71247 2.49992 7.08813 2.49992 7.55154V15.1032C2.49992 15.5666 2.87301 15.9423 3.33325 15.9423H16.6666C17.1268 15.9423 17.4999 15.5666 17.4999 15.1032V10.0688H19.1666V15.1032C19.1666 16.4934 18.0473 17.6204 16.6666 17.6204H3.33325C1.95254 17.6204 0.833252 16.4934 0.833252 15.1032V7.55154C0.833252 6.16132 1.95254 5.03432 3.33325 5.03432H5.68008C5.70783 5.00238 5.74183 4.95907 5.78077 4.90457ZM14.1665 6.71233V5.03418H15.8332V3.35612H17.4999V5.03418H19.1665V6.71233H17.4999V8.39057H15.8332V6.71233H14.1665ZM9.99988 15.1034C7.69869 15.1034 5.83321 13.2251 5.83321 10.908C5.83321 8.59098 7.69869 6.71265 9.99988 6.71265C12.3011 6.71265 14.1665 8.59098 14.1665 10.908C14.1665 13.2251 12.3011 15.1034 9.99988 15.1034ZM9.99988 13.4252C11.3806 13.4252 12.4999 12.2982 12.4999 10.9079C12.4999 9.51771 11.3806 8.39071 9.99988 8.39071C8.61917 8.39071 7.49988 9.51771 7.49988 10.9079C7.49988 12.2982 8.61917 13.4252 9.99988 13.4252Z" fill="#00405B"/>
</svg>
