<svg width="24" height="24" viewBox="-3 -3 24 24" fill="none" xmlns="http://www.w3.org/2000/svg">
<path d="M12.93 17.0625H5.07001C2.97001 17.0625 1.63501 15.81 1.51501 13.7175L1.12501 7.53C1.06501 6.5925 1.38751 5.6925 2.03251 5.01C2.67001 4.3275 3.57001 3.9375 4.50001 3.9375C4.74001 3.9375 4.97251 3.795 5.08501 3.57L5.62501 2.4975C6.06751 1.62 7.17751 0.9375 8.14501 0.9375H9.86251C10.83 0.9375 11.9325 1.62 12.375 2.49L12.915 3.585C13.0275 3.795 13.2525 3.9375 13.5 3.9375C14.43 3.9375 15.33 4.3275 15.9675 5.01C16.6125 5.7 16.935 6.5925 16.875 7.53L16.485 13.725C16.35 15.8475 15.0525 17.0625 12.93 17.0625ZM8.14501 2.0625C7.59001 2.0625 6.88501 2.4975 6.63001 3L6.09001 4.08C5.77501 4.6875 5.16751 5.0625 4.50001 5.0625C3.87001 5.0625 3.28501 5.3175 2.85001 5.775C2.42251 6.2325 2.20501 6.8325 2.25001 7.455L2.64001 13.65C2.73001 15.165 3.54751 15.9375 5.07001 15.9375H12.93C14.445 15.9375 15.2625 15.165 15.36 13.65L15.75 7.455C15.7875 6.8325 15.5775 6.2325 15.15 5.775C14.715 5.3175 14.13 5.0625 13.5 5.0625C12.8325 5.0625 12.225 4.6875 11.91 4.095L11.3625 3C11.115 2.505 10.41 2.07 9.85501 2.07H8.14501V2.0625Z" fill="#00405B"/>
<path d="M10.125 6.5625H7.875C7.5675 6.5625 7.3125 6.3075 7.3125 6C7.3125 5.6925 7.5675 5.4375 7.875 5.4375H10.125C10.4325 5.4375 10.6875 5.6925 10.6875 6C10.6875 6.3075 10.4325 6.5625 10.125 6.5625Z" fill="#00405B"/>
<path d="M9 14.0625C7.3425 14.0625 6 12.72 6 11.0625C6 9.405 7.3425 8.0625 9 8.0625C10.6575 8.0625 12 9.405 12 11.0625C12 12.72 10.6575 14.0625 9 14.0625ZM9 9.1875C7.965 9.1875 7.125 10.0275 7.125 11.0625C7.125 12.0975 7.965 12.9375 9 12.9375C10.035 12.9375 10.875 12.0975 10.875 11.0625C10.875 10.0275 10.035 9.1875 9 9.1875Z" fill="#00405B"/>
</svg>
