<svg width="24" height="25" viewBox="0 0 24 25" fill="none" xmlns="http://www.w3.org/2000/svg">
<path d="M15 23.1421H9C3.57 23.1421 1.25 20.8221 1.25 15.3921V9.39209C1.25 3.96209 3.57 1.64209 9 1.64209H15C20.43 1.64209 22.75 3.96209 22.75 9.39209V15.3921C22.75 20.8221 20.43 23.1421 15 23.1421ZM9 3.14209C4.39 3.14209 2.75 4.78209 2.75 9.39209V15.3921C2.75 20.0021 4.39 21.6421 9 21.6421H15C19.61 21.6421 21.25 20.0021 21.25 15.3921V9.39209C21.25 4.78209 19.61 3.14209 15 3.14209H9Z" fill="#B77EFF"/>
<path d="M9 11.1421C7.48 11.1421 6.25 9.91209 6.25 8.39209C6.25 6.87209 7.48 5.64209 9 5.64209C10.52 5.64209 11.75 6.87209 11.75 8.39209C11.75 9.91209 10.52 11.1421 9 11.1421ZM9 7.14209C8.31 7.14209 7.75 7.70209 7.75 8.39209C7.75 9.08209 8.31 9.64209 9 9.64209C9.69 9.64209 10.25 9.08209 10.25 8.39209C10.25 7.70209 9.69 7.14209 9 7.14209Z" fill="#B77EFF"/>
<path d="M2.66977 20.0921C2.42977 20.0921 2.18977 19.9721 2.04977 19.7621C1.81977 19.4221 1.90977 18.9521 2.25977 18.7221L7.18977 15.4121C8.26977 14.6821 9.75977 14.7721 10.7398 15.6021L11.0698 15.8921C11.5698 16.3221 12.4198 16.3221 12.9098 15.8921L17.0698 12.3221C18.1298 11.4121 19.7998 11.4121 20.8698 12.3221L22.4998 13.7221C22.8098 13.9921 22.8498 14.4621 22.5798 14.7821C22.3098 15.0921 21.8398 15.1321 21.5198 14.8621L19.8898 13.4621C19.3898 13.0321 18.5398 13.0321 18.0398 13.4621L13.8798 17.0321C12.8198 17.9421 11.1498 17.9421 10.0798 17.0321L9.74977 16.7421C9.28977 16.3521 8.52977 16.3121 8.01977 16.6621L3.08977 19.9721C2.95977 20.0521 2.80977 20.0921 2.66977 20.0921Z" fill="#B77EFF"/>
</svg>
