<svg width="33" height="28" viewBox="0 0 33 28" fill="none" xmlns="http://www.w3.org/2000/svg">
<path fill-rule="evenodd" clip-rule="evenodd" d="M9.00607 0.799805C9.26069 0.799805 9.64264 0.970127 9.85483 1.18303C10.067 1.37464 10.2368 1.67271 10.2156 1.82174C10.2156 1.94948 9.87605 2.82239 9.43045 3.71658C8.79388 5.12174 8.66656 5.54755 8.75144 6.46303C8.81509 7.16561 8.98485 7.74045 9.26069 8.03851C9.4941 8.294 10.067 8.69852 10.5338 8.93271C11.2977 9.31594 11.7221 9.35851 15.1384 9.27335C18.8305 9.20948 18.9153 9.20948 19.4246 8.67722C19.7005 8.37916 20.3795 6.88884 20.9524 5.27077C21.7587 3.03529 22.1406 2.22626 22.7136 1.65142C23.3713 0.991418 23.6048 0.906256 24.8567 0.842385C25.7479 0.778514 26.4905 0.863676 26.9786 1.05529C27.3817 1.22561 27.9971 1.73658 28.3578 2.16239C28.7185 2.60948 29.2702 3.26948 29.631 3.65271C29.9917 4.03593 30.7343 4.48303 31.3921 4.69593C32.0075 4.88755 32.5592 5.22819 32.6228 5.41981C32.7077 5.63271 32.6653 6.14368 32.538 6.54819C32.4106 6.95271 31.9226 7.65529 31.4558 8.0811C30.9678 8.52819 30.2251 8.97529 29.8007 9.10303C29.3551 9.20948 28.6973 9.31593 28.3578 9.31593C27.9971 9.31593 27.5939 9.44368 27.4454 9.57142C27.2544 9.76303 27.1908 10.7424 27.1908 12.7224C27.1908 15.1921 27.1271 15.7243 26.7664 16.4482C26.3844 17.2146 26.342 17.7256 26.3208 25.1772L26.8725 25.4327C27.1695 25.5817 27.4666 25.9224 27.5303 26.1779C27.6151 26.4546 27.6151 26.7953 27.5303 26.923C27.4454 27.1146 26.7027 27.1998 24.9628 27.1998C23.3077 27.1998 22.3316 27.1146 21.9497 26.9017C21.6102 26.7527 21.2282 26.3695 21.1009 26.0501C20.9099 25.6882 20.8251 24.4959 20.8251 19.9611L19.8278 19.8334C19.2549 19.7482 18.6183 19.6205 18.3849 19.5353C18.0666 19.4288 17.6846 19.6205 16.7934 20.3656C16.1569 20.8979 15.2657 21.5579 14.8413 21.8346C14.0562 22.303 14.035 22.3243 14.035 23.623C14.0138 24.8579 14.0774 24.9856 14.5654 25.2198C14.8625 25.3688 15.2445 25.7308 15.4142 26.0288C15.584 26.3269 15.6901 26.7101 15.6264 26.8805C15.5415 27.1359 15.1596 27.1998 13.9289 27.1998C12.9952 27.1998 12.104 27.0721 11.7433 26.9017C11.425 26.7527 11.0431 26.3695 10.9158 26.0501C10.7248 25.6882 10.6399 24.4534 10.6399 19.5353H9.89727C9.26069 19.5353 9.17582 19.5992 9.26069 19.9611C9.32435 20.1953 9.23948 20.4508 9.11216 20.5146C8.96363 20.5785 8.73022 20.5359 8.62412 20.4082C8.48266 20.2663 8.49681 20.103 8.66656 19.9185C8.85753 19.7056 8.66656 19.6205 7.71171 19.4927C7.05392 19.4075 6.24759 19.2798 5.92931 19.2159C5.42005 19.1308 5.22908 19.2372 4.61373 20.1101C3.95594 21.0256 3.9135 21.1746 4.18935 21.5579C4.3591 21.7921 4.48642 22.2179 4.48642 22.5159C4.48642 22.814 4.38032 23.2185 4.23179 23.4314C3.97716 23.7934 3.84984 23.7508 2.5767 22.8353C1.81282 22.303 1.09137 21.6643 0.942839 21.4088C0.794306 21.1321 0.666992 20.685 0.666992 20.3869C0.666992 20.0463 1.23991 19.0243 2.21598 17.6192C3.40425 15.9159 4.08325 15.1921 4.97445 14.5746C5.65346 14.1488 6.75685 13.2121 8.73022 11.2321L8.11487 10.5295C7.77536 10.1675 7.28733 9.42239 7.0327 8.89013C6.75685 8.35787 6.50222 7.39981 6.43857 6.7611C6.37491 5.93077 6.45978 5.16432 6.77807 4.0998C7.01148 3.26948 7.52074 2.20497 7.86024 1.694C8.30584 1.09787 8.66656 0.799805 9.00607 0.799805ZM7.43586 4.95142C7.30855 5.54755 7.24489 6.42045 7.32976 6.93142C7.39342 7.4211 7.64805 8.20884 7.88146 8.67722C8.11487 9.14561 8.64534 9.86948 9.0485 10.274C9.62142 10.8488 9.74873 11.1043 9.6002 11.4024C9.4941 11.594 8.709 12.4456 7.86024 13.2546C6.99026 14.085 5.86565 15.0217 5.33518 15.3624C4.8047 15.6817 4.14691 16.3205 3.84984 16.7463C3.55278 17.1721 2.89499 18.0875 2.38573 18.7901C1.66429 19.8121 1.49453 20.1953 1.60063 20.6637C1.68551 21.0256 2.06745 21.4514 2.6828 21.8772C3.21327 22.2392 3.63765 22.4734 3.63765 22.4095C3.63765 22.3456 3.4679 22.0263 3.27693 21.6643L2.89499 21.0469C4.55007 18.705 5.05933 18.045 5.12299 18.045C5.18664 18.045 5.71712 18.194 6.29003 18.3643C6.88416 18.5559 7.98755 18.6837 8.79388 18.6837C9.79117 18.6837 10.4702 18.5559 11.0643 18.2579C11.5311 18.0237 11.9555 17.7256 12.0192 17.6192C12.0828 17.5127 12.7406 17.4063 13.5045 17.4063C14.5018 17.4063 15.393 17.5766 16.751 18.0663C17.7695 18.4282 19.2761 18.854 20.0824 18.9817L21.5677 19.2372C21.7799 25.4327 21.8224 25.7734 22.2043 26.0501C22.4377 26.2205 23.0318 26.3482 23.5411 26.3482C24.0291 26.3482 24.4323 26.3056 24.4323 26.2417C24.4323 26.1779 24.1989 26.0501 23.9018 25.9224L23.3713 25.7095V18.5772C24.9203 17.4275 25.5993 16.7463 25.854 16.3417C26.2359 15.7882 26.3632 15.2985 26.342 14.4256C26.342 13.7656 26.2359 13.1482 26.0874 12.9779C25.854 12.765 25.854 12.6798 26.0874 12.4456C26.2359 12.3179 26.342 11.8708 26.342 11.4875C26.342 10.8063 26.342 10.8063 25.7691 11.1256C25.4296 11.2959 24.9628 11.445 24.7081 11.445C24.4323 11.445 23.923 11.2746 23.5835 11.0617C23.2228 10.8701 22.7772 10.3592 22.5862 9.95464C22.3953 9.55013 22.1831 8.7198 22.1406 8.14497C22.077 7.52755 22.1831 6.56948 22.3953 5.84561C22.6075 5.05787 22.8409 4.63206 23.0531 4.63206C23.2228 4.63206 23.4138 4.73851 23.4774 4.84497C23.5411 4.95142 23.435 5.46239 23.2652 5.97335C23.0743 6.46303 22.947 7.25077 22.947 7.71916C22.947 8.18755 23.1379 8.97529 23.3713 9.48626C23.626 10.0398 23.9867 10.423 24.2838 10.5082C24.5384 10.5721 24.9415 10.5721 25.175 10.5295C25.4084 10.4656 25.7691 10.0398 26.0025 9.59271C26.2996 8.97529 26.3844 8.5069 26.2996 7.61271C26.2359 6.974 25.9388 5.82432 25.6418 5.05787C25.2598 4.0998 25.1537 3.61013 25.3023 3.4611C25.4508 3.31206 25.663 3.41851 25.9388 3.78045C26.1723 4.07851 26.5542 4.93013 26.7876 5.69658C27.021 6.46303 27.1908 7.4211 27.1908 7.82561V8.57077C29.1641 8.31529 30.0129 8.10239 30.3736 7.93206C30.7343 7.76174 31.0951 7.4211 31.2224 7.1869C31.3709 6.88884 31.3497 6.56948 31.2012 6.18626C31.0526 5.82432 30.5434 5.35593 29.928 5.01529C29.2349 4.61787 28.6832 4.08561 28.2729 3.41851C27.891 2.7798 27.3605 2.24755 26.8937 2.03464C26.4693 1.82174 25.7054 1.65142 25.175 1.65142C24.6445 1.65142 24.0079 1.75787 23.7533 1.86432C23.4774 1.99206 23.1379 2.26884 23.0106 2.50303C22.8621 2.73722 22.2467 4.24884 21.6526 5.8669C21.0372 7.46368 20.4643 8.89013 20.3795 8.99658C20.2734 9.10303 20.2309 9.37981 20.2946 9.59271C20.3582 9.78432 20.2734 10.0185 20.1461 10.0824C19.9975 10.1463 19.7853 10.1037 19.658 9.99722C19.5095 9.84819 19.2336 9.84819 18.8093 9.97593C18.4485 10.0824 16.6025 10.1675 14.6715 10.1675C11.2553 10.1675 11.1492 10.1675 10.0246 9.59271C9.38801 9.25206 8.66656 8.71981 8.43315 8.40045C8.07243 7.91077 7.98755 7.48497 7.98755 6.16497C8.00877 4.73851 8.09365 4.35529 8.66656 3.24819C9.0485 2.54561 9.28191 1.9069 9.19704 1.80045C9.11216 1.71529 8.98485 1.65142 8.92119 1.65142C8.83632 1.65142 8.53925 2.16239 8.24218 2.7798C7.94512 3.37593 7.58439 4.37658 7.43586 4.95142ZM11.4887 22.303C11.4887 25.2198 11.5311 25.5392 11.9131 25.9224C12.2314 26.2417 12.6133 26.3482 13.5045 26.3482C14.2047 26.3482 14.6291 26.263 14.5654 26.1353C14.5018 26.0075 14.1835 25.8798 13.8228 25.8159L13.1862 25.7095V21.8772C15.881 19.9824 16.6874 19.3224 16.7298 19.2159C16.7722 19.1095 16.3054 18.8327 15.6901 18.6411C15.0747 18.4282 14.0986 18.2579 13.5045 18.2579C12.7618 18.2792 12.295 18.3856 11.9767 18.6837C11.5099 19.0882 11.4887 19.2585 11.4887 22.303ZM24.114 18.9392C24.1989 24.0488 24.305 25.2837 24.4323 25.2837C24.5596 25.2837 24.8779 25.5179 25.175 25.8159C25.4932 26.1353 25.8964 26.3269 26.1935 26.2843C26.6391 26.2205 26.6391 26.1992 26.0874 25.965L25.4932 25.7095C25.4932 19.9398 25.4296 18.2579 25.3447 18.2792C25.2386 18.2792 24.9415 18.4282 24.6445 18.6198L24.114 18.9392ZM7.88146 21.0043C7.98755 21.0043 8.13609 21.1534 8.19974 21.3237C8.2634 21.5153 8.15731 21.7282 7.98755 21.8134C7.8178 21.8985 7.58439 21.8985 7.49952 21.8134C7.41464 21.7282 7.41464 21.5153 7.49952 21.3237C7.58439 21.1534 7.75414 21.0043 7.88146 21.0043ZM7.0327 22.4946C7.16001 22.4946 7.30854 22.6224 7.3722 22.7714C7.43586 22.9205 7.39342 23.1334 7.26611 23.2398C7.1105 23.3817 6.95489 23.3817 6.79929 23.2398C6.67197 23.1334 6.62954 22.9205 6.69319 22.7714C6.77807 22.6224 6.9266 22.4946 7.0327 22.4946ZM6.60832 24.1979C6.73563 24.1979 6.86295 24.283 6.90538 24.3682C6.96904 24.4534 6.9266 24.6663 6.82051 24.8366C6.69319 25.0708 6.54466 25.0921 6.37491 24.943C6.24759 24.8366 6.20516 24.6237 6.26881 24.4746C6.35369 24.3256 6.50222 24.1979 6.60832 24.1979ZM6.39613 25.9011C6.52344 25.9011 6.67197 26.0288 6.73563 26.1779C6.79929 26.3269 6.75685 26.5398 6.62954 26.6463C6.47393 26.7882 6.31832 26.7882 6.16272 26.6463C6.0354 26.5398 5.99297 26.3269 6.05662 26.1779C6.1415 26.0288 6.29003 25.9011 6.39613 25.9011ZM28.1244 4.24884C28.2517 4.29142 28.3578 4.46174 28.3578 4.63206C28.3578 4.80239 28.1881 4.95142 27.9759 4.994C27.7849 5.01529 27.5939 4.90884 27.5727 4.7598C27.5515 4.61077 27.6151 4.41916 27.7212 4.334C27.8273 4.24884 27.9971 4.20626 28.1244 4.24884ZM20.8251 10.5721C20.9524 10.5721 21.1009 10.6998 21.1646 10.8488C21.2282 10.9979 21.1858 11.2108 21.0585 11.3172C20.9029 11.4592 20.7473 11.4592 20.5917 11.3172C20.4643 11.2108 20.4219 10.9979 20.4856 10.8488C20.5704 10.6998 20.719 10.5721 20.8251 10.5721ZM22.0982 11.4237C22.2255 11.4237 22.374 11.5514 22.4377 11.7005C22.5014 11.8495 22.4589 12.0624 22.3316 12.1688C22.176 12.3108 22.0204 12.3108 21.8648 12.1688C21.7375 12.0624 21.695 11.8495 21.7587 11.7005C21.8436 11.5514 21.9921 11.4237 22.0982 11.4237ZM23.3713 12.2753C23.4987 12.2753 23.6472 12.403 23.7108 12.5521C23.7745 12.7011 23.7321 12.914 23.6047 13.0205C23.4491 13.1624 23.2935 13.1624 23.1379 13.0205C23.0106 12.914 22.9682 12.7011 23.0318 12.5521C23.1167 12.403 23.2652 12.2753 23.3713 12.2753ZM25.0689 12.7011C25.1962 12.7011 25.3447 12.8288 25.4084 12.9779C25.472 13.1269 25.4296 13.3398 25.3023 13.4463C25.1467 13.5882 24.9911 13.5882 24.8355 13.4463C24.7081 13.3398 24.6657 13.1269 24.7294 12.9779C24.8142 12.8288 24.9628 12.7011 25.0689 12.7011Z" fill="#544864" stroke="#544864" stroke-width="0.5"/>
</svg>
