<svg width="24" height="24" viewBox="-3 -3 24 24" fill="none" xmlns="http://www.w3.org/2000/svg">
<path d="M9.09961 0C9.37575 3.29296e-09 9.59961 0.223858 9.59961 0.5V1.71387C13.1598 2.00289 15.9971 4.84017 16.2861 8.40039H17.5C17.7761 8.40039 18 8.62425 18 8.90039C17.9998 9.17634 17.776 9.40039 17.5 9.40039H16.3008C16.1036 13.0535 13.226 15.9907 9.59961 16.2852V17.5C9.59961 17.7761 9.37575 18 9.09961 18C8.82358 17.9999 8.59961 17.7761 8.59961 17.5V16.3008C4.87983 16.1 1.89997 13.1202 1.69922 9.40039H0.5C0.223939 9.40039 0.000131897 9.17642 0 8.90039C0 8.62425 0.223858 8.40039 0.5 8.40039H1.71387C2.00827 4.77395 4.94649 1.89537 8.59961 1.69824V0.5C8.59961 0.223985 8.82364 0.000206074 9.09961 0ZM8.59961 2.7002C5.49896 2.89428 3.00546 5.3266 2.71582 8.40039H4C4.27614 8.40039 4.5 8.62425 4.5 8.90039C4.49987 9.17642 4.27606 9.40039 4 9.40039H2.70117C2.89945 12.5677 5.43232 15.1005 8.59961 15.2988V14C8.59961 13.7239 8.82358 13.5001 9.09961 13.5C9.37575 13.5 9.59961 13.7239 9.59961 14V15.2832C12.6733 14.9935 15.1047 12.501 15.2988 9.40039H14C13.724 9.40039 13.5002 9.17634 13.5 8.90039C13.5 8.62425 13.7239 8.40039 14 8.40039H15.2842C15.0008 5.39271 12.6073 2.99923 9.59961 2.71582V4C9.59961 4.27614 9.37575 4.5 9.09961 4.5C8.82364 4.49979 8.59961 4.27602 8.59961 4V2.7002ZM9 7.125C10.0355 7.125 10.875 7.96447 10.875 9C10.875 10.0355 10.0355 10.875 9 10.875C7.96447 10.875 7.125 10.0355 7.125 9C7.125 7.96447 7.96447 7.125 9 7.125Z" fill="#00405B"/>
</svg>
