<svg width="24" height="20" viewBox="-1.5 0 24 20" fill="none" xmlns="http://www.w3.org/2000/svg">
<path d="M9.64431 2.5332H3.65543C3.31126 2.5332 3.0332 2.81126 3.0332 3.15543V9.14431C3.0332 9.22987 3.1032 9.29987 3.18876 9.29987H9.64431C9.72987 9.29987 9.79987 9.22987 9.79987 9.14431V2.68876C9.79987 2.6032 9.72987 2.5332 9.64431 2.5332ZM8.55543 8.05543H4.27765V3.77765H8.55543V8.05543ZM5.87209 6.61654H6.96098C7.04654 6.61654 7.11654 6.54654 7.11654 6.46098V5.37209C7.11654 5.28654 7.04654 5.21654 6.96098 5.21654H5.87209C5.78654 5.21654 5.71654 5.28654 5.71654 5.37209V6.46098C5.71654 6.54654 5.78654 6.61654 5.87209 6.61654ZM9.64431 10.6999H3.18876C3.1032 10.6999 3.0332 10.7699 3.0332 10.8554V16.8443C3.0332 17.1885 3.31126 17.4665 3.65543 17.4665H9.64431C9.72987 17.4665 9.79987 17.3965 9.79987 17.311V10.8554C9.79987 10.7699 9.72987 10.6999 9.64431 10.6999ZM8.55543 16.2221H4.27765V11.9443H8.55543V16.2221ZM5.87209 14.7832H6.96098C7.04654 14.7832 7.11654 14.7132 7.11654 14.6276V13.5388C7.11654 13.4532 7.04654 13.3832 6.96098 13.3832H5.87209C5.78654 13.3832 5.71654 13.4532 5.71654 13.5388V14.6276C5.71654 14.7132 5.78654 14.7832 5.87209 14.7832ZM17.3443 2.5332H11.3554C11.2699 2.5332 11.1999 2.6032 11.1999 2.68876V9.14431C11.1999 9.22987 11.2699 9.29987 11.3554 9.29987H17.811C17.8965 9.29987 17.9665 9.22987 17.9665 9.14431V3.15543C17.9665 2.81126 17.6885 2.5332 17.3443 2.5332ZM16.7221 8.05543H12.4443V3.77765H16.7221V8.05543ZM14.0388 6.61654H15.1276C15.2132 6.61654 15.2832 6.54654 15.2832 6.46098V5.37209C15.2832 5.28654 15.2132 5.21654 15.1276 5.21654H14.0388C13.9532 5.21654 13.8832 5.28654 13.8832 5.37209V6.46098C13.8832 6.54654 13.9532 6.61654 14.0388 6.61654ZM17.811 10.6999H16.8776C16.7921 10.6999 16.7221 10.7699 16.7221 10.8554V13.461H15.2054V10.8554C15.2054 10.7699 15.1354 10.6999 15.0499 10.6999H11.3554C11.2699 10.6999 11.1999 10.7699 11.1999 10.8554V17.311C11.1999 17.3965 11.2699 17.4665 11.3554 17.4665H12.2888C12.3743 17.4665 12.4443 17.3965 12.4443 17.311V12.5665H13.961V14.5499C13.961 14.6354 14.031 14.7054 14.1165 14.7054H17.811C17.8965 14.7054 17.9665 14.6354 17.9665 14.5499V10.8554C17.9665 10.7699 17.8965 10.6999 17.811 10.6999ZM15.0499 16.2221H14.1165C14.031 16.2221 13.961 16.2921 13.961 16.3776V17.311C13.961 17.3965 14.031 17.4665 14.1165 17.4665H15.0499C15.1354 17.4665 15.2054 17.3965 15.2054 17.311V16.3776C15.2054 16.2921 15.1354 16.2221 15.0499 16.2221ZM17.811 16.2221H16.8776C16.7921 16.2221 16.7221 16.2921 16.7221 16.3776V17.311C16.7221 17.3965 16.7921 17.4665 16.8776 17.4665H17.811C17.8965 17.4665 17.9665 17.3965 17.9665 17.311V16.3776C17.9665 16.2921 17.8965 16.2221 17.811 16.2221Z" fill="#00405B"/>
</svg>
