<svg width="41" height="40" viewBox="0 0 41 40" fill="none" xmlns="http://www.w3.org/2000/svg">
<path d="M8.28867 39.7149C7.50068 40.2923 6.43743 39.5133 6.75035 38.5879L11.1069 25.7044C11.2521 25.2751 11.0904 24.8019 10.7129 24.5511L0.672389 17.8813C-0.152464 17.3334 0.235453 16.0484 1.22571 16.0484H13.5622C13.9917 16.0484 14.3733 15.7741 14.5101 15.3669L19.3332 1.01338C19.6385 0.104743 20.9237 0.104741 21.229 1.01338L26.0521 15.3669C26.1889 15.7741 26.5705 16.0484 27 16.0484H39.3365C40.3267 16.0484 40.7146 17.3334 39.8898 17.8813L29.8458 24.5534C29.47 24.8031 29.3079 25.2736 29.4502 25.7018L33.7349 38.5933C34.0427 39.5193 32.9777 40.2927 32.1924 39.7135L20.8727 31.3647C20.5207 31.1051 20.0409 31.1044 19.6881 31.3628L8.28867 39.7149Z" fill="#7D16FF"/>
</svg>