<svg width="21" height="21" viewBox="0 0 21 21" fill="none" xmlns="http://www.w3.org/2000/svg">
<path d="M5.13243 20.1305C4.34444 20.7079 3.28119 19.9289 3.59411 19.0035L5.44086 13.5422C5.58602 13.1129 5.42436 12.6397 5.04688 12.3889L1.01272 9.70907C0.187866 9.16113 0.575784 7.87611 1.56605 7.87611H6.58759C7.01713 7.87611 7.39869 7.60179 7.53551 7.19462L9.67718 0.820997C9.98251 -0.0876433 11.2677 -0.0876415 11.573 0.820998L13.7147 7.19463C13.8515 7.60179 14.2331 7.87611 14.6626 7.87611H19.6842C20.6744 7.87611 21.0623 9.16113 20.2375 9.70907L16.1999 12.3912C15.824 12.6409 15.6619 13.1113 15.8042 13.5396L17.6221 19.0089C17.9299 19.9349 16.8649 20.7083 16.0796 20.1291L11.2167 16.5425C10.8647 16.2829 10.3849 16.2822 10.0321 16.5407L5.13243 20.1305ZM6.65238 14.8145C6.31308 15.7508 7.40161 16.5535 8.19585 15.9527L10.0218 14.5714C10.3787 14.3014 10.8715 14.3014 11.2284 14.5714L13.0543 15.9527C13.8486 16.5535 14.9371 15.7508 14.5978 14.8145L13.9226 12.9512C13.764 12.5135 13.9284 12.0243 14.3191 11.7712L15.4846 11.0163C16.3207 10.4747 15.9372 9.17699 14.9409 9.17699H13.447C13.0147 9.17699 12.6314 8.89924 12.4967 8.48848L11.5694 5.6594C11.269 4.7432 9.97381 4.74077 9.67005 5.65585L8.72857 8.49204C8.59282 8.90098 8.21039 9.17699 7.7795 9.17699H6.28847C5.28954 9.17699 4.90794 10.4803 5.74915 11.0191L6.92532 11.7724C7.31897 12.0245 7.48544 12.5157 7.32617 12.9552L6.65238 14.8145Z" fill="#00405B"/>
</svg>
