<svg width="41" height="40" viewBox="0 0 41 40" fill="none" xmlns="http://www.w3.org/2000/svg">
<path d="M8.28867 39.7149C7.50068 40.2923 6.43743 39.5133 6.75035 38.5879L11.1069 25.7044C11.2521 25.2751 11.0904 24.8019 10.7129 24.5511L0.672389 17.8813C-0.152464 17.3334 0.235453 16.0484 1.22571 16.0484H13.5622C13.9917 16.0484 14.3733 15.7741 14.5101 15.3669L19.3332 1.01338C19.6385 0.104743 20.9237 0.104741 21.229 1.01338L26.0521 15.3669C26.1889 15.7741 26.5705 16.0484 27 16.0484H39.3365C40.3267 16.0484 40.7146 17.3334 39.8898 17.8813L29.8458 24.5534C29.47 24.8031 29.3079 25.2736 29.4502 25.7018L33.7349 38.5933C34.0427 39.5193 32.9777 40.2927 32.1924 39.7135L20.8727 31.3647C20.5207 31.1051 20.0409 31.1044 19.6881 31.3628L8.28867 39.7149ZM12.1683 31.1597C11.829 32.096 12.9175 32.8988 13.7117 32.298L19.6778 27.7848C20.0347 27.5148 20.5275 27.5148 20.8844 27.7848L26.8504 32.298C27.6447 32.8988 28.7332 32.096 28.3939 31.1597L26.024 24.6201C25.8654 24.1824 26.0298 23.6931 26.4206 23.44L31.3614 20.2397C32.1976 19.6981 31.8141 18.4004 30.8178 18.4004H24.7976C24.3654 18.4004 23.982 18.1226 23.8474 17.7119L21.2254 9.71303C20.925 8.79682 19.6298 8.7944 19.326 9.70947L16.6685 17.7154C16.5327 18.1244 16.1503 18.4004 15.7194 18.4004H9.68067C8.68174 18.4004 8.30015 19.7037 9.14135 20.2425L14.1359 23.4412C14.5295 23.6933 14.696 24.1845 14.5367 24.624L12.1683 31.1597Z" fill="#E0DBFF"/>
</svg>
