<svg width="32" height="32" viewBox="0 0 32 32" fill="none" xmlns="http://www.w3.org/2000/svg">
<path d="M7.29321 14.3332C6.34655 14.3332 5.38655 13.9865 4.65321 13.2798C2.19988 10.9465 1.21321 8.39984 1.78655 5.9065C2.46655 2.97317 5.03988 1.6665 7.29321 1.6665C9.54655 1.6665 12.1332 2.9865 12.7999 5.9065C13.3732 8.39984 12.3732 10.9465 9.93321 13.2798C9.19988 13.9865 8.25321 14.3332 7.29321 14.3332ZM3.73321 6.35984C3.22655 8.5865 4.70655 10.5598 6.03988 11.8265C6.74655 12.5065 7.85321 12.4932 8.55988 11.8265C9.89322 10.5598 11.3732 8.5865 10.8532 6.3465C10.3999 4.37317 8.65321 3.6665 7.30655 3.6665C5.94655 3.6665 4.19988 4.37317 3.73321 6.35984Z" fill="#544864"/>
<path d="M7.34652 8.26676C6.61318 8.26676 6.01318 7.66676 6.01318 6.93343C6.01318 6.2001 6.59985 5.6001 7.34652 5.6001H7.35985C8.09318 5.6001 8.69318 6.2001 8.69318 6.93343C8.69318 7.66676 8.09318 8.26676 7.34652 8.26676Z" fill="#544864"/>
<path d="M24.6533 30.3333C23.7067 30.3333 22.7467 29.9867 22 29.28C19.5333 26.9467 18.5333 24.4 19.12 21.8933C19.8 18.9733 22.3867 17.6533 24.6533 17.6533C26.92 17.6533 29.5067 18.9733 30.1867 21.8933C30.76 24.3867 29.76 26.9467 27.2933 29.2667C26.56 29.9867 25.6133 30.3333 24.6533 30.3333ZM24.6533 19.6667C23.2933 19.6667 21.5333 20.3733 21.0667 22.36C20.5467 24.5867 22.04 26.5733 23.3733 27.84C24.08 28.52 25.2 28.52 25.92 27.84C27.2533 26.5733 28.7467 24.6 28.2267 22.3733C27.7867 20.3733 26.0267 19.6667 24.6533 19.6667Z" fill="#544864"/>
<path d="M24.7069 24.2668C23.9735 24.2668 23.3735 23.6668 23.3735 22.9334C23.3735 22.2001 23.9602 21.6001 24.7069 21.6001H24.7202C25.4535 21.6001 26.0535 22.2001 26.0535 22.9334C26.0535 23.6668 25.4402 24.2668 24.7069 24.2668Z" fill="#544864"/>
<path d="M15.9998 26.3332H12.4264C10.8798 26.3332 9.53309 25.3998 8.99976 23.9598C8.45309 22.5198 8.85309 20.9332 10.0131 19.9065L20.6664 10.5865C21.3064 10.0265 21.3198 9.2665 21.1331 8.7465C20.9331 8.2265 20.4264 7.6665 19.5731 7.6665H15.9998C15.4531 7.6665 14.9998 7.21317 14.9998 6.6665C14.9998 6.11984 15.4531 5.6665 15.9998 5.6665H19.5731C21.1198 5.6665 22.4664 6.59984 22.9998 8.03984C23.5464 9.47984 23.1464 11.0665 21.9864 12.0932L11.3331 21.4132C10.6931 21.9732 10.6798 22.7332 10.8664 23.2532C11.0664 23.7732 11.5731 24.3332 12.4264 24.3332H15.9998C16.5464 24.3332 16.9998 24.7865 16.9998 25.3332C16.9998 25.8798 16.5464 26.3332 15.9998 26.3332Z" fill="#544864"/>
<path d="M15.9998 26.3332H12.4264C10.8798 26.3332 9.53309 25.3998 8.99976 23.9598C8.45309 22.5198 8.85309 20.9332 10.0131 19.9065L20.6664 10.5865C21.3064 10.0265 21.3198 9.2665 21.1331 8.7465C20.9331 8.2265 20.4264 7.6665 19.5731 7.6665H15.9998C15.4531 7.6665 14.9998 7.21317 14.9998 6.6665C14.9998 6.11984 15.4531 5.6665 15.9998 5.6665H19.5731C21.1198 5.6665 22.4664 6.59984 22.9998 8.03984C23.5464 9.47984 23.1464 11.0665 21.9864 12.0932L11.3331 21.4132C10.6931 21.9732 10.6798 22.7332 10.8664 23.2532C11.0664 23.7732 11.5731 24.3332 12.4264 24.3332H15.9998C16.5464 24.3332 16.9998 24.7865 16.9998 25.3332C16.9998 25.8798 16.5464 26.3332 15.9998 26.3332Z" fill="#544864"/>
</svg>
