<svg width="24" height="15" viewBox="-5 0 24 15" fill="none" xmlns="http://www.w3.org/2000/svg">
<path d="M5.77686 10.4062C6.35791 10.4062 6.90234 10.2964 7.41016 10.0767C7.92285 9.85205 8.37207 9.54688 8.75781 9.16113C9.14355 8.77539 9.44629 8.32861 9.66602 7.8208C9.89062 7.30811 10.0029 6.76123 10.0029 6.18018C10.0029 5.604 9.89062 5.06201 9.66602 4.5542C9.44629 4.0415 9.14355 3.58984 8.75781 3.19922C8.37207 2.80859 7.92285 2.50586 7.41016 2.29102C6.90234 2.07129 6.35791 1.96143 5.77686 1.96143C5.1958 1.96143 4.65137 2.07129 4.14355 2.29102C3.63574 2.50586 3.18652 2.80859 2.7959 3.19922C2.41016 3.58984 2.10742 4.0415 1.8877 4.5542C1.66797 5.06201 1.55811 5.604 1.55811 6.18018C1.55811 6.76123 1.66797 7.30811 1.8877 7.8208C2.10742 8.32861 2.41016 8.77539 2.7959 9.16113C3.18652 9.54688 3.63574 9.85205 4.14355 10.0767C4.65137 10.2964 5.1958 10.4062 5.77686 10.4062ZM5.77686 11.9517C4.98584 11.9517 4.24121 11.8027 3.54297 11.5049C2.84961 11.2021 2.23682 10.7871 1.70459 10.2598C1.17725 9.72754 0.762207 9.11475 0.459473 8.42139C0.161621 7.72314 0.0126953 6.97607 0.0126953 6.18018C0.0126953 5.38916 0.161621 4.64453 0.459473 3.94629C0.762207 3.24805 1.17725 2.63525 1.70459 2.10791C2.23682 1.58057 2.84961 1.16797 3.54297 0.870117C4.24121 0.567383 4.98584 0.416016 5.77686 0.416016C6.57275 0.416016 7.31738 0.567383 8.01074 0.870117C8.70898 1.16797 9.32178 1.58301 9.84912 2.11523C10.3813 2.64258 10.7964 3.25537 11.0942 3.95361C11.397 4.64697 11.5483 5.38916 11.5483 6.18018C11.5483 6.97607 11.397 7.72314 11.0942 8.42139C10.7964 9.11475 10.3813 9.72754 9.84912 10.2598C9.32178 10.7871 8.70898 11.2021 8.01074 11.5049C7.31738 11.8027 6.57275 11.9517 5.77686 11.9517ZM12.9253 14.5151C12.7788 14.5151 12.6372 14.4907 12.5005 14.4419C12.3687 14.3931 12.249 14.3149 12.1416 14.2075L8.32568 10.3843L9.87842 8.86816L13.6797 12.6768C13.7871 12.7793 13.8652 12.8965 13.9141 13.0283C13.9629 13.1602 13.9873 13.2969 13.9873 13.4385C13.9873 13.6387 13.9409 13.8193 13.8481 13.9805C13.7554 14.1416 13.6284 14.271 13.4673 14.3687C13.3062 14.4663 13.1255 14.5151 12.9253 14.5151Z" fill="#00405B"/>
</svg>
