<svg width="42" height="43" viewBox="0 0 42 43" fill="none" xmlns="http://www.w3.org/2000/svg">
<path d="M21.0478 0H20.9522C9.38061 0 0 9.38337 0 20.9583V21.054C0 32.629 9.38061 42.0124 20.9522 42.0124H21.0478C32.6194 42.0124 42 32.629 42 21.054V20.9583C42 9.38337 32.6194 0 21.0478 0Z" fill="url(#paint0_linear_436_1705)"/>
<path d="M27.4989 8.54736H14.5029C10.9126 8.54736 7.9917 11.4691 7.9917 15.0605V26.9534C7.9917 30.5449 10.9126 33.4666 14.5029 33.4666H27.4989C31.0893 33.4666 34.0101 30.5449 34.0101 26.9534V15.0605C34.0101 11.4691 31.0893 8.54736 27.4989 8.54736ZM10.2887 15.0605C10.2887 12.7364 12.1795 10.845 14.5029 10.845H27.4989C29.8223 10.845 31.7132 12.7364 31.7132 15.0605V26.9534C31.7132 29.2776 29.8223 31.169 27.4989 31.169H14.5029C12.1795 31.169 10.2887 29.2776 10.2887 26.9534V15.0605Z" fill="white"/>
<path d="M21.0009 27.0638C24.3396 27.0638 27.0574 24.3467 27.0574 21.0055C27.0574 17.6643 24.3411 14.9471 21.0009 14.9471C17.6607 14.9471 14.9443 17.6643 14.9443 21.0055C14.9443 24.3467 17.6607 27.0638 21.0009 27.0638ZM21.0009 17.2462C23.0742 17.2462 24.7605 18.933 24.7605 21.0069C24.7605 23.0808 23.0742 24.7676 21.0009 24.7676C18.9276 24.7676 17.2413 23.0808 17.2413 21.0069C17.2413 18.933 18.9276 17.2462 21.0009 17.2462Z" fill="white"/>
<path d="M27.6182 15.926C28.5172 15.926 29.25 15.1945 29.25 14.2937C29.25 13.3928 28.5187 12.6613 27.6182 12.6613C26.7176 12.6613 25.9863 13.3928 25.9863 14.2937C25.9863 15.1945 26.7176 15.926 27.6182 15.926Z" fill="white"/>
<defs>
<linearGradient id="paint0_linear_436_1705" x1="6.136" y1="35.8746" x2="35.8727" y2="6.14804" gradientUnits="userSpaceOnUse">
<stop stop-color="#FAAD4F"/>
<stop offset="0.35" stop-color="#DD2A7B"/>
<stop offset="0.62" stop-color="#9537B0"/>
<stop offset="1" stop-color="#515BD4"/>
</linearGradient>
</defs>
</svg>
