<svg width="24" height="24" viewBox="-1 -1 24 24" fill="none" xmlns="http://www.w3.org/2000/svg">
<path d="M17.3603 21.4998C16.2071 21.5129 15.114 20.9953 14.4062 20.101C13.6984 19.2067 13.4573 18.0387 13.7547 16.9442L7.08286 13.1989C5.92997 14.2363 4.24005 14.4559 2.85217 13.7486C1.4643 13.0413 0.674099 11.5578 0.873928 10.0348C1.07376 8.5117 2.22105 7.27344 3.74615 6.93482C5.27125 6.5962 6.8493 7.22935 7.69676 8.51989L13.7537 5.11895C13.6753 4.82815 13.6338 4.52895 13.63 4.22816C13.6148 2.47662 14.8534 0.955078 16.5964 0.584188C18.3394 0.213299 20.1081 1.09493 20.8323 2.69561C21.5565 4.29629 21.0373 6.17642 19.5889 7.19836C18.1404 8.22029 16.1605 8.10337 14.8472 6.91834L8.29147 10.5977C8.28498 10.8692 8.24635 11.139 8.17637 11.4016L14.8472 15.1459C16.0753 14.039 17.9026 13.8681 19.3213 14.7275C20.74 15.587 21.4046 17.2674 20.9487 18.8421C20.4927 20.4167 19.0272 21.5022 17.3603 21.4998ZM17.3603 16.2659C16.4774 16.2659 15.7616 16.9689 15.7616 17.8361C15.7616 18.7033 16.4774 19.4062 17.3603 19.4062C18.2433 19.4062 18.959 18.7033 18.959 17.8361C18.959 16.9689 18.2433 16.2659 17.3603 16.2659ZM4.57078 8.9386C3.68785 8.9386 2.97209 9.64157 2.97209 10.5087C2.97209 11.3759 3.68785 12.0789 4.57078 12.0789C5.45372 12.0789 6.16948 11.3759 6.16948 10.5087C6.16948 9.64157 5.45372 8.9386 4.57078 8.9386ZM17.3603 2.65801C16.4774 2.65801 15.7616 3.36099 15.7616 4.22816C15.7616 5.09533 16.4774 5.7983 17.3603 5.7983C18.2433 5.7983 18.959 5.09533 18.959 4.22816C18.959 3.36099 18.2433 2.65801 17.3603 2.65801Z" fill="#74D1FF"/>
</svg>
