<svg width="42" height="43" viewBox="0 0 42 43" fill="none" xmlns="http://www.w3.org/2000/svg">
<path d="M42 21.0062C42 9.40479 32.598 0 21 0C9.40203 0 0 9.40479 0 21.0062C0 32.6076 9.40203 42.0124 21 42.0124C32.598 42.0124 42 32.6076 42 21.0062Z" fill="#FF0209"/>
<path d="M29.9146 30.31C29.2889 30.3779 28.6485 30.3897 28.0346 30.3882C23.2461 30.3838 18.4576 30.3793 13.6706 30.3764C12.164 30.3764 10.523 30.3277 9.35874 29.3697C8.04689 28.2877 7.7739 26.4116 7.66765 24.7141C7.52009 22.3878 7.50828 20.0541 7.62928 17.7263C7.69569 16.448 7.81226 15.1387 8.36268 13.9815C8.75815 13.1505 9.41777 12.4036 10.2618 12.0109C11.2432 11.5548 12.2702 11.636 13.3268 11.6345C15.856 11.6316 18.3853 11.6301 20.9146 11.6271C23.5442 11.6242 26.1753 11.6227 28.8049 11.6198C30.0474 11.6198 31.3814 11.6448 32.3952 12.3637C33.7041 13.2907 34.0597 15.0546 34.2235 16.6503C34.526 19.5891 34.5304 22.559 34.2353 25.4979C34.1128 26.7098 33.9092 27.991 33.1108 28.9106C32.3199 29.8229 31.1468 30.1742 29.9161 30.3085L29.9146 30.31Z" fill="white"/>
<path d="M25.2827 21.0062L18.1465 16.885V25.1275L25.2827 21.0062Z" fill="#FF0209"/>
</svg>
