<svg width="42" height="43" viewBox="0 0 42 43" fill="none" xmlns="http://www.w3.org/2000/svg">
<path d="M42 21.0069C42 31.6164 34.138 40.3874 23.9245 41.8107C22.9696 41.9432 21.9925 42.0124 21.0007 42.0124C19.8559 42.0124 18.7317 41.9211 17.637 41.7445C7.6369 40.1342 0 31.4618 0 21.0069C0 9.40542 9.40266 0 20.9993 0C32.5959 0 42 9.40542 42 21.0069Z" fill="#1877F2"/>
<path d="M23.9243 16.8665V21.4426H29.5836L28.6875 27.6069H23.9243V41.8092C22.9693 41.9417 21.9923 42.0109 21.0005 42.0109C19.8557 42.0109 18.7315 41.9196 17.6368 41.743V27.6069H12.4175V21.4426H17.6368V15.8435C17.6368 12.3698 20.4517 9.55261 23.9258 9.55261V9.55556C23.9361 9.55556 23.9449 9.55261 23.9552 9.55261H29.5851V14.8838H25.9064C24.8131 14.8838 23.9258 15.7714 23.9258 16.865L23.9243 16.8665Z" fill="white"/>
</svg>
