<svg width="42" height="42" viewBox="0 0 42 42" fill="none" xmlns="http://www.w3.org/2000/svg">
<g clip-path="url(#clip0_436_1696)">
<rect width="42" height="42" rx="21" fill="#5181B8"/>
<path fill-rule="evenodd" clip-rule="evenodd" d="M34.3576 14.468C34.5523 13.819 34.3576 13.342 33.4312 13.342H30.368C29.589 13.342 29.2302 13.754 29.0355 14.2085C29.0355 14.2085 27.4776 18.0053 25.2708 20.4717C24.5568 21.1856 24.2323 21.4125 23.8429 21.4125C23.6481 21.4125 23.3663 21.1856 23.3663 20.5367V14.468C23.3663 13.6891 23.1403 13.342 22.4911 13.342H17.6775C17.1909 13.342 16.8981 13.7035 16.8981 14.0461C16.8981 14.7846 18.0013 14.9548 18.1151 17.0317V21.5427C18.1151 22.5317 17.9366 22.7111 17.5471 22.7111C16.5087 22.7111 13.9828 18.897 12.4845 14.533C12.1908 13.6847 11.8963 13.342 11.1135 13.342H8.05025C7.17504 13.342 7 13.754 7 14.2085C7 15.0198 8.03865 19.044 11.8355 24.3661C14.367 28.0004 17.9331 29.9709 21.1783 29.9709C23.1256 29.9709 23.3663 29.5333 23.3663 28.7795V26.0325C23.3663 25.1573 23.5508 24.9827 24.1671 24.9827C24.6218 24.9827 25.4005 25.2098 27.2181 26.9622C29.295 29.0388 29.6372 29.9709 30.8056 29.9709H33.8688C34.744 29.9709 35.1816 29.5333 34.9291 28.6697C34.653 27.8089 33.6613 26.5605 32.3455 25.0801C31.6315 24.2361 30.5605 23.3275 30.2362 22.8732C29.7818 22.289 29.9115 22.0295 30.2362 21.5105C30.2362 21.5105 33.9681 16.2532 34.3576 14.4682V14.468Z" fill="white"/>
</g>
<defs>
<clipPath id="clip0_436_1696">
<rect width="42" height="42" fill="white"/>
</clipPath>
</defs>
</svg>
