<svg width="42" height="43" viewBox="0 0 42 43" fill="none" xmlns="http://www.w3.org/2000/svg">
<path d="M21.0478 0H20.9522C9.3806 0 0 9.38338 0 20.9584V21.054C0 32.629 9.3806 42.0124 20.9522 42.0124H21.0478C32.6194 42.0124 42 32.629 42 21.054V20.9584C42 9.38338 32.6194 0 21.0478 0Z" fill="#5865F2"/>
<path d="M31.5098 11.3615C29.5763 10.474 27.5045 9.82045 25.337 9.44659C25.2973 9.43923 25.2575 9.45689 25.2384 9.49369C24.972 9.96764 24.6763 10.5873 24.4703 11.073C22.1395 10.7242 19.8205 10.7242 17.5368 11.073C17.3293 10.5755 17.0232 9.96764 16.7554 9.49369C16.7348 9.45836 16.6951 9.4407 16.6568 9.44659C14.4908 9.82045 12.4175 10.474 10.484 11.3615C10.4678 11.3689 10.4531 11.3807 10.4428 11.3969C6.51108 17.2727 5.43394 23.0042 5.96219 28.6652C5.96514 28.6931 5.97985 28.7196 6.00192 28.7358C8.59612 30.6419 11.1094 31.7988 13.5756 32.5657C13.6153 32.5775 13.6565 32.5627 13.6815 32.5304C14.2642 31.7341 14.7851 30.8936 15.231 30.009C15.2575 29.9575 15.231 29.8957 15.178 29.8751C14.3525 29.5615 13.5682 29.1803 12.8119 28.7476C12.7515 28.7123 12.7471 28.6269 12.8016 28.5857C12.9605 28.4665 13.1194 28.3428 13.271 28.2177C13.2989 28.1942 13.3372 28.1897 13.3696 28.2045C18.3328 30.4712 23.7066 30.4712 28.611 28.2045C28.6434 28.1883 28.6816 28.1942 28.7096 28.2162C28.8611 28.3413 29.02 28.4665 29.1804 28.5857C29.2349 28.6269 29.232 28.7123 29.1716 28.7476C28.4168 29.1892 27.631 29.563 26.804 29.8751C26.7496 29.8957 26.726 29.9575 26.7525 30.0105C27.2087 30.8921 27.7281 31.7326 28.3005 32.5304C28.324 32.5642 28.3667 32.5789 28.4064 32.5672C30.8844 31.8003 33.3977 30.6434 35.9918 28.7373C36.0139 28.7211 36.0286 28.6946 36.0316 28.6681C36.6643 22.124 34.9721 16.4396 31.548 11.3998C31.5392 11.3836 31.526 11.3704 31.5083 11.363L31.5098 11.3615ZM15.9696 25.218C14.4746 25.218 13.2445 23.8462 13.2445 22.1608C13.2445 20.4755 14.4525 19.1037 15.9696 19.1037C17.4867 19.1037 18.7198 20.4888 18.6948 22.1608C18.6948 23.8462 17.4867 25.218 15.9696 25.218ZM26.0477 25.218C24.5527 25.218 23.3226 23.8462 23.3226 22.1608C23.3226 20.4755 24.5306 19.1037 26.0477 19.1037C27.5648 19.1037 28.7979 20.4888 28.7728 22.1608C28.7728 23.8462 27.578 25.218 26.0477 25.218Z" fill="white"/>
</svg>
