<svg width="42" height="43" viewBox="0 0 42 43" fill="none" xmlns="http://www.w3.org/2000/svg">
<path d="M41.9971 21.0062C41.9971 31.6153 34.1353 40.386 23.9222 41.8093C22.9673 41.9417 21.9903 42.0109 20.9985 42.0109C19.8538 42.0109 18.7296 41.9197 17.6349 41.743C7.63663 40.1328 0 31.4607 0 21.0062C0 9.4051 9.40232 0 21 0C32.5977 0 42 9.4051 42 21.0062H41.9971Z" fill="#1C1C1B"/>
<path d="M8.51639 9.26373L18.2012 22.216L8.45605 32.747H10.6499L19.1827 23.5274L26.0762 32.747H33.5407L23.3114 19.0662L32.3827 9.26373H30.1888L22.3315 17.7548L15.9823 9.26373H8.51784H8.51639ZM11.7417 10.8798H15.1701L30.3124 31.131H26.884L11.7417 10.8798Z" fill="white"/>
</svg>
