<svg width="42" height="43" viewBox="0 0 42 43" fill="none" xmlns="http://www.w3.org/2000/svg">
<path d="M21.0478 0H20.9522C9.3806 0 0 9.38338 0 20.9584V21.054C0 32.629 9.3806 42.0124 20.9522 42.0124H21.0478C32.6194 42.0124 42 32.629 42 21.054V20.9584C42 9.38338 32.6194 0 21.0478 0Z" fill="#A544FF"/>
<path d="M14.4527 10.0648L9.7749 14.744V31.5869H15.3871V36.2661L20.0649 31.5869H23.8068L32.2265 23.1647V10.0648H14.4527ZM30.3548 22.2286L26.6129 25.9716H22.8709L19.5969 29.2466V25.9716H15.3871V11.9356H30.3548V22.2286Z" fill="white"/>
<path d="M27.547 15.212H25.6768V20.8259H27.547V15.212Z" fill="white"/>
<path d="M22.4029 15.212H20.5327V20.8259H22.4029V15.212Z" fill="white"/>
</svg>
