<svg width="42" height="43" viewBox="0 0 42 43" fill="none" xmlns="http://www.w3.org/2000/svg">
<path d="M21.0478 0H20.9522C9.3806 0 0 9.38338 0 20.9584V21.054C0 32.629 9.3806 42.0124 20.9522 42.0124H21.0478C32.6194 42.0124 42 32.629 42 21.054V20.9584C42 9.38338 32.6194 0 21.0478 0Z" fill="#419FD9"/>
<path d="M7.9546 20.2901C8.01346 20.2607 8.07235 20.2327 8.12974 20.2062C9.12739 19.744 10.1383 19.3113 11.1477 18.8786C11.2022 18.8786 11.2934 18.8153 11.3449 18.7947C11.4229 18.7608 11.5009 18.7284 11.5788 18.6946L12.0276 18.5018C12.3278 18.3737 12.6265 18.2456 12.9267 18.1176C13.5256 17.8615 14.1245 17.6054 14.7233 17.3478C15.9211 16.8356 17.1204 16.3219 18.3182 15.8097C19.5159 15.2974 20.7152 14.7837 21.9129 14.2715C23.1107 13.7593 24.3099 13.2456 25.5077 12.7334C26.7055 12.2212 27.9048 11.7075 29.1025 11.1953C29.3689 11.0805 29.6573 10.9097 29.9427 10.8597C30.1826 10.817 30.4165 10.7346 30.6578 10.6889C31.1155 10.6021 31.6202 10.5668 32.0587 10.7566C32.2102 10.8229 32.35 10.9156 32.4663 11.0319C33.0225 11.5824 32.9445 12.4861 32.8268 13.2603C32.0072 18.6563 31.1876 24.0538 30.3665 29.4497C30.2547 30.1901 30.1016 31.0026 29.5175 31.4707C29.023 31.8666 28.3197 31.9107 27.709 31.743C27.0984 31.5737 26.5598 31.219 26.0316 30.8701C23.8406 29.4188 21.6481 27.9675 19.4571 26.5162C18.9362 26.1718 18.3564 25.7214 18.3623 25.0959C18.3653 24.7191 18.5904 24.3835 18.8199 24.0847C20.724 21.6001 23.4712 19.8927 25.5151 17.5229C25.8035 17.1888 26.0301 16.5853 25.6343 16.3925C25.3988 16.2777 25.1281 16.4337 24.9132 16.5824C22.2116 18.4591 19.5115 20.3372 16.8099 22.2139C15.9285 22.8262 15.0044 23.4562 13.942 23.6063C12.9915 23.7417 12.035 23.4768 11.1153 23.2059C10.3443 22.9793 9.57469 22.7467 8.80806 22.5068C8.40047 22.3802 7.97962 22.2433 7.66473 21.9563C7.34984 21.6693 7.16887 21.1865 7.35869 20.8038C7.47788 20.5639 7.7089 20.4123 7.95169 20.2886L7.9546 20.2901Z" fill="#FEFFFC"/>
</svg>
