<svg width="42" height="42" viewBox="0 0 42 42" fill="none" xmlns="http://www.w3.org/2000/svg">
<g clip-path="url(#clip0_436_1697)">
<rect width="42" height="42" rx="21" fill="#EE8208"/>
<path d="M20.9994 11.2351C22.6493 11.2351 23.9914 12.5772 23.9914 14.2271C23.9914 15.8756 22.6489 17.2177 20.9994 17.2177C19.3505 17.2177 18.0081 15.8756 18.0081 14.2271C18.0077 12.5768 19.3508 11.2351 20.9994 11.2351ZM20.9994 21.4508C24.9848 21.4508 28.2258 18.2108 28.2258 14.2271C28.2258 10.2413 24.9851 6.99994 20.9994 6.99994C17.0143 6.99994 13.7729 10.2417 13.7729 14.2271C13.7729 18.2108 17.0143 21.4508 20.9994 21.4508ZM23.9229 27.3452C25.4095 27.0066 26.8281 26.4192 28.1189 25.6077C28.5941 25.3088 28.9311 24.8333 29.0557 24.2858C29.1803 23.7384 29.0824 23.1639 28.7834 22.6887C28.6355 22.4532 28.4427 22.2491 28.2159 22.0882C27.9891 21.9272 27.7328 21.8126 27.4617 21.7508C27.1905 21.689 26.9099 21.6812 26.6357 21.728C26.3616 21.7747 26.0994 21.875 25.864 22.0232C22.9035 23.8845 19.0931 23.8831 16.135 22.0232C15.8998 21.875 15.6375 21.7746 15.3634 21.7279C15.0893 21.6811 14.8087 21.6889 14.5375 21.7507C14.2664 21.8125 14.0101 21.9271 13.7834 22.0881C13.5566 22.2491 13.3638 22.4532 13.216 22.6887C12.917 23.1638 12.8189 23.7382 12.9433 24.2856C13.0677 24.833 13.4044 25.3086 13.8795 25.6077C15.1702 26.4189 16.5885 27.0063 18.0748 27.3452L14.0351 31.3856C13.6381 31.7827 13.4151 32.3213 13.4152 32.8828C13.4153 33.4443 13.6385 33.9828 14.0356 34.3798C14.4328 34.7768 14.9713 34.9998 15.5329 34.9997C16.0944 34.9996 16.6329 34.7764 17.0299 34.3793L20.9987 30.4098L24.9699 34.3796C25.1663 34.5763 25.3995 34.7323 25.6562 34.8387C25.9129 34.9452 26.188 34.9999 26.4659 34.9999C26.7438 34.9999 27.019 34.9452 27.2757 34.8387C27.5324 34.7323 27.7655 34.5763 27.9619 34.3796C28.1588 34.1833 28.3151 33.95 28.4217 33.6932C28.5283 33.4364 28.5832 33.161 28.5832 32.8829C28.5832 32.6049 28.5283 32.3295 28.4217 32.0727C28.3151 31.8159 28.1588 31.5826 27.9619 31.3863L23.9229 27.3452Z" fill="white"/>
</g>
<defs>
<clipPath id="clip0_436_1697">
<rect width="42" height="42" fill="white"/>
</clipPath>
</defs>
</svg>
