<svg width="42" height="43" viewBox="0 0 42 43" fill="none" xmlns="http://www.w3.org/2000/svg">
<path d="M21.0478 0H20.9522C9.38061 0 0 9.38337 0 20.9583V21.054C0 32.629 9.38061 42.0124 20.9522 42.0124H21.0478C32.6194 42.0124 42 32.629 42 21.054V20.9583C42 9.38337 32.6194 0 21.0478 0Z" fill="#00E510"/>
<path d="M25.0927 27.1505C19.7174 27.1505 15.3442 22.7745 15.3428 17.3977C15.3442 16.0347 16.4537 14.9264 17.8134 14.9264C17.9532 14.9264 18.0915 14.9382 18.2239 14.9617C18.5152 15.0103 18.7919 15.1089 19.0465 15.2576C19.0832 15.2796 19.1083 15.315 19.1141 15.3562L19.6821 18.9373C19.6895 18.98 19.6762 19.0212 19.6483 19.0521C19.3349 19.3995 18.9346 19.6497 18.4888 19.7748L18.2739 19.8352L18.3549 20.0427C19.0876 21.9091 20.5797 23.4001 22.447 24.1361L22.6545 24.2185L22.7148 24.0036C22.8399 23.5576 23.09 23.1572 23.4373 22.8437C23.4623 22.8202 23.4962 22.8084 23.53 22.8084C23.5374 22.8084 23.5447 22.8084 23.5535 22.8099L27.1336 23.378C27.1763 23.3854 27.2116 23.4089 27.2337 23.4457C27.3808 23.7004 27.4794 23.9786 27.5294 24.27C27.553 24.3995 27.5633 24.5364 27.5633 24.6792C27.5633 26.0407 26.4553 27.149 25.0927 27.1505Z" fill="#FDFDFD"/>
<path d="M34.6248 19.8264C34.3349 16.55 32.8341 13.5105 30.3988 11.2688C27.9488 9.01389 24.7704 7.77161 21.4464 7.77161C14.1509 7.77161 8.21499 13.7092 8.21499 21.0069C8.21499 23.4561 8.89038 25.8421 10.1691 27.9204L7.31738 34.2348L16.4478 33.2619C18.0355 33.9125 19.7159 34.2422 21.4449 34.2422C21.8996 34.2422 22.3661 34.2187 22.834 34.1701C23.246 34.1259 23.6624 34.0612 24.0715 33.9787C30.181 32.7438 34.641 27.3199 34.6763 21.0776V21.0069C34.6763 20.6095 34.6587 20.2121 34.6233 19.8264H34.6248ZM16.7995 30.4903L11.748 31.0291L13.2562 27.6864L12.9546 27.2816C12.9325 27.2522 12.9104 27.2227 12.8854 27.1889C11.5758 25.3799 10.8842 23.2427 10.8842 21.0084C10.8842 15.1826 15.6223 10.4431 21.4464 10.4431C26.9026 10.4431 31.5274 14.7013 31.9732 20.137C31.9968 20.4284 32.01 20.7214 32.01 21.0099C32.01 21.0923 32.0086 21.1732 32.0071 21.2601C31.8953 26.1335 28.4918 30.2725 23.7301 31.3264C23.3666 31.4073 22.9944 31.4692 22.6236 31.5089C22.238 31.5531 21.8422 31.5751 21.4493 31.5751C20.05 31.5751 18.6903 31.3043 17.4057 30.7685C17.263 30.7111 17.1232 30.6493 16.9923 30.586L16.801 30.4933L16.7995 30.4903Z" fill="#FDFDFD"/>
</svg>
