<svg width="42" height="43" viewBox="0 0 42 43" fill="none" xmlns="http://www.w3.org/2000/svg">
<path d="M21.0478 0H20.9522C9.38061 0 0 9.38338 0 20.9584V21.054C0 32.629 9.38061 42.0124 20.9522 42.0124H21.0478C32.6194 42.0124 42 32.629 42 21.054V20.9584C42 9.38338 32.6194 0 21.0478 0Z" fill="url(#paint0_linear_436_1678)"/>
<path d="M33.5036 21.0054V21.0776C33.4698 27.0903 29.1702 32.1138 23.483 33.2649C23.0974 33.3414 22.7075 33.4018 22.3102 33.4445C21.8805 33.4886 21.442 33.5136 21.0006 33.5136C19.2643 33.5136 17.6103 33.1589 16.1065 32.5157L10.3045 33.1339C9.31422 33.2399 8.58291 32.2287 8.99345 31.322L10.5532 27.8674C9.2539 25.8966 8.49609 23.5371 8.49609 21.0054C8.49609 14.1111 14.1068 8.49872 21.0006 8.49872C27.5192 8.49872 32.8886 13.515 33.4536 19.8912C33.4874 20.2562 33.5036 20.6316 33.5036 21.0054Z" fill="white"/>
<path d="M27.0118 17.3537C27.5724 16.8945 28.342 17.5819 27.9476 18.1898L25.3226 22.2404L23.9335 24.3835C23.6377 24.8398 23.0168 24.9487 22.5827 24.6205L20.2798 22.8734L18.8599 21.7974C18.7451 21.7106 18.5847 21.7135 18.4729 21.8048L14.9885 24.6485C14.4278 25.1062 13.6597 24.4189 14.0541 23.811L16.5129 20.0194L17.902 17.8763C18.1977 17.42 18.8187 17.3111 19.2528 17.6393L21.4879 19.3335L22.9064 20.4079C23.0227 20.4948 23.183 20.4918 23.2949 20.4006L27.0118 17.3523V17.3537Z" fill="url(#paint1_linear_436_1678)"/>
<defs>
<linearGradient id="paint0_linear_436_1678" x1="6.13601" y1="35.8746" x2="35.8713" y2="6.14805" gradientUnits="userSpaceOnUse">
<stop stop-color="#0498FA"/>
<stop offset="0.34" stop-color="#5C5EFE"/>
<stop offset="0.73" stop-color="#F44E90"/>
<stop offset="1" stop-color="#FA8679"/>
</linearGradient>
<linearGradient id="paint1_linear_436_1678" x1="15.7889" y1="26.2587" x2="26.2586" y2="15.7922" gradientUnits="userSpaceOnUse">
<stop stop-color="#0498FA"/>
<stop offset="0.34" stop-color="#5C5EFE"/>
<stop offset="0.73" stop-color="#F44E90"/>
<stop offset="1" stop-color="#FA8679"/>
</linearGradient>
</defs>
</svg>
