<svg width="42" height="43" viewBox="0 0 42 43" fill="none" xmlns="http://www.w3.org/2000/svg">
<path d="M21.0478 0H20.9522C9.38061 0 0 9.38337 0 20.9583V21.054C0 32.629 9.38061 42.0124 20.9522 42.0124H21.0478C32.6194 42.0124 42 32.629 42 21.054V20.9583C42 9.38337 32.6194 0 21.0478 0Z" fill="black"/>
<path d="M31.6483 16.6855V20.6522C30.9552 20.5845 30.0547 20.427 29.0585 20.062C27.7577 19.5851 26.7895 18.933 26.1553 18.4282V26.4456L26.1391 26.4206C26.1494 26.5795 26.1553 26.7415 26.1553 26.9048C26.1553 30.8863 22.9166 34.1274 18.9348 34.1274C14.953 34.1274 11.7144 30.8863 11.7144 26.9048C11.7144 22.9234 14.953 19.6808 18.9348 19.6808C19.3248 19.6808 19.7074 19.7117 20.0811 19.772V23.6814C19.7221 23.5533 19.3365 23.4842 18.9348 23.4842C17.0499 23.4842 15.5151 25.0179 15.5151 26.9048C15.5151 28.7918 17.0499 30.3255 18.9348 30.3255C20.8198 30.3255 22.3545 28.7903 22.3545 26.9048C22.3545 26.8342 22.353 26.7635 22.3486 26.6929V11.1129H26.3113C26.326 11.4484 26.3392 11.787 26.354 12.1226C26.3804 12.7835 26.6159 13.4178 27.0264 13.9374C27.5076 14.5483 28.2183 15.2577 29.2159 15.8244C30.1503 16.3543 31.0273 16.581 31.6483 16.6884V16.6855Z" fill="#FF004F"/>
<path d="M30.2855 13.4649V17.4317C29.5924 17.3639 28.6919 17.2065 27.6957 16.8414C26.3949 16.3645 25.4267 15.7125 24.7925 15.2076V23.225L24.7763 23.2C24.7866 23.359 24.7925 23.5209 24.7925 23.6843C24.7925 27.6658 21.5538 30.9069 17.572 30.9069C13.5903 30.9069 10.3516 27.6658 10.3516 23.6843C10.3516 19.7028 13.5903 16.4602 17.572 16.4602C17.962 16.4602 18.3446 16.4911 18.7183 16.5515V20.4608C18.3593 20.3328 17.9737 20.2636 17.572 20.2636C15.6871 20.2636 14.1523 21.7973 14.1523 23.6843C14.1523 25.5712 15.6871 27.105 17.572 27.105C19.457 27.105 20.9917 25.5698 20.9917 23.6843C20.9917 23.6136 20.9902 23.543 20.9858 23.4723V7.88934H24.9485C24.9632 8.22494 24.9764 8.56347 24.9912 8.89906C25.0176 9.55995 25.2531 10.1943 25.6636 10.7139C26.1448 11.3248 26.8555 12.0342 27.8532 12.6009C28.7875 13.1293 29.6645 13.3574 30.2855 13.4649Z" fill="#00F7EF"/>
<path d="M31.1522 15.1988V19.1655C30.4591 19.0978 29.5586 18.9403 28.5624 18.5753C27.2616 18.0984 26.2934 17.4464 25.6592 16.9415V24.9589L25.643 24.9339C25.6533 25.0929 25.6592 25.2548 25.6592 25.4181C25.6592 29.3996 22.4205 32.6407 18.4387 32.6407C14.457 32.6407 11.2183 29.3996 11.2183 25.4181C11.2183 21.4367 14.457 18.1941 18.4387 18.1941C18.8287 18.1941 19.2113 18.225 19.585 18.2853V22.1947C19.226 22.0666 18.8404 21.9975 18.4387 21.9975C16.5538 21.9975 15.0191 23.5312 15.0191 25.4181C15.0191 27.3051 16.5538 28.8388 18.4387 28.8388C20.3237 28.8388 21.8584 27.3036 21.8584 25.4181C21.8584 25.3475 21.8569 25.2768 21.8525 25.2062V9.62616H25.8152C25.8299 9.96175 25.8431 10.3003 25.8579 10.6359C25.8843 11.2968 26.1198 11.9312 26.5303 12.4507C27.0115 13.0616 27.7222 13.771 28.7199 14.3377C29.6542 14.8661 30.5312 15.0943 31.1522 15.2017V15.1988Z" fill="white"/>
</svg>
