<svg width="33" height="32" viewBox="0 0 33 32" fill="none" xmlns="http://www.w3.org/2000/svg">
<path d="M14.3335 12.0003C14.3335 11.448 13.8858 11.0003 13.3335 11.0003C12.7812 11.0003 12.3335 11.448 12.3335 12.0003V13.0003C12.3335 13.5525 12.7812 14.0003 13.3335 14.0003C13.8858 14.0003 14.3335 13.5525 14.3335 13.0003V12.0003Z" fill="#544864"/>
<path d="M15.3335 17.0003C14.7812 17.0003 14.3335 17.448 14.3335 18.0003C14.3335 18.5525 14.7812 19.0003 15.3335 19.0003C15.3335 19.9541 14.6439 20.7681 13.7031 20.9249L13.1691 21.0139C12.6243 21.1047 12.2563 21.6199 12.3471 22.1647C12.4379 22.7094 12.9531 23.0775 13.4979 22.9867L14.0319 22.8977C14.9506 22.7445 15.751 22.282 16.3335 21.6275C16.9161 22.282 17.7164 22.7445 18.6351 22.8977L19.1691 22.9867C19.7139 23.0775 20.2291 22.7094 20.3199 22.1647C20.4107 21.6199 20.0427 21.1047 19.4979 21.0139L18.9639 20.9249C18.0231 20.7681 17.3335 19.9541 17.3335 19.0003C17.8858 19.0003 18.3335 18.5525 18.3335 18.0003C18.3335 17.448 17.8858 17.0003 17.3335 17.0003H15.3335Z" fill="#544864"/>
<path d="M19.3335 11.0003C19.8858 11.0003 20.3335 11.448 20.3335 12.0003V13.0003C20.3335 13.5525 19.8858 14.0003 19.3335 14.0003C18.7812 14.0003 18.3335 13.5525 18.3335 13.0003V12.0003C18.3335 11.448 18.7812 11.0003 19.3335 11.0003Z" fill="#544864"/>
<path fill-rule="evenodd" clip-rule="evenodd" d="M11.9832 5.23576L11.2077 4.46026C9.60963 2.86217 7.12898 2.55679 5.19101 3.71957C3.40616 4.79048 2.48721 6.86781 2.89543 8.90886L3.11973 10.0304C3.23386 10.601 3.17955 11.1926 2.96342 11.7329L1.94727 14.2733C1.46975 15.4671 1.74962 16.8306 2.65878 17.7397C3.51964 18.6006 4.79298 18.9012 5.94794 18.5162L6.38137 18.3717C6.35505 18.8318 6.3405 19.2692 6.33551 19.6769C5.61607 20.7324 5.27798 21.832 5.42896 22.9191C5.59339 24.103 6.30978 25.0697 7.30079 25.8038C9.24213 27.2419 12.4999 28.0003 16.3335 28.0003C20.1671 28.0003 23.4249 27.2419 25.3662 25.8038C26.3573 25.0697 27.0736 24.103 27.2381 22.9191C27.3891 21.832 27.051 20.7324 26.3315 19.6769C26.3265 19.2692 26.312 18.8318 26.2857 18.3717L26.7191 18.5162C27.874 18.9012 29.1474 18.6006 30.0082 17.7397C30.9174 16.8306 31.1973 15.4671 30.7198 14.2733L29.7036 11.7329C29.4875 11.1926 29.4332 10.601 29.5473 10.0304L29.7716 8.90886C30.1798 6.86781 29.2609 4.79048 27.476 3.71957C25.538 2.55679 23.0574 2.86217 21.4593 4.46026L20.6838 5.23576C19.4914 4.46612 18.0555 4.00026 16.3335 4.00026C14.6115 4.00026 13.1756 4.46613 11.9832 5.23576ZM9.79351 5.87447C8.84435 4.92532 7.37102 4.74394 6.22001 5.43456C5.15993 6.0706 4.61414 7.30439 4.85659 8.51663L5.08089 9.63815C5.27111 10.5892 5.18059 11.5751 4.82037 12.4757L3.80422 15.0161C3.62384 15.467 3.72956 15.9821 4.073 16.3255C4.39819 16.6507 4.87919 16.7643 5.31548 16.6188L6.58382 16.1961C6.83378 14.2639 7.2988 12.1566 8.09887 10.2495C8.67159 8.88423 9.43696 7.58202 10.4422 6.52313L9.79351 5.87447ZM26.447 5.43456C25.296 4.74394 23.8227 4.92532 22.8735 5.87447L22.2249 6.52312C23.2301 7.58202 23.9954 8.88423 24.5682 10.2495C25.3682 12.1566 25.8332 14.2639 26.0832 16.1961L27.3515 16.6188C27.7878 16.7643 28.2688 16.6507 28.594 16.3255C28.9375 15.9821 29.0432 15.467 28.8628 15.0161L27.8466 12.4757C27.4864 11.5751 27.3959 10.5892 27.5861 9.63815L27.8104 8.51663C28.0529 7.30439 27.5071 6.0706 26.447 5.43456ZM8.33351 20.0003C8.33351 17.5838 8.70208 13.9816 9.94316 11.0231C11.1797 8.07558 13.1589 6.00026 16.3335 6.00026C19.5081 6.00026 21.4873 8.07558 22.7239 11.0231C23.9649 13.9816 24.3335 17.5838 24.3335 20.0003V20.3336L24.5335 20.6003C25.1791 21.4611 25.3272 22.1388 25.2571 22.6439C25.1871 23.1475 24.8723 23.6808 24.1758 24.1967C22.7421 25.2587 19.9999 26.0003 16.3335 26.0003C12.6671 26.0003 9.9249 25.2587 8.49124 24.1967C7.79475 23.6808 7.47989 23.1475 7.40994 22.6439C7.33979 22.1388 7.4879 21.4611 8.13351 20.6003L8.33351 20.3336V20.0003Z" fill="#544864"/>
</svg>
