<svg width="24" height="15" viewBox="-3 0 24 15" fill="none" xmlns="http://www.w3.org/2000/svg">
<path d="M8.2876 12.8638V1.62109H9.6792V12.8638H8.2876ZM6.40918 4.54346H2.91504C2.7832 4.54346 2.66846 4.49707 2.5708 4.4043C2.47314 4.30664 2.42432 4.19678 2.42432 4.07471C2.42432 3.94775 2.47314 3.83789 2.5708 3.74512C2.66846 3.64746 2.7832 3.59863 2.91504 3.59863H6.40918C6.54102 3.59863 6.65576 3.64746 6.75342 3.74512C6.85107 3.83789 6.8999 3.94775 6.8999 4.07471C6.8999 4.19678 6.85107 4.30664 6.75342 4.4043C6.65576 4.49707 6.54102 4.54346 6.40918 4.54346ZM6.40918 6.521H2.91504C2.7832 6.521 2.66846 6.47461 2.5708 6.38184C2.47314 6.28418 2.42432 6.16943 2.42432 6.0376C2.42432 5.91553 2.47314 5.80811 2.5708 5.71533C2.66846 5.62256 2.7832 5.57617 2.91504 5.57617H6.40918C6.54102 5.57617 6.65576 5.62256 6.75342 5.71533C6.85107 5.80811 6.8999 5.91553 6.8999 6.0376C6.8999 6.16943 6.85107 6.28418 6.75342 6.38184C6.65576 6.47461 6.54102 6.521 6.40918 6.521ZM6.40918 8.48389H2.91504C2.7832 8.48389 2.66846 8.4375 2.5708 8.34473C2.47314 8.25195 2.42432 8.14209 2.42432 8.01514C2.42432 7.88818 2.47314 7.77832 2.5708 7.68555C2.66846 7.59277 2.7832 7.54639 2.91504 7.54639H6.40918C6.54102 7.54639 6.65576 7.59277 6.75342 7.68555C6.85107 7.77832 6.8999 7.88818 6.8999 8.01514C6.8999 8.14209 6.85107 8.25195 6.75342 8.34473C6.65576 8.4375 6.54102 8.48389 6.40918 8.48389ZM2.41699 14.0942C1.62109 14.0942 1.01807 13.8916 0.60791 13.4863C0.202637 13.0859 0 12.4927 0 11.7065V2.79297C0 2.00684 0.202637 1.41357 0.60791 1.01318C1.01807 0.60791 1.62109 0.405273 2.41699 0.405273H14.9414C15.7373 0.405273 16.3379 0.60791 16.7432 1.01318C17.1533 1.41357 17.3584 2.00684 17.3584 2.79297V11.7065C17.3584 12.4927 17.1533 13.0859 16.7432 13.4863C16.3379 13.8916 15.7373 14.0942 14.9414 14.0942H2.41699ZM2.50488 12.6294H9.11108H14.8462C15.1831 12.6294 15.4395 12.5439 15.6152 12.373C15.7959 12.1973 15.8862 11.9312 15.8862 11.5747V2.9248C15.8862 2.56836 15.7959 2.30469 15.6152 2.13379C15.4395 1.95801 15.1831 1.87012 14.8462 1.87012H2.50488C2.16797 1.87012 1.90918 1.95801 1.72852 2.13379C1.55273 2.30469 1.46484 2.56836 1.46484 2.9248V11.5747C1.46484 11.9312 1.55273 12.1973 1.72852 12.373C1.90918 12.5439 2.16797 12.6294 2.50488 12.6294Z" fill="#00405B"/>
</svg>
