<svg width="24" height="15" viewBox="-3 0 24 15" fill="none" xmlns="http://www.w3.org/2000/svg">
<path d="M6.17285 13.0869V1.84424H7.56445V13.0869H6.17285ZM4.72998 4.7666H3.23584C3.104 4.7666 2.98926 4.72021 2.8916 4.62744C2.79395 4.52979 2.74512 4.41992 2.74512 4.29785C2.74512 4.1709 2.79395 4.06104 2.8916 3.96826C2.98926 3.87061 3.104 3.82178 3.23584 3.82178H4.72998C4.86182 3.82178 4.97656 3.87061 5.07422 3.96826C5.17188 4.06104 5.2207 4.1709 5.2207 4.29785C5.2207 4.41992 5.17188 4.52979 5.07422 4.62744C4.97656 4.72021 4.86182 4.7666 4.72998 4.7666ZM4.72998 6.74414H3.23584C3.104 6.74414 2.98926 6.69775 2.8916 6.60498C2.79395 6.50732 2.74512 6.39258 2.74512 6.26074C2.74512 6.13867 2.79395 6.03125 2.8916 5.93848C2.98926 5.8457 3.104 5.79932 3.23584 5.79932H4.72998C4.86182 5.79932 4.97656 5.8457 5.07422 5.93848C5.17188 6.03125 5.2207 6.13867 5.2207 6.26074C5.2207 6.39258 5.17188 6.50732 5.07422 6.60498C4.97656 6.69775 4.86182 6.74414 4.72998 6.74414ZM4.72998 8.70703H3.23584C3.104 8.70703 2.98926 8.66064 2.8916 8.56787C2.79395 8.4751 2.74512 8.36523 2.74512 8.23828C2.74512 8.11133 2.79395 8.00146 2.8916 7.90869C2.98926 7.81592 3.104 7.76953 3.23584 7.76953H4.72998C4.86182 7.76953 4.97656 7.81592 5.07422 7.90869C5.17188 8.00146 5.2207 8.11133 5.2207 8.23828C5.2207 8.36523 5.17188 8.4751 5.07422 8.56787C4.97656 8.66064 4.86182 8.70703 4.72998 8.70703ZM2.73779 14.3174C1.94189 14.3174 1.33887 14.1147 0.928711 13.7095C0.523438 13.3091 0.320801 12.7158 0.320801 11.9297V3.01611C0.320801 2.22998 0.523438 1.63672 0.928711 1.23633C1.33887 0.831055 1.94189 0.628418 2.73779 0.628418H15.2622C16.0581 0.628418 16.6587 0.831055 17.064 1.23633C17.4741 1.63672 17.6792 2.22998 17.6792 3.01611V11.9297C17.6792 12.7158 17.4741 13.3091 17.064 13.7095C16.6587 14.1147 16.0581 14.3174 15.2622 14.3174H2.73779ZM2.82568 12.8525H15.167C15.5039 12.8525 15.7603 12.7671 15.936 12.5962C16.1167 12.4204 16.207 12.1543 16.207 11.7979V3.14795C16.207 2.7915 16.1167 2.52783 15.936 2.35693C15.7603 2.18115 15.5039 2.09326 15.167 2.09326H2.82568C2.48877 2.09326 2.22998 2.18115 2.04932 2.35693C1.87354 2.52783 1.78564 2.7915 1.78564 3.14795V11.7979C1.78564 12.1543 1.87354 12.4204 2.04932 12.5962C2.22998 12.7671 2.48877 12.8525 2.82568 12.8525Z" fill="#00405B"/>
</svg>
