<svg width="33" height="32" viewBox="0 0 33 32" fill="none" xmlns="http://www.w3.org/2000/svg">
<g clip-path="url(#clip0_1016_1635)">
<rect x="0.5" width="32" height="32" rx="16" fill="#5181B8"/>
<path fill-rule="evenodd" clip-rule="evenodd" d="M26.6771 11.0234C26.8255 10.5289 26.6771 10.1655 25.9713 10.1655H23.6374C23.0439 10.1655 22.7705 10.4794 22.6222 10.8257C22.6222 10.8257 21.4352 13.7185 19.7538 15.5976C19.2099 16.1416 18.9627 16.3145 18.6659 16.3145C18.5175 16.3145 18.3028 16.1416 18.3028 15.6471V11.0234C18.3028 10.4299 18.1306 10.1655 17.636 10.1655H13.9685C13.5977 10.1655 13.3747 10.4409 13.3747 10.702C13.3747 11.2646 14.2152 11.3943 14.3019 12.9767V16.4137C14.3019 17.1672 14.1659 17.3039 13.8691 17.3039C13.0779 17.3039 11.1535 14.3978 10.0119 11.0729C9.78818 10.4266 9.56379 10.1655 8.96732 10.1655H6.63344C5.96662 10.1655 5.83325 10.4794 5.83325 10.8257C5.83325 11.4438 6.6246 14.5099 9.51745 18.5648C11.4462 21.3338 14.1632 22.8352 16.6358 22.8352C18.1195 22.8352 18.3028 22.5017 18.3028 21.9274V19.8345C18.3028 19.1676 18.4434 19.0346 18.913 19.0346C19.2594 19.0346 19.8527 19.2076 21.2375 20.5428C22.8199 22.125 23.0806 22.8352 23.9708 22.8352H26.3047C26.9715 22.8352 27.3049 22.5017 27.1126 21.8438C26.9022 21.1879 26.1467 20.2367 25.1441 19.1088C24.6001 18.4658 23.7841 17.7735 23.5371 17.4274C23.1908 16.9823 23.2897 16.7846 23.5371 16.3891C23.5371 16.3891 26.3804 12.3835 26.6771 11.0236V11.0234Z" fill="white"/>
</g>
<defs>
<clipPath id="clip0_1016_1635">
<rect width="32" height="32" fill="white" transform="translate(0.5)"/>
</clipPath>
</defs>
</svg>
