<svg width="33" height="32" viewBox="0 0 33 32" fill="none" xmlns="http://www.w3.org/2000/svg">
<rect x="-7.5" y="-8" width="48" height="48" rx="24" fill="#419FD9"/>
<path d="M24.4302 8.1543C24.4302 8.1543 25.7768 7.55104 25.8003 8.54883L22.8521 23.3604C22.8521 23.3604 22.434 24.3818 21.3198 23.8945L17.1411 20.6904L14.4478 23.1289C14.4413 23.1338 14.2349 23.2896 14.0063 23.1982C13.9984 23.1971 13.7935 23.1599 13.5659 22.4092C13.3117 21.6234 12.0674 17.5478 12.0562 17.5107L7.90088 16.1172C7.8911 16.1135 7.27368 15.8811 7.20459 15.3975C7.13526 14.9101 7.92432 14.6318 7.92432 14.6318L24.4302 8.1543ZM22.5962 11.1729C22.6192 10.8272 22.0479 11.1679 22.0396 11.1729L12.9155 16.9766C12.7763 17.0694 12.7295 17.2318 12.7759 17.3711L13.8677 20.9463C13.9374 21.155 14.2392 21.1315 14.2856 20.8994L14.5405 18.7178C14.5405 18.6249 14.5871 18.5552 14.6567 18.5088C15.5388 17.7196 22.1068 11.8242 22.3872 11.5439C22.6865 11.2216 22.5977 11.1736 22.5962 11.1729Z" fill="white"/>
</svg>
