<svg width="32" height="30" viewBox="-0.5 0 32 30" fill="none" xmlns="http://www.w3.org/2000/svg">
<path d="M15.5 28.4377C14.625 28.4377 13.7375 28.1001 13.075 27.4376L10.9375 25.3252C10.4 24.8002 9.69999 24.5127 8.94999 24.5127H8C5.4125 24.5127 3.3125 22.4252 3.3125 19.8627V6.22516C3.3125 3.66266 5.4125 1.5752 8 1.5752H23C25.5875 1.5752 27.6875 3.66266 27.6875 6.22516V19.8627C27.6875 22.4252 25.5875 24.5127 23 24.5127H22.05C21.3 24.5127 20.5875 24.8002 20.0625 25.3252L17.925 27.4376C17.2625 28.1001 16.375 28.4377 15.5 28.4377ZM8 3.43768C6.45 3.43768 5.1875 4.68765 5.1875 6.21265V19.8502C5.1875 21.3877 6.45 22.6252 8 22.6252H8.94999C10.2 22.6252 11.375 23.1126 12.2625 23.9876L14.4 26.1002C15.0125 26.7002 16 26.7002 16.6125 26.1002L18.75 23.9876C19.6375 23.1126 20.8125 22.6252 22.0625 22.6252H23C24.55 22.6252 25.8125 21.3752 25.8125 19.8502V6.21265C25.8125 4.67515 24.55 3.43768 23 3.43768H8Z" fill="#00405B"/>
<path d="M13.4753 18.1378H10.1253C9.57528 18.1378 9.06278 17.8752 8.73778 17.4252C8.42528 17.0002 8.35028 16.4753 8.50028 15.9753C8.93778 14.6378 10.0128 13.9127 10.9628 13.2627C11.9628 12.5877 12.5253 12.1628 12.5253 11.4378C12.5253 10.7878 12.0003 10.2627 11.3503 10.2627C10.7003 10.2627 10.1753 10.7878 10.1753 11.4378C10.1753 11.9503 9.75029 12.3753 9.23779 12.3753C8.72529 12.3753 8.30029 11.9503 8.30029 11.4378C8.30029 9.76277 9.66278 8.3877 11.3503 8.3877C13.0378 8.3877 14.4003 9.75027 14.4003 11.4378C14.4003 13.2003 13.0753 14.1002 12.0128 14.8252C11.3503 15.2752 10.7253 15.7003 10.4128 16.2628H13.4628C13.9753 16.2628 14.4003 16.6878 14.4003 17.2003C14.4003 17.7128 13.9878 18.1378 13.4753 18.1378Z" fill="#00405B"/>
<path d="M20.5496 18.1377C20.0371 18.1377 19.6121 17.7127 19.6121 17.2002V16.3376H17.1621C17.1621 16.3376 17.1621 16.3376 17.1496 16.3376C16.5371 16.3376 15.9746 16.0127 15.6621 15.4877C15.3496 14.9502 15.3496 14.2877 15.6621 13.7627C16.5121 12.3002 17.4996 10.6376 18.3996 9.18763C18.7996 8.55013 19.5621 8.26269 20.2746 8.46269C20.9871 8.67519 21.4871 9.32524 21.4746 10.0752V14.4751H21.7496C22.2621 14.4751 22.6871 14.9001 22.6871 15.4126C22.6871 15.9251 22.2621 16.3501 21.7496 16.3501H21.4871V17.2127C21.4871 17.7252 21.0746 18.1377 20.5496 18.1377ZM19.6121 10.8002C18.8746 12.0002 18.1121 13.2876 17.4246 14.4626H19.6121V10.8002Z" fill="#00405B"/>
</svg>
