<svg width="22" height="20" viewBox="0 0 22 20" fill="none" xmlns="http://www.w3.org/2000/svg">
<path d="M17.3657 19.3332C17.2027 19.3332 17.0408 19.2849 16.9019 19.1908L11.6547 15.6314L8.84031 17.6565C8.61959 17.8152 8.33509 17.8552 8.07879 17.7635C7.82282 17.6717 7.62842 17.4597 7.55903 17.1968L6.14591 11.8414L1.09669 9.91077C0.778817 9.78917 0.568006 9.48507 0.565693 9.14473C0.56338 8.80439 0.770006 8.49743 1.08633 8.37154L20.2854 0.732107C20.3725 0.6951 20.4647 0.673732 20.5576 0.668005C20.5909 0.666022 20.6243 0.666022 20.6574 0.667895C20.8499 0.67935 21.0391 0.75777 21.1866 0.902497C21.202 0.917476 21.2165 0.932786 21.2303 0.948756C21.3525 1.08842 21.4197 1.25869 21.4324 1.43217C21.4355 1.47578 21.4352 1.51995 21.4314 1.56412C21.4287 1.59562 21.4242 1.62701 21.4178 1.65818L18.1771 18.6617C18.125 18.9349 17.9391 19.1636 17.6823 19.2701C17.5804 19.3124 17.4728 19.3332 17.3657 19.3332ZM12.1154 13.9476L16.7895 17.118L19.311 3.88734L10.2038 12.6509L12.0933 13.9327C12.1009 13.9374 12.1082 13.9425 12.1154 13.9476ZM8.2244 13.2426L8.85022 15.6139L10.1986 14.6437L8.43301 13.446C8.35095 13.3905 8.28068 13.3213 8.2244 13.2426ZM3.66464 9.12369L7.13168 10.4493C7.38005 10.5442 7.56751 10.753 7.63536 11.0101L8.07505 12.6764C8.0952 12.4842 8.18232 12.3034 8.32386 12.1671L17.0018 3.81685L3.66464 9.12369Z" fill="#00405B"/>
</svg>
