<svg width="32" height="32" viewBox="0.5 0 32 32" fill="none" xmlns="http://www.w3.org/2000/svg">
<path fill-rule="evenodd" clip-rule="evenodd" d="M16.4999 3C13.1862 3 10.4999 5.68629 10.4999 9C10.4999 12.3137 13.1862 15 16.4999 15C19.8136 15 22.4999 12.3137 22.4999 9C22.4999 5.68629 19.8136 3 16.4999 3ZM12.4999 9C12.4999 6.79086 14.2907 5 16.4999 5C18.709 5 20.4999 6.79086 20.4999 9C20.4999 11.2091 18.709 13 16.4999 13C14.2907 13 12.4999 11.2091 12.4999 9Z" fill="#00405B"/>
<path fill-rule="evenodd" clip-rule="evenodd" d="M16.4999 16C11.8963 16 9.05012 17.432 7.38414 19.4829C5.75069 21.4936 5.39894 23.9225 5.39406 25.6472C5.3882 27.7194 7.18949 29 8.99197 29H24.0078C25.8103 29 27.6116 27.7194 27.6057 25.6472C27.6008 23.9225 27.2491 21.4936 25.6156 19.4829C23.9497 17.432 21.1035 16 16.4999 16ZM7.39405 25.6528C7.39831 24.1465 7.71269 22.2504 8.93648 20.7439C10.1277 19.2775 12.3299 18 16.4999 18C20.6699 18 22.872 19.2775 24.0633 20.7439C25.2871 22.2504 25.6015 24.1465 25.6057 25.6528C25.6077 26.3582 24.9828 27 24.0078 27H8.99197C8.01696 27 7.39205 26.3582 7.39405 25.6528Z" fill="#00405B"/>
</svg>
