<svg width="22" height="22" viewBox="0 0 22 22" fill="none" xmlns="http://www.w3.org/2000/svg">
<path d="M18.5242 3.44701C16.5638 1.42899 13.8539 0.333496 11.0863 0.333496C5.20526 0.333496 0.477335 5.11908 0.534993 10.9425C0.534993 12.7875 1.05391 14.5749 1.91878 16.1894L0.419678 21.6668L6.01247 20.2254C7.56923 21.0903 9.29896 21.4939 11.0287 21.4939C16.8521 21.4939 21.58 16.7083 21.58 10.8848C21.58 8.05962 20.4845 5.40737 18.5242 3.44701ZM11.0863 19.7065C9.52959 19.7065 7.97283 19.3029 6.64671 18.4957L6.30076 18.3227L2.95661 19.1876L3.82148 15.9011L3.59085 15.5551C1.05391 11.4614 2.26472 6.0416 6.41607 3.50467C10.5674 0.96773 15.9296 2.17854 18.4665 6.32989C21.0035 10.4812 19.7927 15.8434 15.6413 18.3803C14.3152 19.2452 12.7008 19.7065 11.0863 19.7065ZM16.1602 13.3065L15.526 13.0182C15.526 13.0182 14.6035 12.6146 14.0269 12.3263C13.9692 12.3263 13.9116 12.2686 13.8539 12.2686C13.6809 12.2686 13.5656 12.3263 13.4503 12.3839C13.4503 12.3839 13.3927 12.4416 12.5854 13.3641C12.5278 13.4794 12.4125 13.5371 12.2972 13.5371H12.2395C12.1818 13.5371 12.0665 13.4794 12.0089 13.4218L11.7206 13.3065C11.0863 13.0182 10.5098 12.6722 10.0485 12.211C9.93319 12.0957 9.76022 11.9803 9.6449 11.865C9.2413 11.4614 8.8377 11.0002 8.54941 10.4812L8.49175 10.3659C8.43409 10.3083 8.43409 10.2506 8.37643 10.1353C8.37643 10.02 8.37643 9.90467 8.43409 9.84701C8.43409 9.84701 8.66472 9.55872 8.8377 9.38575C8.95301 9.27043 9.01067 9.09746 9.12598 8.98215C9.2413 8.80917 9.29896 8.57854 9.2413 8.40557C9.18364 8.11728 8.49175 6.56052 8.31878 6.21458C8.20346 6.0416 8.08815 5.98395 7.91517 5.92629H7.7422C7.62688 5.92629 7.45391 5.92629 7.28094 5.92629C7.16562 5.92629 7.05031 5.98395 6.93499 5.98395L6.87734 6.0416C6.76202 6.09926 6.64671 6.21458 6.53139 6.27223C6.41607 6.38755 6.35842 6.50287 6.2431 6.61818C5.8395 7.1371 5.60887 7.77133 5.60887 8.40557C5.60887 8.86683 5.72418 9.32809 5.89716 9.73169L5.95481 9.90467C6.47373 11.0002 7.16562 11.9803 8.08815 12.8452L8.31878 13.0758C8.49175 13.2488 8.66472 13.3641 8.78004 13.5371C9.99085 14.5749 11.3746 15.3245 12.9314 15.7281C13.1044 15.7857 13.335 15.7857 13.508 15.8434C13.6809 15.8434 13.9116 15.8434 14.0845 15.8434C14.3728 15.8434 14.7188 15.7281 14.9494 15.6128C15.1224 15.4975 15.2377 15.4975 15.353 15.3821L15.4683 15.2668C15.5836 15.1515 15.699 15.0939 15.8143 14.9785C15.9296 14.8632 16.0449 14.7479 16.1026 14.6326C16.2179 14.402 16.2755 14.1137 16.3332 13.8254C16.3332 13.7101 16.3332 13.5371 16.3332 13.4218C16.3332 13.4218 16.2755 13.3641 16.1602 13.3065Z" fill="#00405B"/>
</svg>
