<svg width="126" height="26" viewBox="0 0 126 26" fill="none" xmlns="http://www.w3.org/2000/svg">
<g clip-path="url(#paint0_diamond_927_1500_clip_path)" data-figma-skip-parse="true"><g transform="matrix(-0.028 -0.0129996 0.0212665 -0.045806 96.0001 13.0001)"><rect x="0" y="0" width="2971.47" height="1026.45" fill="url(#paint0_diamond_927_1500)" opacity="1" shape-rendering="crispEdges"/><rect x="0" y="0" width="2971.47" height="1026.45" transform="scale(1 -1)" fill="url(#paint0_diamond_927_1500)" opacity="1" shape-rendering="crispEdges"/><rect x="0" y="0" width="2971.47" height="1026.45" transform="scale(-1 1)" fill="url(#paint0_diamond_927_1500)" opacity="1" shape-rendering="crispEdges"/><rect x="0" y="0" width="2971.47" height="1026.45" transform="scale(-1)" fill="url(#paint0_diamond_927_1500)" opacity="1" shape-rendering="crispEdges"/></g></g><path d="M1.04077 1.64209C6.12363 0.243466 16.4939 0.141186 21.6111 1.64209C21.6111 1.64209 21.7819 1.64242 21.7478 1.81299L21.7136 25.8286C21.7136 25.9992 21.5427 25.9995 21.5427 25.9995H14.4812C14.4722 25.9994 14.3123 25.9944 14.3455 25.8286V5.77002H8.30737V25.8286C8.341 25.9968 8.17534 25.9995 8.17065 25.9995H1.10913C1.10913 25.9995 0.938232 25.9992 0.938232 25.8286L0.904053 1.81299C0.870101 1.64323 1.03916 1.64209 1.04077 1.64209ZM40.03 8.12354C46.7502 6.86151 55.2439 7.88457 56.4382 8.05518C56.677 8.08929 56.7449 8.2264 56.7791 8.39697C56.7809 8.40438 56.8816 8.8116 56.8816 9.38623C56.9497 12.7633 53.3341 13.0361 51.4919 12.7632H51.4578V18.3921C51.4578 23.8162 53.7775 22.6566 53.4705 23.5776C53.0951 24.6692 51.2186 25.9995 49.3083 25.9995C46.5793 25.9994 44.5671 24.0206 44.5671 20.814V12.4907L40.1316 12.4565C40.1255 12.4564 40.03 12.4519 40.03 12.3198L39.9617 8.49951V8.26025C39.9617 8.15798 39.9959 8.15764 40.03 8.12354ZM74.99 0.050293C77.9919 -0.324942 80.4821 1.44871 80.1072 4.34814C79.4933 9.2929 73.5615 7.79514 73.5574 7.35107C73.5574 6.6688 73.728 5.61084 72.5681 5.61084C71.1696 5.61113 70.4871 7.82885 70.5212 10.3872C72.8069 10.3531 73.6942 12.0929 74.7859 14.4126C75.5366 15.9823 77.6858 20.8255 80.3464 21.6782C80.9263 21.8831 79.9368 25.5676 76.696 25.9429C70.0781 26.6933 68.4749 19.8701 67.7585 14.5825C67.4856 14.5143 66.7688 14.5487 66.4958 14.7192L66.7351 25.0894C66.7351 25.2599 66.5642 25.2603 66.5642 25.2603H59.2302C59.2302 25.2603 59.0594 25.2599 59.0935 25.0894C59.0594 8.78335 59.0935 6.60003 59.0935 6.56592C58.7182 2.5065 56.6371 3.42743 56.9441 2.54053C57.3535 1.41477 59.6052 0.050293 61.6179 0.050293C64.2787 0.0503056 66.6667 1.61947 66.6667 5.5083L66.4958 10.9663C66.7346 10.8299 67.3145 10.8303 67.5535 10.728C67.4852 5.50879 69.9415 0.664587 74.99 0.050293ZM30.8171 7.47314C36.6847 7.47318 41.1536 12.284 40.4031 17.4692C40.0277 22.552 35.8998 26.0999 30.7146 25.9976C27.7126 25.9293 23.1414 24.7351 23.1414 21.3921C23.1414 19.7205 24.3358 18.1167 26.4167 18.1167C27.474 18.1168 28.7696 18.39 28.7019 19.106C28.5996 20.0953 28.7366 20.7777 29.0095 21.2212C29.4871 21.9717 30.2034 22.2104 30.9539 22.2104C32.3183 22.2103 33.546 21.46 33.7166 18.7993H29.4871C29.4871 18.7993 29.3503 18.799 29.3503 18.6284V15.2515C29.3504 15.1151 29.4871 15.1147 29.4871 15.1147H33.7166C33.5459 12.4541 32.4201 11.3286 30.6804 11.3286C30.0323 11.3969 29.4179 11.6697 29.0427 12.2837C28.7699 12.7613 28.6338 13.444 28.7361 14.4331C28.8039 15.1492 27.5082 15.4223 26.4509 15.4224C24.37 15.4224 23.1414 13.7844 23.1755 12.147C23.2781 8.59935 27.7468 7.54138 30.7488 7.47314H30.8171ZM110.902 0.000488281C112.738 0.000612129 115.142 1.20863 115.443 3.80713C116.11 3.77996 116.803 3.77117 117.506 3.79443C122.004 3.94061 125.1 6.1899 125.1 10.4839C125.1 13.6096 123.961 18.0209 116.074 17.6997V19.1021C116.22 23.7172 118.266 22.7246 117.973 23.5425C117.623 24.594 115.08 25.9083 113.328 25.9087C110.962 25.9087 108.917 24.4184 108.917 20.7964L108.938 8.78662C108.897 7.70703 108.87 6.8735 108.87 6.4751C108.87 1.85877 107.128 2.84587 107.389 2.06201C107.709 1.13293 109.276 0.000544099 110.902 0.000488281ZM93.3347 13.6147C93.767 13.497 94.6057 13.6548 95.1951 13.9429C95.7712 14.2311 96.2563 14.7552 97.1335 16.0776C97.4212 16.5092 97.7612 16.9676 97.8796 17.0864C98.0102 17.217 98.1152 17.374 98.116 17.4399C98.116 17.5054 98.5744 17.7811 99.1375 18.0562C101.508 19.2219 101.784 19.5103 101.784 20.9116C101.784 21.6713 101.744 21.8152 101.39 22.2212C101.168 22.4701 100.709 22.8111 100.369 22.9683C99.5567 23.3743 98.024 23.3739 96.2556 22.981C94.4875 22.5881 93.5698 22.6149 92.0242 23.0864C91.0028 23.4007 90.505 23.479 89.5359 23.479C88.4097 23.479 88.2912 23.453 87.7937 23.0864C86.9163 22.4577 86.5886 21.8545 86.5886 20.8853C86.5887 19.6674 86.955 19.0116 88.1599 18.1079C88.6446 17.7411 89.8637 16.523 91.1736 15.0952C91.9462 14.2441 92.5751 13.8112 93.3347 13.6147ZM102.478 9.71143C103.369 9.48896 104.665 9.84269 104.666 10.314C104.666 10.4185 104.718 10.5099 104.77 10.5103C104.836 10.5103 104.98 10.7205 105.097 10.9692C105.255 11.3098 105.321 11.7815 105.321 12.6851C105.321 13.877 105.294 13.9823 104.797 14.9907C104.508 15.567 104.128 16.1959 103.945 16.3794C103.763 16.5488 103.619 16.7573 103.618 16.811C103.618 16.8764 103.526 16.929 103.422 16.9292C103.317 16.9293 103.225 16.9819 103.224 17.0601C103.224 17.3351 102.19 17.7153 101.417 17.7153C100.775 17.7153 100.566 17.6496 100.134 17.3354C99.0596 16.5363 98.7189 14.9378 99.3083 13.4839C99.701 12.5155 99.9892 11.9523 100.107 11.9517C100.147 11.9513 100.225 11.8464 100.277 11.7026C100.343 11.4929 100.71 11.0085 101.102 10.6157C101.482 10.2228 102.125 9.80316 102.478 9.71143ZM86.3787 9.67236C87.1645 9.75095 87.7808 10.2358 88.4226 11.2573L88.8416 11.939L88.7888 13.5493C88.7495 15.0423 88.7106 15.2137 88.3572 15.8813C87.9511 16.628 87.361 17.3098 86.8894 17.5718C86.5484 17.7419 85.5399 17.7674 85.1208 17.5972C84.5839 17.3871 83.8637 16.6273 83.4578 15.8286C83.0913 15.148 83.0515 14.9507 83.0515 13.8638C83.0515 12.7642 83.091 12.5933 83.4968 11.7554C83.9815 10.76 84.7678 9.90852 85.3572 9.7251C85.5667 9.65962 86.025 9.63313 86.3787 9.67236ZM119.755 10.4253C119.754 8.23462 118.265 6.59934 116.074 6.94971V14.6909C118.411 14.6907 119.755 12.5577 119.755 10.4253ZM96.74 2.729C97.2637 2.45407 98.7435 2.45435 99.1375 2.729C99.8185 3.2005 100.225 3.68609 100.565 4.41943C101.063 5.50652 101.09 7.23552 100.605 8.61084C100.173 9.86839 99.4386 10.8513 98.6658 11.1919C97.9322 11.5193 97.0154 11.5451 96.5046 11.27C95.4307 10.6803 94.71 9.00343 94.6052 6.84229C94.5529 5.66408 94.5662 5.54547 94.946 4.74658C95.3652 3.85609 96.0721 3.06957 96.74 2.729ZM91.0554 2.52002C91.8541 2.52002 91.9856 2.55947 92.4568 2.93896C92.7841 3.20085 93.1513 3.69882 93.4001 4.20947C93.8193 5.03468 93.8197 5.0355 93.7673 6.69873C93.7149 8.00847 93.6358 8.50662 93.4001 9.13525C93.0596 10.0391 92.758 10.4972 92.5222 10.5103C92.4309 10.5104 92.3527 10.5635 92.3523 10.6157C92.3517 10.8252 91.6966 11.0347 91.0681 11.0347C90.0597 11.0344 89.1689 10.2748 88.4617 8.80811C88.0034 7.86532 87.99 7.75947 87.99 6.44971C87.99 5.03545 88.0163 4.94303 88.7498 3.69873C88.9073 3.43666 89.5226 2.89991 89.9285 2.67725C90.0726 2.59866 90.5839 2.52004 91.0554 2.52002Z" data-figma-gradient-fill="{&#34;type&#34;:&#34;GRADIENT_DIAMOND&#34;,&#34;stops&#34;:[{&#34;color&#34;:{&#34;r&#34;:0.63529413938522339,&#34;g&#34;:0.34901961684226990,&#34;b&#34;:1.0,&#34;a&#34;:1.0},&#34;position&#34;:0.0},{&#34;color&#34;:{&#34;r&#34;:0.71699821949005127,&#34;g&#34;:0.49485677480697632,&#34;b&#34;:1.0,&#34;a&#34;:1.0},&#34;position&#34;:0.33333334326744080},{&#34;color&#34;:{&#34;r&#34;:0.60000002384185791,&#34;g&#34;:0.60000002384185791,&#34;b&#34;:1.0,&#34;a&#34;:1.0},&#34;position&#34;:0.66666668653488159},{&#34;color&#34;:{&#34;r&#34;:0.39094972610473633,&#34;g&#34;:0.39094972610473633,&#34;b&#34;:0.98750001192092896,&#34;a&#34;:1.0},&#34;position&#34;:1.0}],&#34;stopsVar&#34;:[],&#34;transform&#34;:{&#34;m00&#34;:-56.000011444091797,&#34;m01&#34;:42.532966613769531,&#34;m02&#34;:102.73358917236328,&#34;m10&#34;:-25.999288558959961,&#34;m11&#34;:-91.612007141113281,&#34;m12&#34;:71.805778503417969},&#34;opacity&#34;:1.0,&#34;blendMode&#34;:&#34;NORMAL&#34;,&#34;visible&#34;:true}"/>
<defs>
<clipPath id="paint0_diamond_927_1500_clip_path"><path d="M1.04077 1.64209C6.12363 0.243466 16.4939 0.141186 21.6111 1.64209C21.6111 1.64209 21.7819 1.64242 21.7478 1.81299L21.7136 25.8286C21.7136 25.9992 21.5427 25.9995 21.5427 25.9995H14.4812C14.4722 25.9994 14.3123 25.9944 14.3455 25.8286V5.77002H8.30737V25.8286C8.341 25.9968 8.17534 25.9995 8.17065 25.9995H1.10913C1.10913 25.9995 0.938232 25.9992 0.938232 25.8286L0.904053 1.81299C0.870101 1.64323 1.03916 1.64209 1.04077 1.64209ZM40.03 8.12354C46.7502 6.86151 55.2439 7.88457 56.4382 8.05518C56.677 8.08929 56.7449 8.2264 56.7791 8.39697C56.7809 8.40438 56.8816 8.8116 56.8816 9.38623C56.9497 12.7633 53.3341 13.0361 51.4919 12.7632H51.4578V18.3921C51.4578 23.8162 53.7775 22.6566 53.4705 23.5776C53.0951 24.6692 51.2186 25.9995 49.3083 25.9995C46.5793 25.9994 44.5671 24.0206 44.5671 20.814V12.4907L40.1316 12.4565C40.1255 12.4564 40.03 12.4519 40.03 12.3198L39.9617 8.49951V8.26025C39.9617 8.15798 39.9959 8.15764 40.03 8.12354ZM74.99 0.050293C77.9919 -0.324942 80.4821 1.44871 80.1072 4.34814C79.4933 9.2929 73.5615 7.79514 73.5574 7.35107C73.5574 6.6688 73.728 5.61084 72.5681 5.61084C71.1696 5.61113 70.4871 7.82885 70.5212 10.3872C72.8069 10.3531 73.6942 12.0929 74.7859 14.4126C75.5366 15.9823 77.6858 20.8255 80.3464 21.6782C80.9263 21.8831 79.9368 25.5676 76.696 25.9429C70.0781 26.6933 68.4749 19.8701 67.7585 14.5825C67.4856 14.5143 66.7688 14.5487 66.4958 14.7192L66.7351 25.0894C66.7351 25.2599 66.5642 25.2603 66.5642 25.2603H59.2302C59.2302 25.2603 59.0594 25.2599 59.0935 25.0894C59.0594 8.78335 59.0935 6.60003 59.0935 6.56592C58.7182 2.5065 56.6371 3.42743 56.9441 2.54053C57.3535 1.41477 59.6052 0.050293 61.6179 0.050293C64.2787 0.0503056 66.6667 1.61947 66.6667 5.5083L66.4958 10.9663C66.7346 10.8299 67.3145 10.8303 67.5535 10.728C67.4852 5.50879 69.9415 0.664587 74.99 0.050293ZM30.8171 7.47314C36.6847 7.47318 41.1536 12.284 40.4031 17.4692C40.0277 22.552 35.8998 26.0999 30.7146 25.9976C27.7126 25.9293 23.1414 24.7351 23.1414 21.3921C23.1414 19.7205 24.3358 18.1167 26.4167 18.1167C27.474 18.1168 28.7696 18.39 28.7019 19.106C28.5996 20.0953 28.7366 20.7777 29.0095 21.2212C29.4871 21.9717 30.2034 22.2104 30.9539 22.2104C32.3183 22.2103 33.546 21.46 33.7166 18.7993H29.4871C29.4871 18.7993 29.3503 18.799 29.3503 18.6284V15.2515C29.3504 15.1151 29.4871 15.1147 29.4871 15.1147H33.7166C33.5459 12.4541 32.4201 11.3286 30.6804 11.3286C30.0323 11.3969 29.4179 11.6697 29.0427 12.2837C28.7699 12.7613 28.6338 13.444 28.7361 14.4331C28.8039 15.1492 27.5082 15.4223 26.4509 15.4224C24.37 15.4224 23.1414 13.7844 23.1755 12.147C23.2781 8.59935 27.7468 7.54138 30.7488 7.47314H30.8171ZM110.902 0.000488281C112.738 0.000612129 115.142 1.20863 115.443 3.80713C116.11 3.77996 116.803 3.77117 117.506 3.79443C122.004 3.94061 125.1 6.1899 125.1 10.4839C125.1 13.6096 123.961 18.0209 116.074 17.6997V19.1021C116.22 23.7172 118.266 22.7246 117.973 23.5425C117.623 24.594 115.08 25.9083 113.328 25.9087C110.962 25.9087 108.917 24.4184 108.917 20.7964L108.938 8.78662C108.897 7.70703 108.87 6.8735 108.87 6.4751C108.87 1.85877 107.128 2.84587 107.389 2.06201C107.709 1.13293 109.276 0.000544099 110.902 0.000488281ZM93.3347 13.6147C93.767 13.497 94.6057 13.6548 95.1951 13.9429C95.7712 14.2311 96.2563 14.7552 97.1335 16.0776C97.4212 16.5092 97.7612 16.9676 97.8796 17.0864C98.0102 17.217 98.1152 17.374 98.116 17.4399C98.116 17.5054 98.5744 17.7811 99.1375 18.0562C101.508 19.2219 101.784 19.5103 101.784 20.9116C101.784 21.6713 101.744 21.8152 101.39 22.2212C101.168 22.4701 100.709 22.8111 100.369 22.9683C99.5567 23.3743 98.024 23.3739 96.2556 22.981C94.4875 22.5881 93.5698 22.6149 92.0242 23.0864C91.0028 23.4007 90.505 23.479 89.5359 23.479C88.4097 23.479 88.2912 23.453 87.7937 23.0864C86.9163 22.4577 86.5886 21.8545 86.5886 20.8853C86.5887 19.6674 86.955 19.0116 88.1599 18.1079C88.6446 17.7411 89.8637 16.523 91.1736 15.0952C91.9462 14.2441 92.5751 13.8112 93.3347 13.6147ZM102.478 9.71143C103.369 9.48896 104.665 9.84269 104.666 10.314C104.666 10.4185 104.718 10.5099 104.77 10.5103C104.836 10.5103 104.98 10.7205 105.097 10.9692C105.255 11.3098 105.321 11.7815 105.321 12.6851C105.321 13.877 105.294 13.9823 104.797 14.9907C104.508 15.567 104.128 16.1959 103.945 16.3794C103.763 16.5488 103.619 16.7573 103.618 16.811C103.618 16.8764 103.526 16.929 103.422 16.9292C103.317 16.9293 103.225 16.9819 103.224 17.0601C103.224 17.3351 102.19 17.7153 101.417 17.7153C100.775 17.7153 100.566 17.6496 100.134 17.3354C99.0596 16.5363 98.7189 14.9378 99.3083 13.4839C99.701 12.5155 99.9892 11.9523 100.107 11.9517C100.147 11.9513 100.225 11.8464 100.277 11.7026C100.343 11.4929 100.71 11.0085 101.102 10.6157C101.482 10.2228 102.125 9.80316 102.478 9.71143ZM86.3787 9.67236C87.1645 9.75095 87.7808 10.2358 88.4226 11.2573L88.8416 11.939L88.7888 13.5493C88.7495 15.0423 88.7106 15.2137 88.3572 15.8813C87.9511 16.628 87.361 17.3098 86.8894 17.5718C86.5484 17.7419 85.5399 17.7674 85.1208 17.5972C84.5839 17.3871 83.8637 16.6273 83.4578 15.8286C83.0913 15.148 83.0515 14.9507 83.0515 13.8638C83.0515 12.7642 83.091 12.5933 83.4968 11.7554C83.9815 10.76 84.7678 9.90852 85.3572 9.7251C85.5667 9.65962 86.025 9.63313 86.3787 9.67236ZM119.755 10.4253C119.754 8.23462 118.265 6.59934 116.074 6.94971V14.6909C118.411 14.6907 119.755 12.5577 119.755 10.4253ZM96.74 2.729C97.2637 2.45407 98.7435 2.45435 99.1375 2.729C99.8185 3.2005 100.225 3.68609 100.565 4.41943C101.063 5.50652 101.09 7.23552 100.605 8.61084C100.173 9.86839 99.4386 10.8513 98.6658 11.1919C97.9322 11.5193 97.0154 11.5451 96.5046 11.27C95.4307 10.6803 94.71 9.00343 94.6052 6.84229C94.5529 5.66408 94.5662 5.54547 94.946 4.74658C95.3652 3.85609 96.0721 3.06957 96.74 2.729ZM91.0554 2.52002C91.8541 2.52002 91.9856 2.55947 92.4568 2.93896C92.7841 3.20085 93.1513 3.69882 93.4001 4.20947C93.8193 5.03468 93.8197 5.0355 93.7673 6.69873C93.7149 8.00847 93.6358 8.50662 93.4001 9.13525C93.0596 10.0391 92.758 10.4972 92.5222 10.5103C92.4309 10.5104 92.3527 10.5635 92.3523 10.6157C92.3517 10.8252 91.6966 11.0347 91.0681 11.0347C90.0597 11.0344 89.1689 10.2748 88.4617 8.80811C88.0034 7.86532 87.99 7.75947 87.99 6.44971C87.99 5.03545 88.0163 4.94303 88.7498 3.69873C88.9073 3.43666 89.5226 2.89991 89.9285 2.67725C90.0726 2.59866 90.5839 2.52004 91.0554 2.52002Z"/></clipPath><linearGradient id="paint0_diamond_927_1500" x1="0" y1="0" x2="500" y2="500" gradientUnits="userSpaceOnUse">
<stop stop-color="#A259FF"/>
<stop offset="0.333333" stop-color="#B77EFF"/>
<stop offset="0.666667" stop-color="#9999FF"/>
<stop offset="1" stop-color="#6464FC"/>
</linearGradient>
</defs>
</svg>
